<?xml version="1.0" encoding="UTF-8" standalone="no"?>
<!-- Created with Inkscape (http://www.inkscape.org/) -->

<svg
   width="180.36049mm"
   height="181.72954mm"
   viewBox="0 0 180.36049 181.72954"
   version="1.1"
   id="svg1"
   inkscape:version="1.4 (86a8ad7, 2024-10-11)"
   sodipodi:docname="blackhole.svg"
   xmlns:inkscape="http://www.inkscape.org/namespaces/inkscape"
   xmlns:sodipodi="http://sodipodi.sourceforge.net/DTD/sodipodi-0.dtd"
   xmlns="http://www.w3.org/2000/svg"
   xmlns:svg="http://www.w3.org/2000/svg">
  <sodipodi:namedview
     id="namedview1"
     pagecolor="#ffffff"
     bordercolor="#000000"
     borderopacity="0.25"
     inkscape:showpageshadow="2"
     inkscape:pageopacity="0.0"
     inkscape:pagecheckerboard="0"
     inkscape:deskcolor="#d1d1d1"
     inkscape:document-units="mm"
     inkscape:zoom="0.51224046"
     inkscape:cx="345.54084"
     inkscape:cy="352.37357"
     inkscape:window-width="1280"
     inkscape:window-height="705"
     inkscape:window-x="-8"
     inkscape:window-y="-8"
     inkscape:window-maximized="1"
     inkscape:current-layer="layer1" />
  <defs
     id="defs1" />
  <g
     inkscape:label="Camada 1"
     inkscape:groupmode="layer"
     id="layer1"
     transform="translate(-13.544028,-55.466088)">
    <path
       style="fill:#ffbc32;fill-opacity:1;stroke:#ffbf3c;stroke-width:12;stroke-linecap:round;stroke-linejoin:round;stroke-dasharray:none;stroke-opacity:1;paint-order:markers stroke fill"
       d="m 91.42434,87.292172 c 0,0 26.34261,-25.826084 47.00348,-25.826084 20.66087,0 -2.58261,4.648694 -4.6487,5.681739 -2.06608,1.033042 -25.30956,19.111303 -20.14434,21.693912"
       id="path2" />
    <path
       style="fill:#ffbc32;fill-opacity:1;stroke:#ffbf3c;stroke-width:12;stroke-linecap:round;stroke-linejoin:round;stroke-dasharray:none;stroke-opacity:1;paint-order:markers stroke fill"
       d="m 116.64232,205.36954 c 0,0 -26.34261,25.82609 -47.003481,25.82609 -20.66087,0 2.58261,-4.6487 4.6487,-5.68174 2.066081,-1.03304 25.309561,-19.1113 20.144341,-21.69391"
       id="path2-5" />
    <path
       style="fill:#ffbc32;fill-opacity:1;stroke:#ffbf3c;stroke-width:12;stroke-linecap:round;stroke-linejoin:round;stroke-dasharray:none;stroke-opacity:1;paint-order:markers stroke fill"
       d="m 162.07842,138.22809 c 0,0 25.82609,26.3426 25.82609,47.00347 0,20.66087 -4.6487,-2.58261 -5.68174,-4.6487 -1.03304,-2.06608 -19.11131,-25.30955 -21.69391,-20.14433"
       id="path2-6" />
    <path
       style="fill:#ffbc32;fill-opacity:1;stroke:#ffbf3c;stroke-width:12;stroke-linecap:round;stroke-linejoin:round;stroke-dasharray:none;stroke-opacity:1;paint-order:markers stroke fill"
       d="m 46.583673,153.11563 c 0,0 -25.82609,-26.34261 -25.82609,-47.00348 0,-20.660872 4.6487,2.58261 5.68174,4.6487 1.03304,2.06608 19.1113,25.30956 21.69391,20.14434"
       id="path2-5-8" />
    <path
       style="fill:#d59000;fill-opacity:1;stroke:#d28e00;stroke-width:12.0001;stroke-linecap:round;stroke-linejoin:round;stroke-dasharray:none;stroke-opacity:1;paint-order:markers stroke fill"
       d="m 57.184015,113.80309 c 0,0 -0.300226,-31.50047 11.678651,-44.532591 11.978869,-13.032118 1.305832,4.308231 0.730871,6.206824 -0.574954,1.898587 -3.149872,26.978867 1.402173,25.209297"
       id="path2-1" />
    <path
       style="fill:#d59000;fill-opacity:1;stroke:#d28e00;stroke-width:12.0001;stroke-linecap:round;stroke-linejoin:round;stroke-dasharray:none;stroke-opacity:1;paint-order:markers stroke fill"
       d="m 153.52104,178.05186 c 0,0 0.30024,31.50046 -11.67863,44.53258 -11.97887,13.03212 -1.30584,-4.30823 -0.73089,-6.20681 0.57496,-1.89859 3.14989,-26.97887 -1.40216,-25.2093"
       id="path2-5-89" />
    <path
       style="fill:#d59000;fill-opacity:1;stroke:#d28e00;stroke-width:12.0001;stroke-linecap:round;stroke-linejoin:round;stroke-dasharray:none;stroke-opacity:1;paint-order:markers stroke fill"
       d="m 139.95868,101.13801 c 0,0 30.85835,-1.10795 43.31699,10.79966 12.45864,11.9076 -4.25257,1.44378 -6.09738,0.90462 -1.84482,-0.53915 -26.34229,-2.53209 -24.72498,2.07382"
       id="path2-6-2" />
    <path
       style="fill:#d59000;fill-opacity:1;stroke:#d28e00;stroke-width:12.0001;stroke-linecap:round;stroke-linejoin:round;stroke-dasharray:none;stroke-opacity:1;paint-order:markers stroke fill"
       d="m 67.446516,188.5108 c 0,0 -30.858359,1.10796 -43.316998,-10.79966 -12.458644,-11.90759 4.252581,-1.44377 6.097386,-0.90462 1.844807,0.53914 26.342284,2.53212 24.724977,-2.07379"
       id="path2-5-8-7" />
    <ellipse
       style="fill:#000000;fill-opacity:1;stroke:#d18c00;stroke-width:15;stroke-linecap:round;stroke-linejoin:round;stroke-dasharray:none;stroke-opacity:1;paint-order:markers stroke fill"
       id="path1"
       cx="103.30434"
       cy="146.17564"
       rx="61.982609"
       ry="60.949566" />
  </g>
</svg>
