<?xml version="1.0" encoding="UTF-8" standalone="no"?>
<!-- Created with Inkscape (http://www.inkscape.org/) -->

<svg
   width="4837.7949"
   height="2902.677"
   viewBox="0 0 1279.9999 767.99996"
   version="1.1"
   id="svg1"
   inkscape:version="1.4 (86a8ad7, 2024-10-11)"
   sodipodi:docname="Brick_tiles.svg"
   xml:space="preserve"
   xmlns:inkscape="http://www.inkscape.org/namespaces/inkscape"
   xmlns:sodipodi="http://sodipodi.sourceforge.net/DTD/sodipodi-0.dtd"
   xmlns="http://www.w3.org/2000/svg"
   xmlns:svg="http://www.w3.org/2000/svg"><sodipodi:namedview
     id="namedview1"
     pagecolor="#ffffff"
     bordercolor="#000000"
     borderopacity="0.25"
     inkscape:showpageshadow="2"
     inkscape:pageopacity="0.0"
     inkscape:pagecheckerboard="0"
     inkscape:deskcolor="#d1d1d1"
     inkscape:document-units="px"
     inkscape:zoom="0.11411074"
     inkscape:cx="1906.0432"
     inkscape:cy="1888.5164"
     inkscape:window-width="1280"
     inkscape:window-height="705"
     inkscape:window-x="-8"
     inkscape:window-y="-8"
     inkscape:window-maximized="1"
     inkscape:current-layer="layer1" /><defs
     id="defs1" /><g
     inkscape:label="Camada 1"
     inkscape:groupmode="layer"
     id="layer1"><rect
       style="fill:#b3b3b3;fill-opacity:1;stroke-width:15.293;paint-order:stroke fill markers"
       id="rect1"
       width="769.9176"
       height="778.52283"
       x="0"
       y="-10.022062" /><rect
       style="fill:#666666;fill-opacity:1;stroke-width:15.293;paint-order:stroke fill markers"
       id="rect2"
       width="68.02755"
       height="25.337364"
       x="341.67105"
       y="741.90887" /><rect
       style="fill:#666666;fill-opacity:1;stroke-width:15.293;paint-order:stroke fill markers"
       id="rect2-8"
       width="68.292076"
       height="25.337374"
       x="342.28192"
       y="1.5877645" /><rect
       style="fill:#666666;fill-opacity:1;stroke-width:15.293;paint-order:stroke fill markers"
       id="rect2-8-7"
       width="68.292076"
       height="25.337374"
       x="131.20197"
       y="-0.1751083" /><rect
       style="fill:#666666;fill-opacity:1;stroke-width:15.293;paint-order:stroke fill markers"
       id="rect2-8-7-2"
       width="68.292076"
       height="23.271299"
       x="147.68808"
       y="743.47992" /><rect
       style="fill:#666666;fill-opacity:1;stroke-width:15.293;paint-order:stroke fill markers"
       id="rect2-8-7-1"
       width="68.292076"
       height="25.337374"
       x="533.09302"
       y="744.49561" /><rect
       style="fill:#666666;fill-opacity:1;stroke-width:15.293;paint-order:stroke fill markers"
       id="rect2-8-7-1-4"
       width="72.097618"
       height="25.337374"
       x="697.92297"
       y="743.64258" /><rect
       style="fill:#666666;fill-opacity:1;stroke-width:15.293;paint-order:stroke fill markers"
       id="rect2-8-7-1-4-9"
       width="27.035999"
       height="70.79129"
       x="742.89697"
       y="695.97089" /><rect
       style="fill:#666666;fill-opacity:1;stroke-width:15.293;paint-order:stroke fill markers"
       id="rect2-8-7-1-4-8"
       width="74.490341"
       height="25.337374"
       x="-77.010757"
       y="742.47919"
       transform="scale(-1,1)" /><rect
       style="fill:#666666;fill-opacity:1;stroke-width:15.293;paint-order:stroke fill markers"
       id="rect2-8-7-1-4-9-6"
       width="29.036428"
       height="70.79129"
       x="-30.436296"
       y="694.8075"
       transform="scale(-1,1)" /><rect
       style="fill:#666666;fill-opacity:1;stroke-width:15.293;paint-order:stroke fill markers"
       id="rect2-8-7-1-4-8-8"
       width="74.490341"
       height="28.944426"
       x="-77.023285"
       y="-28.013941"
       transform="scale(-1)" /><rect
       style="fill:#666666;fill-opacity:1;stroke-width:15.293;paint-order:stroke fill markers"
       id="rect2-8-7-1-4-9-6-6"
       width="29.036428"
       height="76.80304"
       x="-30.448822"
       y="-75.685631"
       transform="scale(-1)" /><rect
       style="fill:#666666;fill-opacity:1;stroke-width:15.293;paint-order:stroke fill markers"
       id="rect2-8-7-1-4-8-8-8"
       width="74.490341"
       height="23.271286"
       x="691.43481"
       y="-23.498285"
       transform="scale(1,-1)" /><rect
       style="fill:#666666;fill-opacity:1;stroke-width:15.293;paint-order:stroke fill markers"
       id="rect2-8-7-1-4-9-6-6-6"
       width="29.036428"
       height="70.79129"
       x="738.00928"
       y="-70.56929"
       transform="scale(1,-1)" /><rect
       style="fill:#666666;fill-opacity:1;stroke-width:15.293;paint-order:stroke fill markers"
       id="rect2-8-7-1-6"
       width="68.292076"
       height="25.337374"
       x="548.60577"
       y="-0.26156533" /><rect
       style="fill:#666666;fill-opacity:1;stroke-width:15.2931;paint-order:stroke fill markers"
       id="rect2-5"
       width="29.036425"
       height="54.262581"
       x="740.26855"
       y="383.96533" /><rect
       style="fill:#666666;fill-opacity:1;stroke-width:15.2931;paint-order:stroke fill markers"
       id="rect2-5-2"
       width="29.036425"
       height="54.262581"
       x="740.41498"
       y="563.88562" /><rect
       style="fill:#666666;fill-opacity:1;stroke-width:15.2931;paint-order:stroke fill markers"
       id="rect2-5-4"
       width="29.036425"
       height="54.262581"
       x="0.93000001"
       y="561.5976" /><rect
       style="fill:#666666;fill-opacity:1;stroke-width:15.2931;paint-order:stroke fill markers"
       id="rect2-5-4-3"
       width="29.036425"
       height="54.262581"
       x="0.96600002"
       y="171.12698" /><rect
       style="fill:#666666;fill-opacity:1;stroke-width:15.2931;paint-order:stroke fill markers"
       id="rect2-5-4-1"
       width="29.036425"
       height="54.262581"
       x="741.21259"
       y="175.32928" /><rect
       style="fill:#666666;fill-opacity:1;stroke-width:15.2931;paint-order:stroke fill markers"
       id="rect2-5-1"
       width="29.036425"
       height="54.262581"
       x="0.86900002"
       y="377.81329" /><ellipse
       style="fill:#999999;fill-opacity:1;stroke-width:15.293;paint-order:stroke fill markers"
       id="path2-8"
       cx="420.06729"
       cy="694.64203"
       rx="22.726955"
       ry="20.66087" /><ellipse
       style="fill:#999999;fill-opacity:1;stroke-width:15.293;paint-order:stroke fill markers"
       id="path2-1"
       cx="133.20802"
       cy="326.00372"
       rx="22.726955"
       ry="20.66087" /><ellipse
       style="fill:#999999;fill-opacity:1;stroke-width:15.293;paint-order:stroke fill markers"
       id="path2-1-7"
       cx="716.55109"
       cy="132.28143"
       rx="22.726955"
       ry="20.66087" /><ellipse
       style="fill:#999999;fill-opacity:1;stroke-width:15.293;paint-order:stroke fill markers"
       id="path2-1-82"
       cx="345.60498"
       cy="134.6053"
       rx="22.726955"
       ry="20.66087" /><ellipse
       style="fill:#999999;fill-opacity:1;stroke-width:15.293;paint-order:stroke fill markers"
       id="path2-1-8"
       cx="178.43947"
       cy="700.84296"
       rx="12.396521"
       ry="12.396522" /><ellipse
       style="fill:#999999;fill-opacity:1;stroke-width:15.293;paint-order:stroke fill markers"
       id="path2-1-8-91"
       cx="187.31766"
       cy="94.167526"
       rx="12.396521"
       ry="12.396522" /><ellipse
       style="fill:#999999;fill-opacity:1;stroke-width:15.293;paint-order:stroke fill markers"
       id="path2-1-8-91-1"
       cx="445.0607"
       cy="81.082993"
       rx="12.396521"
       ry="12.396522" /><ellipse
       style="fill:#999999;fill-opacity:1;stroke-width:15.293;paint-order:stroke fill markers"
       id="path2-1-8-91-3"
       cx="605.21362"
       cy="81.111389"
       rx="12.396521"
       ry="12.396522" /><ellipse
       style="fill:#999999;fill-opacity:1;stroke-width:15.293;paint-order:stroke fill markers"
       id="path2-1-8-53"
       cx="311.99899"
       cy="631.06854"
       rx="12.396521"
       ry="12.396522" /><ellipse
       style="fill:#999999;fill-opacity:1;stroke-width:15.293;paint-order:stroke fill markers"
       id="path2-1-8-53-3"
       cx="303.73697"
       cy="431.24673"
       rx="12.396521"
       ry="12.396522" /><ellipse
       style="fill:#999999;fill-opacity:1;stroke-width:15.293;paint-order:stroke fill markers"
       id="path2-1-8-53-5"
       cx="428.95007"
       cy="312.98898"
       rx="12.396521"
       ry="12.396522" /><ellipse
       style="fill:#999999;fill-opacity:1;stroke-width:15.293;paint-order:stroke fill markers"
       id="path2-1-8-53-7"
       cx="639.89923"
       cy="496.24585"
       rx="12.396521"
       ry="12.396522" /><ellipse
       style="fill:#999999;fill-opacity:1;stroke-width:15.293;paint-order:stroke fill markers"
       id="path2-1-8-5"
       cx="589.61047"
       cy="652.8999"
       rx="12.396521"
       ry="12.396522" /><path
       sodipodi:type="star"
       style="fill:#808080;fill-opacity:1;stroke-width:22.5075;paint-order:stroke fill markers"
       id="path4-14-4"
       inkscape:flatsided="true"
       sodipodi:sides="9"
       sodipodi:cx="342.97043"
       sodipodi:cy="334.70609"
       sodipodi:r1="36.611153"
       sodipodi:r2="34.403233"
       sodipodi:arg1="0.28605144"
       sodipodi:arg2="0.63511729"
       inkscape:rounded="0"
       inkscape:randomized="0"
       d="m 378.09391,345.03652 -14.85761,20.16007 -24.34024,5.89323 -22.43379,-11.13113 -10.03033,-22.9471 7.06643,-24.02587 20.85674,-13.86268 24.88794,2.78703 17.2738,18.13265 z"
       inkscape:transform-center-x="0.50152841"
       inkscape:transform-center-y="0.26073127"
       transform="matrix(0.70886665,0,0,0.65127627,-147.48759,263.93575)" /><path
       sodipodi:type="star"
       style="fill:#808080;fill-opacity:1;stroke-width:22.5075;paint-order:stroke fill markers"
       id="path4-14-5"
       inkscape:flatsided="true"
       sodipodi:sides="9"
       sodipodi:cx="342.97043"
       sodipodi:cy="334.70609"
       sodipodi:r1="36.611153"
       sodipodi:r2="34.403233"
       sodipodi:arg1="0.28605144"
       sodipodi:arg2="0.63511729"
       inkscape:rounded="0"
       inkscape:randomized="0"
       d="m 378.09391,345.03652 -14.85761,20.16007 -24.34024,5.89323 -22.43379,-11.13113 -10.03033,-22.9471 7.06643,-24.02587 20.85674,-13.86268 24.88794,2.78703 17.2738,18.13265 z"
       inkscape:transform-center-x="0.50152841"
       inkscape:transform-center-y="0.26073127"
       transform="matrix(0.70886665,0,0,0.65127627,-166.12261,465.77284)" /><path
       sodipodi:type="star"
       style="fill:#808080;fill-opacity:1;stroke-width:22.5075;paint-order:stroke fill markers"
       id="path4-14-5-9"
       inkscape:flatsided="true"
       sodipodi:sides="9"
       sodipodi:cx="342.97043"
       sodipodi:cy="334.70609"
       sodipodi:r1="36.611153"
       sodipodi:r2="34.403233"
       sodipodi:arg1="0.28605144"
       sodipodi:arg2="0.63511729"
       inkscape:rounded="0"
       inkscape:randomized="0"
       d="m 378.09391,345.03652 -14.85761,20.16007 -24.34024,5.89323 -22.43379,-11.13113 -10.03033,-22.9471 7.06643,-24.02587 20.85674,-13.86268 24.88794,2.78703 17.2738,18.13265 z"
       inkscape:transform-center-x="0.50152841"
       inkscape:transform-center-y="0.26073127"
       transform="matrix(0.70886665,0,0,0.65127627,445.98147,440.33343)" /><path
       sodipodi:type="star"
       style="fill:#808080;fill-opacity:1;stroke-width:22.5075;paint-order:stroke fill markers"
       id="path4-14-5-9-6"
       inkscape:flatsided="true"
       sodipodi:sides="9"
       sodipodi:cx="342.97043"
       sodipodi:cy="334.70609"
       sodipodi:r1="36.611153"
       sodipodi:r2="34.403233"
       sodipodi:arg1="0.28605144"
       sodipodi:arg2="0.63511729"
       inkscape:rounded="0"
       inkscape:randomized="0"
       d="m 378.09391,345.03652 -14.85761,20.16007 -24.34024,5.89323 -22.43379,-11.13113 -10.03033,-22.9471 7.06643,-24.02587 20.85674,-13.86268 24.88794,2.78703 17.2738,18.13265 z"
       inkscape:transform-center-x="0.50152841"
       inkscape:transform-center-y="0.26073127"
       transform="matrix(0.70886665,0,0,0.65127627,439.19767,99.380295)" /><path
       sodipodi:type="star"
       style="fill:#999999;fill-opacity:1;stroke-width:22.5075;paint-order:stroke fill markers"
       id="path4-14-5-9-6-4"
       inkscape:flatsided="true"
       sodipodi:sides="9"
       sodipodi:cx="342.97043"
       sodipodi:cy="334.70609"
       sodipodi:r1="36.611153"
       sodipodi:r2="34.403233"
       sodipodi:arg1="0.28605144"
       sodipodi:arg2="0.63511729"
       inkscape:rounded="0"
       inkscape:randomized="0"
       d="m 378.09391,345.03652 -14.85761,20.16007 -24.34024,5.89323 -22.43379,-11.13113 -10.03033,-22.9471 7.06643,-24.02587 20.85674,-13.86268 24.88794,2.78703 17.2738,18.13265 z"
       inkscape:transform-center-x="0.50152841"
       inkscape:transform-center-y="0.26073127"
       transform="matrix(0.70886665,0,0,0.65127627,181.81285,199.20384)" /><path
       sodipodi:type="star"
       style="fill:#808080;fill-opacity:1;stroke-width:22.5075;paint-order:stroke fill markers"
       id="path4-14"
       inkscape:flatsided="true"
       sodipodi:sides="9"
       sodipodi:cx="342.97043"
       sodipodi:cy="334.70609"
       sodipodi:r1="36.611153"
       sodipodi:r2="34.403233"
       sodipodi:arg1="0.28605144"
       sodipodi:arg2="0.63511729"
       inkscape:rounded="0"
       inkscape:randomized="0"
       d="m 378.09391,345.03652 -14.85761,20.16007 -24.34024,5.89323 -22.43379,-11.13113 -10.03033,-22.9471 7.06643,-24.02587 20.85674,-13.86268 24.88794,2.78703 17.2738,18.13265 z"
       inkscape:transform-center-x="0.50152841"
       inkscape:transform-center-y="0.26073127"
       transform="matrix(0.70886665,0,0,0.65127627,-172.1499,-69.504939)" /><rect
       style="fill:#cccccc;fill-opacity:1;stroke-width:15.293;paint-order:stroke fill markers"
       id="rect4"
       width="260.08539"
       height="782.10834"
       x="769.97333"
       y="-2.1166489" /><path
       sodipodi:type="star"
       style="fill:#b3b3b3;fill-opacity:1;stroke-width:25.8783;paint-order:stroke fill markers"
       id="path4-14-9"
       inkscape:flatsided="true"
       sodipodi:sides="9"
       sodipodi:cx="342.97043"
       sodipodi:cy="334.70609"
       sodipodi:r1="36.611153"
       sodipodi:r2="34.403233"
       sodipodi:arg1="0.28605144"
       sodipodi:arg2="0.63511729"
       inkscape:rounded="0"
       inkscape:randomized="0"
       d="m 378.09391,345.03652 -14.85761,20.16007 -24.34024,5.89323 -22.43379,-11.13113 -10.03033,-22.9471 7.06643,-24.02587 20.85674,-13.86268 24.88794,2.78703 17.2738,18.13265 z"
       inkscape:transform-center-x="0.43883333"
       inkscape:transform-center-y="0.22540887"
       transform="matrix(0.62025618,0,0,0.5630411,745.50037,491.71684)" /><path
       sodipodi:type="star"
       style="fill:#b3b3b3;fill-opacity:1;stroke-width:25.8783;paint-order:stroke fill markers"
       id="path4-14-9-8"
       inkscape:flatsided="true"
       sodipodi:sides="9"
       sodipodi:cx="342.97043"
       sodipodi:cy="334.70609"
       sodipodi:r1="36.611153"
       sodipodi:r2="34.403233"
       sodipodi:arg1="0.28605144"
       sodipodi:arg2="0.63511729"
       inkscape:rounded="0"
       inkscape:randomized="0"
       d="m 378.09391,345.03652 -14.85761,20.16007 -24.34024,5.89323 -22.43379,-11.13113 -10.03033,-22.9471 7.06643,-24.02587 20.85674,-13.86268 24.88794,2.78703 17.2738,18.13265 z"
       inkscape:transform-center-x="0.43883333"
       inkscape:transform-center-y="0.22540887"
       transform="matrix(0.62025618,0,0,0.5630411,623.79202,33.458503)" /><path
       sodipodi:type="star"
       style="fill:#b3b3b3;fill-opacity:1;stroke-width:25.8783;paint-order:stroke fill markers"
       id="path4-14-9-0"
       inkscape:flatsided="true"
       sodipodi:sides="9"
       sodipodi:cx="342.97043"
       sodipodi:cy="334.70609"
       sodipodi:r1="36.611153"
       sodipodi:r2="34.403233"
       sodipodi:arg1="0.28605144"
       sodipodi:arg2="0.63511729"
       inkscape:rounded="0"
       inkscape:randomized="0"
       d="m 378.09391,345.03652 -14.85761,20.16007 -24.34024,5.89323 -22.43379,-11.13113 -10.03033,-22.9471 7.06643,-24.02587 20.85674,-13.86268 24.88794,2.78703 17.2738,18.13265 z"
       inkscape:transform-center-x="0.43883333"
       inkscape:transform-center-y="0.22540887"
       transform="matrix(0.62025618,0,0,0.5630411,742.32534,-140.10817)" /><path
       sodipodi:type="star"
       style="fill:#b3b3b3;fill-opacity:1;stroke-width:25.8783;paint-order:stroke fill markers"
       id="path4-14-9-1"
       inkscape:flatsided="true"
       sodipodi:sides="9"
       sodipodi:cx="342.97043"
       sodipodi:cy="334.70609"
       sodipodi:r1="36.611153"
       sodipodi:r2="34.403233"
       sodipodi:arg1="0.28605144"
       sodipodi:arg2="0.63511729"
       inkscape:rounded="0"
       inkscape:randomized="0"
       d="m 378.09391,345.03652 -14.85761,20.16007 -24.34024,5.89323 -22.43379,-11.13113 -10.03033,-22.9471 7.06643,-24.02587 20.85674,-13.86268 24.88794,2.78703 17.2738,18.13265 z"
       inkscape:transform-center-x="0.43883333"
       inkscape:transform-center-y="0.22540887"
       transform="matrix(0.62025618,0,0,0.5630411,640.72535,300.1585)" /><path
       sodipodi:type="star"
       style="fill:#b3b3b3;fill-opacity:1;stroke-width:25.8783;paint-order:stroke fill markers"
       id="path4-14-9-9"
       inkscape:flatsided="true"
       sodipodi:sides="9"
       sodipodi:cx="342.97043"
       sodipodi:cy="334.70609"
       sodipodi:r1="36.611153"
       sodipodi:r2="34.403233"
       sodipodi:arg1="0.28605144"
       sodipodi:arg2="0.63511729"
       inkscape:rounded="0"
       inkscape:randomized="0"
       d="m 378.09391,345.03652 -14.85761,20.16007 -24.34024,5.89323 -22.43379,-11.13113 -10.03033,-22.9471 7.06643,-24.02587 20.85674,-13.86268 24.88794,2.78703 17.2738,18.13265 z"
       inkscape:transform-center-x="0.43883333"
       inkscape:transform-center-y="0.22540887"
       transform="matrix(0.62025618,0,0,0.5630411,767.72534,141.40851)" /><path
       sodipodi:type="star"
       style="fill:#b3b3b3;fill-opacity:1;stroke-width:25.8783;paint-order:stroke fill markers"
       id="path4-14-9-3"
       inkscape:flatsided="true"
       sodipodi:sides="9"
       sodipodi:cx="342.97043"
       sodipodi:cy="334.70609"
       sodipodi:r1="36.611153"
       sodipodi:r2="34.403233"
       sodipodi:arg1="0.28605144"
       sodipodi:arg2="0.63511729"
       inkscape:rounded="0"
       inkscape:randomized="0"
       d="m 378.09391,345.03652 -14.85761,20.16007 -24.34024,5.89323 -22.43379,-11.13113 -10.03033,-22.9471 7.06643,-24.02587 20.85674,-13.86268 24.88794,2.78703 17.2738,18.13265 z"
       inkscape:transform-center-x="0.43883333"
       inkscape:transform-center-y="0.22540887"
       transform="matrix(0.62025618,0,0,0.5630411,615.32535,526.64184)" /><ellipse
       style="fill:#999999;fill-opacity:1;stroke-width:15.293;paint-order:stroke fill markers"
       id="path2-1-8-0"
       cx="823.34442"
       cy="611.67773"
       rx="12.396521"
       ry="12.396522" /><ellipse
       style="fill:#999999;fill-opacity:1;stroke-width:15.293;paint-order:stroke fill markers"
       id="path2-1-8-0-0"
       cx="960.92773"
       cy="531.24445"
       rx="12.396521"
       ry="12.396522" /><ellipse
       style="fill:#999999;fill-opacity:1;stroke-width:15.293;paint-order:stroke fill markers"
       id="path2-1-8-0-9"
       cx="846.62775"
       cy="340.74442"
       rx="12.396521"
       ry="12.396522" /><ellipse
       style="fill:#999999;fill-opacity:1;stroke-width:15.293;paint-order:stroke fill markers"
       id="path2-1-8-0-4"
       cx="948.22772"
       cy="196.81108"
       rx="12.396521"
       ry="12.396522" /><ellipse
       style="fill:#999999;fill-opacity:1;stroke-width:15.293;paint-order:stroke fill markers"
       id="path2-1-8-0-8"
       cx="842.39447"
       cy="78.277771"
       rx="12.396521"
       ry="12.396522" /><ellipse
       style="fill:#b3b3b3;fill-opacity:1;stroke-width:15.2929;paint-order:stroke fill markers"
       id="path2-1-8-0-8-7"
       cx="916.47772"
       cy="288.88611"
       rx="12.39652"
       ry="13.454854" /><ellipse
       style="fill:#b3b3b3;fill-opacity:1;stroke-width:15.2929;paint-order:stroke fill markers"
       id="path2-1-8-0-8-7-3"
       cx="823.34436"
       cy="429.64444"
       rx="12.39652"
       ry="13.454854" /><ellipse
       style="fill:#b3b3b3;fill-opacity:1;stroke-width:15.2929;paint-order:stroke fill markers"
       id="path2-1-8-0-8-7-7"
       cx="899.54443"
       cy="603.21112"
       rx="12.39652"
       ry="13.454854" /><ellipse
       style="fill:#b3b3b3;fill-opacity:1;stroke-width:15.2929;paint-order:stroke fill markers"
       id="path2-1-8-0-8-7-6"
       cx="965.16113"
       cy="427.52774"
       rx="12.39652"
       ry="13.454854" /><ellipse
       style="fill:#cccccc;fill-opacity:1;stroke-width:15.2929;paint-order:stroke fill markers"
       id="path2-1-8-0-8-7-9"
       cx="956.6944"
       cy="137.54445"
       rx="12.39652"
       ry="13.454854" /><ellipse
       style="fill:#cccccc;fill-opacity:1;stroke-width:15.2929;paint-order:stroke fill markers"
       id="path2-1-8-0-8-7-34"
       cx="833.92773"
       cy="126.96111"
       rx="12.39652"
       ry="13.454854" /><rect
       style="fill:#cccccc;fill-opacity:1;stroke-width:15.293;paint-order:stroke fill markers"
       id="rect4-7"
       width="281.25208"
       height="813.85834"
       x="1015.2062"
       y="-24.870832" /><path
       sodipodi:type="star"
       style="fill:#b3b3b3;fill-opacity:1;stroke-width:25.8783;paint-order:stroke fill markers"
       id="path4-14-9-2"
       inkscape:flatsided="true"
       sodipodi:sides="9"
       sodipodi:cx="342.97043"
       sodipodi:cy="334.70609"
       sodipodi:r1="36.611153"
       sodipodi:r2="34.403233"
       sodipodi:arg1="0.28605144"
       sodipodi:arg2="0.63511729"
       inkscape:rounded="0"
       inkscape:randomized="0"
       d="m 378.09391,345.03652 -14.85761,20.16007 -24.34024,5.89323 -22.43379,-11.13113 -10.03033,-22.9471 7.06643,-24.02587 20.85674,-13.86268 24.88794,2.78703 17.2738,18.13265 z"
       inkscape:transform-center-x="0.43883333"
       inkscape:transform-center-y="0.22540887"
       transform="matrix(0.62025618,0,0,0.5630411,1001.3166,494.36265)" /><path
       sodipodi:type="star"
       style="fill:#b3b3b3;fill-opacity:1;stroke-width:25.8783;paint-order:stroke fill markers"
       id="path4-14-9-8-2"
       inkscape:flatsided="true"
       sodipodi:sides="9"
       sodipodi:cx="342.97043"
       sodipodi:cy="334.70609"
       sodipodi:r1="36.611153"
       sodipodi:r2="34.403233"
       sodipodi:arg1="0.28605144"
       sodipodi:arg2="0.63511729"
       inkscape:rounded="0"
       inkscape:randomized="0"
       d="m 378.09391,345.03652 -14.85761,20.16007 -24.34024,5.89323 -22.43379,-11.13113 -10.03033,-22.9471 7.06643,-24.02587 20.85674,-13.86268 24.88794,2.78703 17.2738,18.13265 z"
       inkscape:transform-center-x="0.43883333"
       inkscape:transform-center-y="0.22540887"
       transform="matrix(0.62025618,0,0,0.5630411,879.60828,36.104318)" /><path
       sodipodi:type="star"
       style="fill:#b3b3b3;fill-opacity:1;stroke-width:25.8783;paint-order:stroke fill markers"
       id="path4-14-9-0-8"
       inkscape:flatsided="true"
       sodipodi:sides="9"
       sodipodi:cx="342.97043"
       sodipodi:cy="334.70609"
       sodipodi:r1="36.611153"
       sodipodi:r2="34.403233"
       sodipodi:arg1="0.28605144"
       sodipodi:arg2="0.63511729"
       inkscape:rounded="0"
       inkscape:randomized="0"
       d="m 378.09391,345.03652 -14.85761,20.16007 -24.34024,5.89323 -22.43379,-11.13113 -10.03033,-22.9471 7.06643,-24.02587 20.85674,-13.86268 24.88794,2.78703 17.2738,18.13265 z"
       inkscape:transform-center-x="0.43883333"
       inkscape:transform-center-y="0.22540887"
       transform="matrix(0.62025618,0,0,0.5630411,998.1416,-137.46236)" /><path
       sodipodi:type="star"
       style="fill:#b3b3b3;fill-opacity:1;stroke-width:25.8783;paint-order:stroke fill markers"
       id="path4-14-9-1-2"
       inkscape:flatsided="true"
       sodipodi:sides="9"
       sodipodi:cx="342.97043"
       sodipodi:cy="334.70609"
       sodipodi:r1="36.611153"
       sodipodi:r2="34.403233"
       sodipodi:arg1="0.28605144"
       sodipodi:arg2="0.63511729"
       inkscape:rounded="0"
       inkscape:randomized="0"
       d="m 378.09391,345.03652 -14.85761,20.16007 -24.34024,5.89323 -22.43379,-11.13113 -10.03033,-22.9471 7.06643,-24.02587 20.85674,-13.86268 24.88794,2.78703 17.2738,18.13265 z"
       inkscape:transform-center-x="0.43883333"
       inkscape:transform-center-y="0.22540887"
       transform="matrix(0.62025618,0,0,0.5630411,896.54161,302.80431)" /><path
       sodipodi:type="star"
       style="fill:#b3b3b3;fill-opacity:1;stroke-width:25.8783;paint-order:stroke fill markers"
       id="path4-14-9-9-8"
       inkscape:flatsided="true"
       sodipodi:sides="9"
       sodipodi:cx="342.97043"
       sodipodi:cy="334.70609"
       sodipodi:r1="36.611153"
       sodipodi:r2="34.403233"
       sodipodi:arg1="0.28605144"
       sodipodi:arg2="0.63511729"
       inkscape:rounded="0"
       inkscape:randomized="0"
       d="m 378.09391,345.03652 -14.85761,20.16007 -24.34024,5.89323 -22.43379,-11.13113 -10.03033,-22.9471 7.06643,-24.02587 20.85674,-13.86268 24.88794,2.78703 17.2738,18.13265 z"
       inkscape:transform-center-x="0.43883333"
       inkscape:transform-center-y="0.22540887"
       transform="matrix(0.62025618,0,0,0.5630411,1023.5416,144.05432)" /><path
       sodipodi:type="star"
       style="fill:#b3b3b3;fill-opacity:1;stroke-width:25.8783;paint-order:stroke fill markers"
       id="path4-14-9-3-9"
       inkscape:flatsided="true"
       sodipodi:sides="9"
       sodipodi:cx="342.97043"
       sodipodi:cy="334.70609"
       sodipodi:r1="36.611153"
       sodipodi:r2="34.403233"
       sodipodi:arg1="0.28605144"
       sodipodi:arg2="0.63511729"
       inkscape:rounded="0"
       inkscape:randomized="0"
       d="m 378.09391,345.03652 -14.85761,20.16007 -24.34024,5.89323 -22.43379,-11.13113 -10.03033,-22.9471 7.06643,-24.02587 20.85674,-13.86268 24.88794,2.78703 17.2738,18.13265 z"
       inkscape:transform-center-x="0.43883333"
       inkscape:transform-center-y="0.22540887"
       transform="matrix(0.62025618,0,0,0.5630411,871.14161,529.28765)" /><ellipse
       style="fill:#999999;fill-opacity:1;stroke-width:15.293;paint-order:stroke fill markers"
       id="path2-1-8-0-07"
       cx="1079.1606"
       cy="614.32355"
       rx="12.396521"
       ry="12.396522" /><ellipse
       style="fill:#999999;fill-opacity:1;stroke-width:15.293;paint-order:stroke fill markers"
       id="path2-1-8-0-0-8"
       cx="1216.744"
       cy="533.89026"
       rx="12.396521"
       ry="12.396522" /><ellipse
       style="fill:#999999;fill-opacity:1;stroke-width:15.293;paint-order:stroke fill markers"
       id="path2-1-8-0-0-8-5"
       cx="1159.8944"
       cy="423.2944"
       rx="12.396521"
       ry="12.396522" /><ellipse
       style="fill:#999999;fill-opacity:1;stroke-width:15.293;paint-order:stroke fill markers"
       id="path2-1-8-0-0-8-4"
       cx="1246.6777"
       cy="260.3111"
       rx="12.396521"
       ry="12.396522" /><ellipse
       style="fill:#999999;fill-opacity:1;stroke-width:15.293;paint-order:stroke fill markers"
       id="path2-1-8-0-0-8-2"
       cx="1174.7111"
       cy="105.79443"
       rx="12.396521"
       ry="12.396522" /><ellipse
       style="fill:#999999;fill-opacity:1;stroke-width:15.293;paint-order:stroke fill markers"
       id="path2-1-8-0-0-8-7"
       cx="1147.1945"
       cy="721.74438"
       rx="12.396521"
       ry="12.396522" /><ellipse
       style="fill:#999999;fill-opacity:1;stroke-width:15.293;paint-order:stroke fill markers"
       id="path2-1-8-0-0-8-52"
       cx="1250.9111"
       cy="605.32776"
       rx="12.396521"
       ry="12.396522" /><ellipse
       style="fill:#999999;fill-opacity:1;stroke-width:15.293;paint-order:stroke fill markers"
       id="path2-1-8-0-9-1"
       cx="1102.444"
       cy="343.39023"
       rx="12.396521"
       ry="12.396522" /><ellipse
       style="fill:#999999;fill-opacity:1;stroke-width:15.293;paint-order:stroke fill markers"
       id="path2-1-8-0-4-5"
       cx="1204.0439"
       cy="199.45689"
       rx="12.396521"
       ry="12.396522" /><ellipse
       style="fill:#999999;fill-opacity:1;stroke-width:15.293;paint-order:stroke fill markers"
       id="path2-1-8-0-8-8"
       cx="1098.2107"
       cy="80.923584"
       rx="12.396521"
       ry="12.396522" /><ellipse
       style="fill:#b3b3b3;fill-opacity:1;stroke-width:15.2929;paint-order:stroke fill markers"
       id="path2-1-8-0-8-7-61"
       cx="1172.2939"
       cy="291.53192"
       rx="12.39652"
       ry="13.454854" /><ellipse
       style="fill:#b3b3b3;fill-opacity:1;stroke-width:15.2929;paint-order:stroke fill markers"
       id="path2-1-8-0-8-7-3-2"
       cx="1079.1606"
       cy="432.29025"
       rx="12.39652"
       ry="13.454854" /><ellipse
       style="fill:#b3b3b3;fill-opacity:1;stroke-width:15.2929;paint-order:stroke fill markers"
       id="path2-1-8-0-8-7-7-4"
       cx="1155.3607"
       cy="605.85693"
       rx="12.39652"
       ry="13.454854" /><ellipse
       style="fill:#b3b3b3;fill-opacity:1;stroke-width:15.2929;paint-order:stroke fill markers"
       id="path2-1-8-0-8-7-6-2"
       cx="1220.9774"
       cy="430.17355"
       rx="12.39652"
       ry="13.454854" /><ellipse
       style="fill:#cccccc;fill-opacity:1;stroke-width:15.2929;paint-order:stroke fill markers"
       id="path2-1-8-0-8-7-9-5"
       cx="1212.5106"
       cy="140.19026"
       rx="12.39652"
       ry="13.454854" /><ellipse
       style="fill:#cccccc;fill-opacity:1;stroke-width:15.2929;paint-order:stroke fill markers"
       id="path2-1-8-0-8-7-34-8"
       cx="1089.744"
       cy="129.60693"
       rx="12.39652"
       ry="13.454854" /><g
       inkscape:label="Camada 1"
       id="layer1-6"
       transform="translate(769.5398,0.70238416)"><rect
         style="fill:#cccccc;stroke:none;stroke-width:4.10001;stroke-linecap:round;stroke-linejoin:round;paint-order:markers stroke fill"
         id="rect1-3"
         width="242.98705"
         height="255.79086"
         x="0.28620371"
         y="0.23051529" /><path
         style="fill:#b3b3b3;stroke:none;stroke-width:4.10001;stroke-linecap:round;stroke-linejoin:round;paint-order:markers stroke fill"
         d="m 59.56723,119.45565 13.028799,27.31315 27.36047,39.60406 33.223441,1.36566 20.84607,-21.85052 28.01191,-23.21617 -7.16583,-32.77577 L 152.0717,83.265735 120.15114,72.34048 83.019064,75.071792 Z"
         id="path2" /><rect
         style="fill:#999999;stroke:none;stroke-width:4.10001;stroke-linecap:round;stroke-linejoin:round;paint-order:markers stroke fill"
         id="rect2-7"
         width="246.89571"
         height="7.5111165"
         x="-0.36523569"
         y="122.18697" /><rect
         style="fill:#999999;stroke:none;stroke-width:4.10001;stroke-linecap:round;stroke-linejoin:round;paint-order:markers stroke fill"
         id="rect2-8-8"
         width="9.1201544"
         height="259.47488"
         x="116.35007"
         y="-0.48420861" /><path
         style="fill:#b3b3b3;stroke:none;stroke-width:4.10001;stroke-linecap:round;stroke-linejoin:round;paint-order:markers stroke fill"
         d="M 23.738038,18.397015 13.96644,40.247534 23.738038,54.586935 55.007151,56.635422 55.658593,40.930361 41.978358,15.665701 Z"
         id="path3" /><path
         style="fill:#b3b3b3;stroke:none;stroke-width:4.10001;stroke-linecap:round;stroke-linejoin:round;paint-order:markers stroke fill"
         d="m 184.46233,210.70446 18.25328,14.70676 15.46328,-6.91485 8.64091,-31.56603 -14.49145,-4.04821 -26.48341,8.56347 z"
         id="path3-5" /><path
         style="fill:#b3b3b3;stroke:none;stroke-width:4.10001;stroke-linecap:round;stroke-linejoin:round;paint-order:markers stroke fill"
         d="m 61.358693,222.03171 4.560079,14.87047 17.100295,-8.49742 -5.700098,-16.99485 -17.100295,-3.18652 z"
         id="path4" /><path
         style="fill:#b3b3b3;stroke:none;stroke-width:4.10001;stroke-linecap:round;stroke-linejoin:round;paint-order:markers stroke fill"
         d="m 174.70207,31.464014 -12.88176,7.852481 11.57972,15.689552 14.61741,-9.474517 -0.69129,-18.190867 z"
         id="path4-1" /><path
         style="fill:#999999;stroke:none;stroke-width:4.10001;stroke-linecap:round;stroke-linejoin:round;paint-order:markers stroke fill"
         d="m 207.44407,92.825337 3.25721,-13.656572 10.42303,-7.511115 6.5144,10.925257 -4.56008,11.608087 -10.42303,10.925256 -14.33168,-6.828285 z"
         id="path5" /><path
         style="fill:#999999;stroke:none;stroke-width:4.10001;stroke-linecap:round;stroke-linejoin:round;paint-order:markers stroke fill"
         d="M 18.572742,161.65536 8.4980229,152.34722 6.9235562,139.1922 l 12.2509308,-1.04388 7.740248,9.57968 4.467357,14.72398 -12.371877,10.2041 z"
         id="path5-7" /><path
         style="fill:#999999;stroke:none;stroke-width:4.10001;stroke-linecap:round;stroke-linejoin:round;paint-order:markers stroke fill"
         d="m 34.161074,81.900078 11.725921,4.096973 -8.468721,8.876772 -13.028796,-3.414144 1.302879,-10.24243 z"
         id="path6" /><path
         style="fill:#999999;stroke:none;stroke-width:4.10001;stroke-linecap:round;stroke-linejoin:round;paint-order:markers stroke fill"
         d="m 213.36436,156.6423 11.00973,-5.88854 0.0979,12.55324 -11.45906,7.34093 -6.05211,-8.15656 z"
         id="path6-2" /></g><g
       inkscape:label="Camada 1"
       id="layer1-6-1"
       transform="matrix(1.0751298,0,0,1,1015.3621,0.60360325)"
       style="stroke-width:0.964427"><rect
         style="fill:#cccccc;stroke:none;stroke-width:3.95416;stroke-linecap:round;stroke-linejoin:round;paint-order:markers stroke fill"
         id="rect1-3-3"
         width="242.98705"
         height="255.79086"
         x="0.28620371"
         y="0.23051529" /><path
         style="fill:#b3b3b3;stroke:none;stroke-width:3.95416;stroke-linecap:round;stroke-linejoin:round;paint-order:markers stroke fill"
         d="m 59.56723,119.45565 13.028799,27.31315 27.36047,39.60406 33.223441,1.36566 20.84607,-21.85052 28.01191,-23.21617 -7.16583,-32.77577 L 152.0717,83.265735 120.15114,72.34048 83.019064,75.071792 Z"
         id="path2-5" /><rect
         style="fill:#999999;stroke:none;stroke-width:3.95416;stroke-linecap:round;stroke-linejoin:round;paint-order:markers stroke fill"
         id="rect2-7-9"
         width="246.89571"
         height="7.5111165"
         x="-0.36523569"
         y="122.18697" /><rect
         style="fill:#999999;stroke:none;stroke-width:3.95416;stroke-linecap:round;stroke-linejoin:round;paint-order:markers stroke fill"
         id="rect2-8-8-8"
         width="9.1201544"
         height="259.47488"
         x="116.35007"
         y="-0.48420861" /><path
         style="fill:#b3b3b3;stroke:none;stroke-width:3.95416;stroke-linecap:round;stroke-linejoin:round;paint-order:markers stroke fill"
         d="M 23.738038,18.397015 13.96644,40.247534 23.738038,54.586935 55.007151,56.635422 55.658593,40.930361 41.978358,15.665701 Z"
         id="path3-4" /><path
         style="fill:#b3b3b3;stroke:none;stroke-width:3.95416;stroke-linecap:round;stroke-linejoin:round;paint-order:markers stroke fill"
         d="m 184.46233,210.70446 18.25328,14.70676 15.46328,-6.91485 8.64091,-31.56603 -14.49145,-4.04821 -26.48341,8.56347 z"
         id="path3-5-0" /><path
         style="fill:#b3b3b3;stroke:none;stroke-width:3.95416;stroke-linecap:round;stroke-linejoin:round;paint-order:markers stroke fill"
         d="m 61.358693,222.03171 4.560079,14.87047 17.100295,-8.49742 -5.700098,-16.99485 -17.100295,-3.18652 z"
         id="path4-7" /><path
         style="fill:#b3b3b3;stroke:none;stroke-width:3.95416;stroke-linecap:round;stroke-linejoin:round;paint-order:markers stroke fill"
         d="m 174.70207,31.464014 -12.88176,7.852481 11.57972,15.689552 14.61741,-9.474517 -0.69129,-18.190867 z"
         id="path4-1-6" /><path
         style="fill:#999999;stroke:none;stroke-width:3.95416;stroke-linecap:round;stroke-linejoin:round;paint-order:markers stroke fill"
         d="m 207.44407,92.825337 3.25721,-13.656572 10.42303,-7.511115 6.5144,10.925257 -4.56008,11.608087 -10.42303,10.925256 -14.33168,-6.828285 z"
         id="path5-3" /><path
         style="fill:#999999;stroke:none;stroke-width:3.95416;stroke-linecap:round;stroke-linejoin:round;paint-order:markers stroke fill"
         d="M 18.572742,161.65536 8.4980229,152.34722 6.9235562,139.1922 l 12.2509308,-1.04388 7.740248,9.57968 4.467357,14.72398 -12.371877,10.2041 z"
         id="path5-7-6" /><path
         style="fill:#999999;stroke:none;stroke-width:3.95416;stroke-linecap:round;stroke-linejoin:round;paint-order:markers stroke fill"
         d="m 34.161074,81.900078 11.725921,4.096973 -8.468721,8.876772 -13.028796,-3.414144 1.302879,-10.24243 z"
         id="path6-1" /><path
         style="fill:#999999;stroke:none;stroke-width:3.95416;stroke-linecap:round;stroke-linejoin:round;paint-order:markers stroke fill"
         d="m 213.36436,156.6423 11.00973,-5.88854 0.0979,12.55324 -11.45906,7.34093 -6.05211,-8.15656 z"
         id="path6-2-5" /></g></g></svg>
