<?xml version="1.0" encoding="UTF-8" standalone="no"?>
<!-- Created with Inkscape (http://www.inkscape.org/) -->

<svg
   width="21.021235"
   height="23.407721"
   viewBox="0 0 5.5618681 6.1932928"
   version="1.1"
   id="svg1"
   inkscape:version="1.4 (86a8ad7, 2024-10-11)"
   sodipodi:docname="changelogicon.svg"
   xmlns:inkscape="http://www.inkscape.org/namespaces/inkscape"
   xmlns:sodipodi="http://sodipodi.sourceforge.net/DTD/sodipodi-0.dtd"
   xmlns="http://www.w3.org/2000/svg"
   xmlns:svg="http://www.w3.org/2000/svg">
  <sodipodi:namedview
     id="namedview1"
     pagecolor="#000000"
     bordercolor="#000000"
     borderopacity="0.25"
     inkscape:showpageshadow="2"
     inkscape:pageopacity="0.0"
     inkscape:pagecheckerboard="0"
     inkscape:deskcolor="#d1d1d1"
     inkscape:document-units="mm"
     inkscape:zoom="2.8284273"
     inkscape:cx="47.552929"
     inkscape:cy="67.351918"
     inkscape:window-width="1280"
     inkscape:window-height="705"
     inkscape:window-x="-8"
     inkscape:window-y="-8"
     inkscape:window-maximized="1"
     inkscape:current-layer="layer1" />
  <defs
     id="defs1">
    <inkscape:path-effect
       effect="spiro"
       id="path-effect4"
       is_visible="true"
       lpeversion="1" />
    <inkscape:path-effect
       effect="spiro"
       id="path-effect3"
       is_visible="true"
       lpeversion="1" />
    <inkscape:path-effect
       effect="spiro"
       id="path-effect2"
       is_visible="true"
       lpeversion="1" />
    <inkscape:path-effect
       effect="spiro"
       id="path-effect1"
       is_visible="true"
       lpeversion="1" />
    <inkscape:path-effect
       effect="spiro"
       id="path-effect1-4"
       is_visible="true"
       lpeversion="1" />
    <inkscape:path-effect
       effect="spiro"
       id="path-effect2-8"
       is_visible="true"
       lpeversion="1" />
    <inkscape:path-effect
       effect="spiro"
       id="path-effect3-1"
       is_visible="true"
       lpeversion="1" />
    <inkscape:path-effect
       effect="spiro"
       id="path-effect4-2"
       is_visible="true"
       lpeversion="1" />
    <inkscape:path-effect
       effect="spiro"
       id="path-effect4-2-2"
       is_visible="true"
       lpeversion="1" />
  </defs>
  <g
     inkscape:label="Camada 1"
     inkscape:groupmode="layer"
     id="layer1"
     transform="translate(-0.22819653,0.05243662)">
    <rect
       style="fill:none;stroke:#ffffff;stroke-width:0.3;stroke-linecap:round;stroke-linejoin:round;paint-order:markers stroke fill"
       id="rect1"
       width="5.2618685"
       height="5.8932929"
       x="0.37819654"
       y="0.097563386" />
    <rect
       style="fill:none;stroke:#9cb470;stroke-width:0.45;stroke-linecap:round;stroke-linejoin:round;stroke-dasharray:none;stroke-opacity:1;paint-order:markers stroke fill"
       id="rect2"
       width="3.1571214"
       height="0.21047474"
       x="0.90639293"
       y="0.78946233" />
    <rect
       style="fill:none;stroke:#9cb470;stroke-width:0.45;stroke-linecap:round;stroke-linejoin:round;stroke-dasharray:none;stroke-opacity:1;paint-order:markers stroke fill"
       id="rect2-8"
       width="3.8820899"
       height="0.21047474"
       x="0.900738"
       y="1.9017566" />
    <rect
       style="fill:none;stroke:#9cb470;stroke-width:0.45;stroke-linecap:round;stroke-linejoin:round;stroke-dasharray:none;stroke-opacity:1;paint-order:markers stroke fill"
       id="rect2-8-5"
       width="2.0345893"
       height="0.21047474"
       x="0.96218306"
       y="3.0536344" />
    <rect
       style="fill:none;stroke:#9cb470;stroke-width:0.45;stroke-linecap:round;stroke-linejoin:round;stroke-dasharray:none;stroke-opacity:1;paint-order:markers stroke fill"
       id="rect2-8-5-1"
       width="3.5546846"
       height="0.21047474"
       x="0.95622337"
       y="4.1821256" />
    <rect
       style="fill:none;stroke:#9cb470;stroke-width:0.45;stroke-linecap:round;stroke-linejoin:round;stroke-dasharray:none;stroke-opacity:1;paint-order:markers stroke fill"
       id="rect2-8-5-1-7"
       width="2.6192412"
       height="0.21047474"
       x="0.94888717"
       y="5.1849742" />
    <path
       style="fill:#f9f9f9;fill-opacity:1;stroke:none;stroke-width:1.70079;stroke-linecap:round;stroke-linejoin:round;stroke-dasharray:none;stroke-opacity:1;paint-order:markers stroke fill"
       d="M 1.1932426,11.711456 V 1.1932426 h 9.3249704 9.32497 V 11.711456 22.229668 h -9.32497 -9.3249704 z m 11.6867524,9.718789 c 0.497868,-0.138271 0.599227,-0.350925 0.599227,-1.257193 0,-0.704255 -0.02046,-0.800307 -0.211095,-0.990941 -0.116102,-0.116103 -0.344807,-0.235369 -0.508233,-0.265036 -0.163425,-0.02967 -2.573358,-0.04225 -5.3554069,-0.02796 l -5.0582695,0.02599 -0.2444403,0.244485 c -0.2185178,0.218559 -0.2471994,0.316979 -0.270459,0.928078 -0.030562,0.802944 0.072015,1.0593 0.5122024,1.280076 0.2823973,0.141636 0.7214893,0.154513 5.2578769,0.154186 3.1339094,-2.65e-4 5.0703874,-0.03386 5.2785974,-0.09169 z m 3.761314,-3.88553 c 0.360114,-0.219561 0.461927,-0.479115 0.461505,-1.176528 -4.42e-4,-0.703999 -0.2088,-1.072798 -0.680081,-1.203669 -0.45806,-0.127199 -13.4656249,-0.129058 -13.9231563,-0.002 -0.4918366,0.136596 -0.5992273,0.354305 -0.5992273,1.214793 0,0.405594 0.042906,0.817616 0.095348,0.915603 0.2263181,0.422879 0.2075047,0.421814 7.5060498,0.425148 6.6936478,0.0031 6.8567078,-9.02e-4 7.1395618,-0.173358 z m -5.541773,-4.412247 c 0.242828,-0.242828 0.258366,-0.301216 0.258366,-0.970877 0,-0.662301 -0.01817,-0.732854 -0.257855,-1.001168 l -0.257855,-0.288657 -4.0510767,-0.02541 c -2.2280922,-0.01398 -4.1439599,-0.0024 -4.2574838,0.02567 -0.113524,0.0281 -0.3024541,0.154721 -0.4198447,0.281388 -0.1905692,0.205628 -0.2134374,0.310144 -0.2134374,0.975496 0,0.705784 0.013664,0.758857 0.2583659,1.003559 l 0.258366,0.258366 H 6.6291258 10.841171 Z M 17.81705,8.8014393 c 0.245755,-0.2457549 0.258366,-0.2957013 0.258366,-1.0232651 0,-0.7275637 -0.01261,-0.7775101 -0.258366,-1.023265 L 17.558685,6.4965433 H 9.9460981 c -8.266913,0 -7.9771625,-0.017079 -8.2053175,0.4836661 -0.140664,0.3087239 -0.1291702,1.3628488 0.01775,1.6279251 0.2549603,0.4600032 -0.015056,0.4451789 8.1698595,0.4485387 l 7.6302949,0.00313 z M 14.855262,4.7761516 c 0.377536,-0.1577447 0.568504,-0.5596394 0.568504,-1.1964237 0,-0.6367843 -0.190968,-1.038679 -0.568504,-1.1964236 -0.462811,-0.193375 -12.188762,-0.193375 -12.6515734,0 -0.377536,0.1577446 -0.5685042,0.5596393 -0.5685042,1.1964236 0,0.6205425 0.1919658,1.037483 0.5491185,1.1926587 0.4391599,0.1908061 12.2149321,0.1943051 12.6709591,0.00377 z"
       id="path2"
       transform="matrix(0.26458333,0,0,0.26458333,0.22819653,-0.05243662)" />
    <path
       style="fill:#f9f9f9;fill-opacity:1;stroke:none;stroke-width:1.70079;stroke-linecap:round;stroke-linejoin:round;stroke-dasharray:none;stroke-opacity:1;paint-order:markers stroke fill"
       d="M 1.1932426,11.711456 V 1.1932426 h 9.3249704 9.32497 V 11.711456 22.229668 h -9.32497 -9.3249704 z m 11.8327144,9.713421 c 0.392637,-0.136875 0.453265,-0.305233 0.453265,-1.258666 0,-0.826848 -0.0035,-0.840593 -0.271947,-1.066472 L 12.935329,18.870911 H 7.6024731 2.2696171 l -0.228828,0.271947 C 1.8369976,19.38505 1.811961,19.490974 1.811961,20.110971 c 0,0.382891 0.045063,0.795067 0.1001388,0.915947 0.2246901,0.493141 0.2049297,0.491442 5.7423994,0.493631 3.4941808,0.0014 5.1791388,-0.02863 5.3714578,-0.09567 z m 3.536353,-3.800985 c 0.157203,-0.0548 0.338279,-0.208658 0.410937,-0.349164 0.155954,-0.301579 0.174595,-1.390989 0.02926,-1.709961 -0.230383,-0.505637 -0.06181,-0.494554 -7.5230276,-0.494554 -7.0662869,0 -7.3076839,0.0115 -7.4926095,0.357039 -0.1332836,0.249043 -0.1090435,1.788083 0.031183,1.979854 0.064738,0.08853 0.2735556,0.190999 0.4640388,0.2277 0.5823745,0.112206 13.7563273,0.101995 14.0802163,-0.01091 z m -5.387203,-4.48977 c 0.149291,-0.20966 0.182795,-0.390387 0.182795,-0.986026 0,-0.645634 -0.02587,-0.763231 -0.225469,-1.024919 L 10.906964,10.827572 H 6.6756034 2.4442427 L 2.172296,11.0564 c -0.2666033,0.224332 -0.2719466,0.24447 -0.2719466,1.024918 0,0.66315 0.030525,0.83896 0.1827954,1.052804 l 0.1827954,0.256712 h 4.3631856 4.3631852 z m 6.717514,-4.3310292 c 0.266504,-0.3742709 0.266504,-1.6755662 0,-2.0498371 l -0.182796,-0.2567124 -7.573281,0.00211 C 5.9712388,6.4998133 2.4092436,6.5364963 2.220999,6.5801703 2.0327543,6.6238453 1.8338805,6.7044163 1.7790572,6.7592173 1.6338336,6.9043822 1.5936335,8.3041635 1.7255422,8.6226199 1.7948772,8.79001 1.918443,8.9037041 2.0662177,8.9360794 c 0.1275334,0.027941 0.2716537,0.064069 0.3202673,0.080286 0.048614,0.016217 3.5162525,0.032625 7.705865,0.036463 l 7.617475,0.00698 z m -5.399644,-3.8844549 2.416706,-0.059234 0.257042,-0.2876791 c 0.238223,-0.2666177 0.257041,-0.3392428 0.257041,-0.9919968 0,-0.6520807 -0.01899,-0.7255655 -0.255974,-0.9908025 L 14.911818,2.3024408 11.720646,2.2239413 c -1.8594449,-0.04574 -4.5228966,-0.04574 -6.3823423,0 L 2.1471324,2.3024408 1.8825416,2.5985693 C 1.6264779,2.8851544 1.6189407,2.9184906 1.6486647,3.6329838 c 0.027807,0.6684155 0.0539,0.7614769 0.2757109,0.9833306 l 0.2449971,0.2450445 2.1856824,0.049657 c 3.1864206,0.072393 5.4103629,0.074476 8.1379219,0.00762 z"
       id="path3"
       transform="matrix(0.26458333,0,0,0.26458333,0.22819653,-0.05243662)" />
    <path
       style="fill:#f9f9f9;fill-opacity:1;stroke:none;stroke-width:1.70079;stroke-linecap:round;stroke-linejoin:round;stroke-dasharray:none;stroke-opacity:1;paint-order:markers stroke fill"
       d="M 1.1932426,11.711456 V 1.1932426 h 9.3249704 9.32497 V 11.711456 22.229668 h -9.32497 -9.3249704 z m 11.8186654,9.718317 c 0.368204,-0.128355 0.467314,-0.407827 0.467314,-1.317727 0,-0.766365 -0.0059,-0.788477 -0.271947,-1.012307 L 12.935329,18.870911 H 7.6024731 2.2696171 l -0.228828,0.271947 c -0.2043899,0.242904 -0.2288281,0.34736 -0.2288281,0.978083 0,0.900918 0.1253355,1.15172 0.6629126,1.326519 0.3106645,0.101015 10.2443554,0.08434 10.5370344,-0.01769 z M 16.6135,17.585021 c 0.158606,-0.07526 0.33366,-0.236234 0.389009,-0.357712 0.127262,-0.27931 0.131217,-1.374552 0.006,-1.649468 -0.218521,-0.479601 0.04855,-0.461286 -7.1531657,-0.490576 -3.6703259,-0.01493 -6.8854081,-0.0017 -7.1446269,0.02937 -0.7253452,0.08696 -0.810324,0.219363 -0.810324,1.262512 0,1.001139 0.072459,1.157538 0.5817443,1.255662 0.1904833,0.0367 3.3830909,0.0713 7.0946836,0.07689 5.9229287,0.0089 6.7836227,-0.0066 7.0367227,-0.126677 z m -5.438393,-4.450899 c 0.149291,-0.20966 0.182795,-0.390387 0.182795,-0.986026 0,-0.645634 -0.02587,-0.763231 -0.225469,-1.024919 L 10.906964,10.827572 H 6.6756034 2.4442427 L 2.172296,11.0564 c -0.2666033,0.224332 -0.2719466,0.24447 -0.2719466,1.024918 0,0.66315 0.030525,0.83896 0.1827954,1.052804 l 0.1827954,0.256712 h 4.3631856 4.3631852 z m 6.717514,-4.3310292 c 0.266504,-0.3742709 0.266504,-1.6755662 0,-2.0498371 l -0.182796,-0.2567124 -7.573281,0.00211 C 5.9712388,6.4998119 2.4092436,6.5364948 2.220999,6.5801696 2.0327543,6.6238444 1.8338805,6.7043676 1.7790572,6.75911 1.724234,6.8138525 1.66593,7.2247597 1.649493,7.6722372 1.623023,8.3928497 1.640943,8.5129587 1.806308,8.7231841 1.9210485,8.8690529 2.1029051,8.9742142 2.2781353,8.996025 2.434955,9.015544 5.9712388,9.03788 10.136544,9.04566 l 7.573281,0.014145 z M 12.483624,4.9188361 14.890977,4.8598 15.135274,4.6155027 c 0.230429,-0.2304283 0.244298,-0.2892304 0.244298,-1.0357748 0,-0.7456297 -0.01408,-0.8055613 -0.243133,-1.0346099 L 14.893307,2.3019855 11.711391,2.2237136 c -1.8471051,-0.045437 -4.5167268,-0.045437 -6.3638316,0 L 2.1656436,2.3019855 1.9225111,2.545118 C 1.6934624,2.7741666 1.6793785,2.8340982 1.6793785,3.5797279 c 0,0.7470705 0.013746,0.8052278 0.2449971,1.0365543 l 0.2449971,0.2450767 2.1856824,0.049657 c 3.1842099,0.072342 5.4101866,0.074484 8.1285689,0.00782 z"
       id="path4"
       transform="matrix(0.26458333,0,0,0.26458333,0.22819653,-0.05243662)" />
    <path
       style="fill:#f9f9f9;fill-opacity:1;stroke:none;stroke-width:1.70079;stroke-linecap:round;stroke-linejoin:round;stroke-dasharray:none;stroke-opacity:1;paint-order:markers stroke fill"
       d="M 1.1932426,11.711456 V 1.1932426 h 9.3249704 9.32497 V 11.711456 22.229668 h -9.32497 -9.3249704 z m 12.0727084,9.518915 c 0.192566,-0.22392 0.213271,-0.328276 0.213271,-1.0749 0,-0.815388 -0.0038,-0.830099 -0.272756,-1.056413 l -0.272757,-0.22951 -5.3584912,0.02278 -5.3584909,0.02278 -0.202383,0.300333 c -0.1678151,0.249035 -0.2023829,0.417718 -0.2023829,0.987587 0,0.606712 0.026269,0.718472 0.2241457,0.953636 0.1232802,0.14651 0.3320977,0.283422 0.4640388,0.304248 0.1319413,0.02083 2.5602373,0.03328 5.3962134,0.02766 l 5.1563201,-0.0102 z m 3.579309,-3.841359 c 0.235929,-0.264081 0.257885,-0.344623 0.257885,-0.946015 0,-0.361548 -0.04493,-0.75598 -0.09986,-0.876516 -0.208051,-0.456622 -0.132143,-0.452074 -7.5457372,-0.452074 -3.79186,0 -6.9968524,0.02888 -7.1222056,0.06417 -0.3271839,0.09212 -0.4349978,0.41262 -0.4349978,1.293113 0,0.920132 0.084353,1.076754 0.628111,1.16624 0.2135952,0.03515 3.4642309,0.05847 7.2236349,0.05183 l 6.8352807,-0.01209 z m -5.680757,-4.259764 c 0.160509,-0.217099 0.193399,-0.380226 0.193399,-0.9592 0,-0.580658 -0.03393,-0.747967 -0.202376,-0.997949 l -0.202377,-0.300333 -4.25345,-0.02294 -4.2534499,-0.02294 -0.2729499,0.229672 c -0.267575,0.22515 -0.2729498,0.245253 -0.2729498,1.020889 0,0.675258 0.028344,0.829554 0.1933988,1.052803 l 0.1933989,0.261586 H 6.6291258 10.971104 Z M 17.891431,8.7621103 C 18.155508,8.3348254 18.154399,7.21973 17.889468,6.7910687 L 17.703524,6.4902042 9.9124204,6.5154708 C 5.6273168,6.5293678 2.0571019,6.5727568 1.9786128,6.6118908 1.7381161,6.7318021 1.6351844,7.092278 1.6351844,7.8146071 c 0,0.8117248 0.1690956,1.1224367 0.6429509,1.1814173 0.1568197,0.019519 3.6925679,0.041855 7.8572177,0.049635 l 7.572092,0.014145 z m -5.448832,-3.8449066 2.454715,-0.06374 0.241129,-0.241129 c 0.226676,-0.2266756 0.241129,-0.2885705 0.241129,-1.0326065 0,-0.7456297 -0.01408,-0.8055613 -0.243133,-1.0346099 L 14.893307,2.3019855 11.711391,2.2237136 c -1.8471051,-0.045437 -4.5167268,-0.045437 -6.3638316,0 L 2.1656436,2.3019855 1.9225111,2.545118 C 1.6934624,2.7741666 1.6793785,2.8340982 1.6793785,3.5797279 c 0,0.7470705 0.013746,0.8052278 0.2449971,1.0365543 l 0.2449971,0.2450767 2.1856824,0.049657 c 3.2978475,0.074924 5.3791144,0.076516 8.0875439,0.00619 z"
       id="path5"
       transform="matrix(0.26458333,0,0,0.26458333,0.22819653,-0.05243662)" />
    <path
       style="fill:#f9f9f9;fill-opacity:1;stroke:none;stroke-width:1.70079;stroke-linecap:round;stroke-linejoin:round;stroke-dasharray:none;stroke-opacity:1;paint-order:markers stroke fill"
       d="M 1.1932426,11.711456 V 1.1932426 h 9.3249704 9.32497 V 11.711456 22.229668 h -9.32497 -9.3249704 z m 12.0727144,9.518915 c 0.192559,-0.223918 0.213265,-0.328285 0.213265,-1.0749 0,-0.815388 -0.0038,-0.830099 -0.272756,-1.056413 l -0.272757,-0.22951 -5.3584912,0.02278 -5.3584909,0.02278 -0.2096971,0.309359 c -0.1862238,0.274729 -0.2064049,0.389953 -0.1802859,1.029346 0.03279,0.802709 0.1578962,1.032144 0.6409407,1.17544 0.1536787,0.04559 2.5191677,0.07389 5.4286807,0.06496 l 5.1563267,-0.01584 z m 3.587926,-3.851002 c 0.258762,-0.289645 0.265604,-0.320003 0.23578,-1.046218 -0.02805,-0.682998 -0.0513,-0.765619 -0.267813,-0.951859 -0.212159,-0.182492 -0.360902,-0.210347 -1.414211,-0.264838 -0.647414,-0.03349 -3.855435,-0.04766 -7.1289374,-0.03147 l -5.9518218,0.02942 -0.2211089,0.257115 c -0.208828,0.242835 -0.219446,0.305194 -0.1911682,1.122713 0.01914,0.553333 0.07112,0.906712 0.1440899,0.979566 0.2029455,0.202623 1.0157196,0.224879 7.8259915,0.21429 l 6.7027039,-0.01042 z m -5.679966,-4.28623 c 0.284113,-0.459706 0.262733,-1.489925 -0.04017,-1.93569 L 10.909588,10.827572 H 6.6633344 2.4170813 l -0.258366,0.258366 c -0.2435971,0.243597 -0.2583659,0.299841 -0.2583659,0.983936 0,0.580778 0.036716,0.784978 0.1839855,1.023265 l 0.1839857,0.297695 h 4.3608052 4.3608052 z m 6.69246,-4.2764017 c 0.239824,-0.3536258 0.237581,-1.7267317 -0.0034,-2.0823174 L 17.694727,6.4861606 9.9080231,6.5151641 C 5.6253372,6.5311161 2.0544937,6.5764158 1.9728169,6.6158303 1.7511976,6.7227762 1.6351844,7.1537053 1.6351844,7.8699602 c 0,0.7889346 0.1446545,1.0124055 0.7150611,1.1046692 0.2143862,0.034677 3.7561292,0.068028 7.8705395,0.074113 l 7.480747,0.011063 z m -5.423778,-3.8995336 2.454715,-0.06374 0.241129,-0.241129 c 0.226676,-0.2266756 0.241129,-0.2885705 0.241129,-1.0326065 0,-0.7454474 -0.01413,-0.8056039 -0.242902,-1.0343791 L 14.893768,2.3024472 11.711622,2.2249336 c -1.8238089,-0.044426 -4.5404849,-0.044426 -6.3642936,0 L 2.1651817,2.3024472 1.9222801,2.545567 c -0.228752,0.2289573 -0.2429016,0.2892162 -0.2429016,1.0344469 0,0.7469172 0.013749,0.8050776 0.2449915,1.0363362 l 0.2449914,0.2450088 2.2298822,0.049575 c 3.3698487,0.074918 5.3404717,0.076455 8.0433554,0.00627 z"
       id="path6"
       transform="matrix(0.26458333,0,0,0.26458333,0.22819653,-0.05243662)" />
    <path
       style="fill:#f9f9f9;fill-opacity:1;stroke:none;stroke-width:1.70079;stroke-linecap:round;stroke-linejoin:round;stroke-dasharray:none;stroke-opacity:1;paint-order:markers stroke fill"
       d="M 1.1932426,11.711456 V 1.1932426 h 9.3249704 9.32497 V 11.711456 22.229668 h -9.32497 -9.3249704 z m 12.0405194,9.565725 c 0.175501,-0.175432 0.20518,-0.308169 0.231838,-1.036888 0.03035,-0.829496 0.02859,-0.837686 -0.236956,-1.103228 l -0.267528,-0.267528 -5.3721943,0.02278 -5.3721948,0.02278 -0.2096971,0.309359 c -0.1865278,0.275178 -0.2064475,0.389661 -0.1802859,1.036141 0.034621,0.855527 0.1847515,1.077274 0.798788,1.179838 0.2088195,0.03488 2.6358125,0.05768 5.393318,0.05067 l 5.0136461,-0.01275 z m 3.580143,-3.844589 c 0.231291,-0.231321 0.245045,-0.289477 0.245045,-1.036108 0,-1.089574 -0.06214,-1.147768 -1.341003,-1.255764 -0.526401,-0.04445 -3.754736,-0.06856 -7.1740767,-0.05357 l -6.2169831,0.02726 -0.2132689,0.247996 c -0.1888123,0.219559 -0.2132689,0.33311 -0.2132689,0.99021 0,0.408218 0.045858,0.842861 0.1019066,0.965875 0.1745316,0.383054 0.022921,0.376069 7.9615525,0.36685 l 6.6050525,-0.0077 z m -5.630777,-4.354358 c 0.272017,-0.440133 0.23054,-1.535992 -0.07431,-1.9634 L 10.903923,10.827572 H 6.6605021 2.4170813 l -0.258366,0.258366 c -0.2435971,0.243597 -0.2583659,0.299841 -0.2583659,0.983936 0,0.580778 0.036716,0.784978 0.1839855,1.023265 l 0.1839857,0.297695 h 4.3608052 4.3608052 z m 6.671317,-4.2642743 c 0.145884,-0.1982967 0.176777,-0.3793127 0.176777,-1.0357855 0,-0.6546773 -0.03129,-0.8389845 -0.176777,-1.0411716 L 17.677669,6.4913261 9.8994945,6.5204727 c -4.2779958,0.016031 -7.8458562,0.060497 -7.9285787,0.098813 -0.233706,0.108251 -0.3574641,0.6250078 -0.3212817,1.341524 0.041659,0.8249632 0.1492743,0.9475663 0.8946312,1.0192262 0.3021297,0.029047 3.830744,0.057628 7.8413647,0.063514 l 7.292039,0.0107 z M 14.659971,4.8305671 c 0.544683,-0.092984 0.719601,-0.3970346 0.719601,-1.2508392 0,-0.8516489 -0.176237,-1.1595926 -0.716633,-1.2521949 C 14.150163,2.239664 6.7714051,2.1795844 4.3106658,2.2432422 L 2.1689827,2.2986464 1.9369644,2.5306646 C 1.506477,2.9611521 1.5457858,4.2836868 2.001323,4.6959915 c 0.1651067,0.1494372 0.3968103,0.1698834 2.405255,0.2122474 2.7221952,0.057419 9.775023,0.00399 10.253393,-0.077672 z"
       id="path7"
       transform="matrix(0.26458333,0,0,0.26458333,0.22819653,-0.05243662)" />
    <path
       style="fill:#f9f9f9;fill-opacity:1;stroke:none;stroke-width:1.70079;stroke-linecap:round;stroke-linejoin:round;stroke-dasharray:none;stroke-opacity:1;paint-order:markers stroke fill"
       d="M 1.1932426,11.711456 V 1.1932426 h 9.3249704 9.32497 V 11.711456 22.229668 h -9.32497 -9.3249704 z m 12.0405294,9.565725 c 0.175575,-0.175514 0.205168,-0.308135 0.23191,-1.039301 l 0.03066,-0.838115 -0.28307,-0.264427 -0.28307,-0.264427 H 7.5933041 2.256411 l -0.2336129,0.353013 c -0.2158522,0.326175 -0.230475,0.407218 -0.192339,1.065994 0.050865,0.878657 0.1951953,1.0663 0.8874842,1.153814 0.2552204,0.03226 2.6804072,0.05326 5.3893041,0.04665 l 4.9252676,-0.01201 z m 3.580153,-3.844589 c 0.231266,-0.231314 0.245025,-0.289497 0.245025,-1.036108 0,-1.062205 -0.09001,-1.158231 -1.168202,-1.246317 -0.426988,-0.03488 -3.648984,-0.0572 -7.1599929,-0.04959 l -6.3836519,0.01383 -0.2012798,0.201329 c -0.1824354,0.182479 -0.2012798,0.283555 -0.2012798,1.0796 0,1.123282 0.042328,1.173975 1.0413572,1.247153 0.3995253,0.02927 3.6191422,0.04915 7.1547042,0.04419 l 6.428295,-0.009 z m -5.676994,-4.287603 c 0.144066,-0.195827 0.176777,-0.379313 0.176777,-0.991592 0,-0.644125 -0.02923,-0.792279 -0.204892,-1.038563 L 10.903923,10.827572 H 6.6605021 2.4170813 L 2.1499926,11.09466 c -0.262697,0.262698 -0.2665635,0.279774 -0.2351597,1.038564 0.023367,0.564591 0.075837,0.836657 0.1956649,1.014542 l 0.1637361,0.243068 4.3429603,-0.0028 4.3429608,-0.0028 z m 6.717514,-4.3310293 c 0.145884,-0.1982967 0.176777,-0.3793127 0.176777,-1.0357855 0,-0.6538872 -0.03147,-0.8396504 -0.176777,-1.0435418 L 17.677669,6.4865857 9.8770942,6.5164197 2.0765203,6.5462538 1.8779494,6.7448246 C 1.7001709,6.9226031 1.6793785,7.0307318 1.6793785,7.7774727 c 0,1.0834587 0.043687,1.1317842 1.0855276,1.2007982 0.4238452,0.028076 3.952608,0.056658 7.8416949,0.063514 L 17.677669,9.05425 Z M 14.574571,4.8329539 c 0.636123,-0.088237 0.805001,-0.3511463 0.805001,-1.253226 0,-0.9196848 -0.163833,-1.1632126 -0.848994,-1.2619763 C 13.897655,2.2265178 3.0385302,2.2244568 2.4843549,2.3154652 2.1729157,2.3666108 2.0041436,2.4504639 1.8812603,2.6151084 1.5368835,3.0765196 1.5708096,4.1876912 1.9424717,4.6199471 l 0.2075706,0.2414118 3.2118136,0.044194 c 3.7504182,0.051605 8.5923691,0.013449 9.2127151,-0.072599 z"
       id="path8"
       transform="matrix(0.26458333,0,0,0.26458333,0.22819653,-0.05243662)" />
    <path
       style="fill:#f9f9f9;fill-opacity:1;stroke:none;stroke-width:1.70079;stroke-linecap:round;stroke-linejoin:round;stroke-dasharray:none;stroke-opacity:1;paint-order:markers stroke fill"
       d="M 1.1932426,11.711456 V 1.1932426 h 9.3249704 9.32497 V 11.711456 22.229668 h -9.32497 -9.3249704 z m 12.0363684,9.569742 c 0.169569,-0.16963 0.202232,-0.314541 0.233851,-1.03749 l 0.03675,-0.840321 -0.285009,-0.266238 -0.285009,-0.266238 H 7.5980688 2.2659402 l -0.2018711,0.283502 c -0.3620354,0.508432 -0.3165509,1.792285 0.075037,2.118011 0.2372306,0.197329 1.1208028,0.228778 6.1007232,0.217142 l 4.7926847,-0.0112 z m 3.58432,-3.848606 c 0.231259,-0.231313 0.245019,-0.289502 0.245019,-1.036108 0,-1.113829 -0.03481,-1.142647 -1.51451,-1.253896 -0.633063,-0.0476 -3.810186,-0.07279 -7.1672229,-0.05684 l -6.030083,0.02866 -0.2012953,0.201533 c -0.1824375,0.182654 -0.2012952,0.2838 -0.2012952,1.079683 0,1.170082 0.00738,1.177127 1.3067472,1.246862 0.5452423,0.02926 3.7647604,0.04915 7.1544852,0.04419 l 6.163134,-0.009 z m -5.677,-4.287603 c 0.144066,-0.195827 0.176777,-0.379313 0.176777,-0.991592 0,-0.644125 -0.02923,-0.792279 -0.204892,-1.038563 L 10.903923,10.827572 H 6.6766487 2.4493746 l -0.2833258,0.264666 c -0.2832097,0.264558 -0.2833125,0.264983 -0.2513063,1.038563 0.023454,0.566867 0.075821,0.838922 0.1957553,1.016965 l 0.1637361,0.243068 4.3429603,-0.0028 4.3429608,-0.0028 z m 6.68001,-4.3132755 c 0.19462,-0.2071632 0.214281,-0.3024567 0.214281,-1.0385631 0,-0.6687452 -0.03091,-0.8539088 -0.176777,-1.0588726 L 17.677669,6.4858765 9.8756137,6.5175458 C 2.1343233,6.5489686 2.0721393,6.5506346 1.8913069,6.731467 1.5735891,7.0491849 1.547227,8.3426458 1.8500206,8.7571871 2.025977,8.9980812 2.8881964,9.0254835 10.878456,9.0441209 l 6.724204,0.015684 z m -2.85924,-4.0828657 c 0.314498,-0.1797556 0.414118,-0.4604603 0.416921,-1.1747821 0.003,-0.760784 -0.14949,-1.0966094 -0.548595,-1.2082742 -0.133073,-0.037232 -3.008052,-0.067695 -6.3888426,-0.067695 -5.6569564,0 -6.1653263,0.012079 -6.3781699,0.1515488 -0.3139071,0.2056934 -0.4567443,0.6843125 -0.3978982,1.3332777 0.063534,0.7006658 0.2659473,0.9724971 0.778375,1.0453206 0.2139147,0.0304 3.0737316,0.050288 6.3551489,0.044194 C 13.446345,4.8638 14.804224,4.8365699 14.957701,4.7488478 Z"
       id="path9"
       transform="matrix(0.26458333,0,0,0.26458333,0.22819653,-0.05243662)" />
    <path
       style="fill:#f9f9f9;fill-opacity:1;stroke:none;stroke-width:1.70079;stroke-linecap:round;stroke-linejoin:round;stroke-dasharray:none;stroke-opacity:1;paint-order:markers stroke fill"
       d="M 1.1932426,11.711456 V 1.1932426 h 9.3249704 9.32497 V 11.711456 22.229668 h -9.32497 -9.3249704 z m 11.3579024,9.733836 c 0.598076,-0.05347 0.623874,-0.06563 0.773261,-0.364672 0.107676,-0.215546 0.154583,-0.519739 0.154679,-1.003101 8.9e-5,-0.662181 -0.01235,-0.705407 -0.274376,-0.950174 L 12.930197,18.870911 H 7.5980688 2.2659402 L 2.0713775,19.14415 c -0.3384905,0.475366 -0.3381644,1.622093 5.833e-4,2.040425 0.1383786,0.17089 0.2758158,0.207959 0.9453302,0.254971 1.0292247,0.07227 8.737766,0.07691 9.533857,0.0057 z m 4.262784,-4.012814 c 0.230777,-0.230936 0.24501,-0.29054 0.244826,-1.025214 -1.77e-4,-0.528688 -0.03905,-0.82684 -0.120782,-0.925321 C 16.644268,15.12805 16.357658,15.114407 9.216927,15.114407 H 2.3471754 l -0.2013159,0.201451 c -0.18247,0.182592 -0.2013159,0.283659 -0.2013159,1.079622 0,1.192805 -0.016897,1.178598 1.4834379,1.247271 0.6425168,0.02941 3.8620728,0.0493 7.1545695,0.04419 l 5.986356,-0.0093 z m -5.676998,-4.287489 c 0.270843,-0.368153 0.253685,-1.530807 -0.02931,-1.985961 L 10.901543,10.827572 H 6.6754586 2.4493746 l -0.2852617,0.266474 -0.2852615,0.266474 0.037101,0.776003 c 0.028114,0.588033 0.078891,0.83326 0.2096229,1.01238 l 0.1725215,0.236376 h 4.3310289 4.3310293 z m 6.707968,-4.3789274 c 0.26185,-0.3507059 0.266567,-1.5524644 0.0078,-1.9931217 l -0.175052,-0.2981276 -7.75095,0.041534 c -8.8530572,0.04744 -8.145905,-0.022585 -8.2508075,0.8170264 -0.071575,0.5728647 0.00507,1.1923578 0.1765745,1.4272356 0.1722658,0.2359171 1.2427295,0.2662258 9.18651,0.260104 l 6.61958,-0.0051 z M 14.957701,4.7488478 c 0.108267,-0.061881 0.242769,-0.1983132 0.298893,-0.3031823 0.132214,-0.2470463 0.132214,-1.4848289 0,-1.7318752 C 15.033488,2.2969135 15.073659,2.2999575 9.3691644,2.2676702 3.1305879,2.2323601 2.2322362,2.267534 1.9412696,2.5585007 1.7015497,2.7982205 1.5981394,3.3426022 1.6796888,3.9355375 c 0.085352,0.6205801 0.2732747,0.817388 0.8508703,0.8910983 0.2610545,0.033315 3.1196658,0.054756 6.3524694,0.047648 4.5773705,-0.010065 5.9213775,-0.037817 6.0746725,-0.125436 z"
       id="path10"
       transform="matrix(0.26458333,0,0,0.26458333,0.22819653,-0.05243662)" />
    <path
       style="fill:#f9f9f9;fill-opacity:1;stroke:none;stroke-width:1.70079;stroke-linecap:round;stroke-linejoin:round;stroke-dasharray:none;stroke-opacity:1;paint-order:markers stroke fill"
       d="M 1.1932426,11.711456 V 1.1932426 h 9.3249704 9.32497 V 11.711456 22.229668 h -9.32497 -9.3249704 z m 11.9064624,9.649417 c 0.248893,-0.134725 0.378398,-0.603425 0.379024,-1.371742 4.42e-4,-0.563516 -0.01848,-0.623076 -0.27402,-0.861786 L 12.930197,18.870911 H 7.6086722 2.2871471 l -0.1948723,0.26358 c -0.3525309,0.476823 -0.363008,1.626878 -0.018695,2.052087 0.143063,0.176676 0.2725048,0.209236 1.0337185,0.260025 1.5507981,0.103473 9.7731937,0.03293 9.9924067,-0.08573 z m 2.756978,-3.713869 c 0.778077,-0.05407 0.842428,-0.07353 1.016466,-0.307404 0.15219,-0.204512 0.185011,-0.372401 0.181432,-0.928077 -0.0024,-0.373119 -0.0528,-0.76654 -0.111989,-0.87427 -0.22506,-0.409619 -0.411282,-0.419776 -7.7256574,-0.421359 l -6.8697439,-0.0015 -0.2013236,0.201329 c -0.1824908,0.182495 -0.2013235,0.283486 -0.2013235,1.0796 0,1.227287 -0.066878,1.182106 1.8370659,1.241072 2.2486878,0.06964 11.1134175,0.07742 12.0750735,0.0106 z M 11.127411,13.09709 c 0.279237,-0.374045 0.267996,-1.475204 -0.01979,-1.938062 L 10.901543,10.827572 H 6.6858094 2.4700762 l -0.2967865,0.271073 -0.2967866,0.271072 0.04445,0.779591 c 0.032547,0.57083 0.088995,0.840857 0.2107969,1.008382 l 0.1663466,0.228793 4.3215085,-0.01992 4.3215089,-0.01992 z m 6.713086,-4.3251091 c 0.256568,-0.3436638 0.262374,-1.5627462 0.0095,-2.0007459 L 17.677669,6.4726637 9.9714912,6.5212401 C 3.7888363,6.5602129 2.2161306,6.5932482 2.0165402,6.6883366 1.806173,6.7885593 1.7556548,6.8830544 1.6893118,7.3004231 c -0.089255,0.5615114 -0.016268,1.2144703 0.1632195,1.4601854 0.1093275,0.1496676 0.2910085,0.1716874 1.7862379,0.216493 0.9154923,0.027433 4.444476,0.047321 7.8421868,0.044194 l 6.177654,-0.00568 z M 14.127908,4.8304042 c 1.137333,-0.075112 1.20747,-0.1477571 1.20747,-1.2506763 0,-1.0929501 -0.07584,-1.1745181 -1.163221,-1.2510881 C 13.054641,2.2499478 3.6217097,2.2506056 2.7548591,2.3294353 2.1647753,2.3830967 2.0386032,2.4241682 1.9002102,2.6076399 1.5752281,3.0384785 1.57639,4.1225163 1.902297,4.5545811 c 0.1339939,0.1776396 0.2677185,0.2278308 0.7220664,0.2710153 0.7603709,0.072271 10.4208826,0.076308 11.5035446,0.00481 z"
       id="path11"
       transform="matrix(0.26458333,0,0,0.26458333,0.22819653,-0.05243662)" />
    <path
       style="fill:#f9f9f9;fill-opacity:1;stroke:none;stroke-width:1.70079;stroke-linecap:round;stroke-linejoin:round;stroke-dasharray:none;stroke-opacity:1;paint-order:markers stroke fill"
       d="M 1.1932426,11.711456 V 1.1932426 h 9.3249704 9.32497 V 11.711456 22.229668 H 10.518213 1.1932426 Z M 13.114803,21.3516 c 0.236316,-0.126472 0.288405,-0.303251 0.340525,-1.155673 l 0.04599,-0.752111 -0.29299,-0.286452 -0.292992,-0.286453 H 7.591827 2.2683206 l -0.1927295,0.311843 c -0.340615,0.551127 -0.341426,1.584475 -0.00157,2.004542 0.1496617,0.184986 0.2592129,0.20754 1.2546893,0.258313 1.6860769,0.086 9.5916576,0.01005 9.7860956,-0.09401 z m 3.549296,-3.808064 c 0.27521,-0.147288 0.384203,-0.447793 0.384138,-1.05911 -8e-5,-0.746441 -0.07887,-1.031136 -0.321787,-1.162717 C 16.329824,15.106866 9.2405008,14.996048 4.3821785,15.128745 l -2.1429903,0.05853 -0.1456814,0.222338 c -0.2115291,0.322834 -0.2003177,1.812578 0.015265,2.028359 0.1316892,0.13181 0.4440287,0.158498 2.4241485,0.207131 3.3125896,0.08136 11.9240967,0.0093 12.1311787,-0.10157 z M 11.127411,13.09696 c 0.27699,-0.371228 0.264458,-1.476024 -0.022,-1.939522 L 10.901543,10.827572 H 6.6828906 2.4642384 l -0.2819445,0.275653 c -0.2564376,0.250716 -0.2819445,0.324734 -0.2819445,0.818176 0,0.628417 0.1088894,1.07114 0.3211344,1.305668 0.1429268,0.157932 0.3439096,0.16439 4.4346712,0.142501 l 4.28496,-0.02293 z m 6.704228,-4.3131405 c 0.243204,-0.3257276 0.249257,-1.6115537 0.0095,-2.0280597 l -0.16347,-0.2841205 -7.645592,0.059393 C 5.8270016,6.5636988 2.2758993,6.6139442 2.1407386,6.642689 1.8018298,6.7147651 1.692191,6.9668281 1.6852871,7.6897859 1.678233,8.4284632 1.7560497,8.7496627 1.9658777,8.847964 2.209453,8.9620754 5.7738429,9.0231029 11.967072,9.0191988 l 5.6915,-0.00359 z M 14.044636,4.8272777 c 1.239273,-0.086328 1.290742,-0.1360743 1.290742,-1.2475498 0,-1.1350708 -0.0262,-1.1575238 -1.466613,-1.2570339 C 13.241301,2.279346 10.401098,2.257388 7.5572034,2.273898 2.0035966,2.306139 2.0460449,2.302531 1.7995747,2.763296 1.6298533,3.0805827 1.6552399,4.0840616 1.8419987,4.4402342 c 0.1625531,0.3100093 0.2910017,0.3603555 1.0306224,0.403959 1.030123,0.06073 10.2579549,0.046758 11.1720149,-0.016916 z"
       id="path12"
       transform="matrix(0.26458333,0,0,0.26458333,0.22819653,-0.05243662)" />
    <path
       style="fill:#f9f9f9;fill-opacity:1;stroke:none;stroke-width:1.70079;stroke-linecap:round;stroke-linejoin:round;stroke-dasharray:none;stroke-opacity:1;paint-order:markers stroke fill"
       d="M 1.1932426,11.711456 V 1.1932426 h 9.3249704 9.32497 V 11.711456 22.229668 h -9.32497 -9.3249704 z m 11.8662284,9.666661 c 0.248389,-0.0711 0.349579,-0.364303 0.398973,-1.156027 l 0.04629,-0.74192 -0.295257,-0.30463 -0.295258,-0.304629 H 7.5912676 2.2683206 l -0.190207,0.307762 c -0.3764679,0.609138 -0.3095419,1.858017 0.1125,2.099317 0.1222313,0.06988 0.7275626,0.132627 1.6100852,0.166883 1.5329447,0.0595 9.0059252,0.0056 9.2587722,-0.06676 z m 3.490128,-3.789427 c 0.344984,-0.08096 0.476184,-0.403921 0.474505,-1.168026 -0.0018,-0.798866 -0.04689,-0.963466 -0.301564,-1.099763 -0.321869,-0.17226 -4.610535,-0.267251 -9.6072783,-0.212795 -4.7533461,0.0518 -4.819214,0.05496 -4.9718444,0.238066 -0.239395,0.287198 -0.2477735,1.864992 -0.011207,2.110526 0.1065212,0.11056 0.6007359,0.139923 2.9752405,0.176777 3.3649316,0.05222 11.1587752,0.02172 11.4421482,-0.04479 z m -5.42335,-4.490042 c 0.277399,-0.371584 0.266105,-1.47708 -0.01981,-1.93962 L 10.901543,10.827572 H 6.6924161 2.4832894 l -0.29147,0.282504 c -0.2615849,0.253538 -0.2912538,0.332836 -0.2893613,0.773398 0.00271,0.62981 0.1180569,1.121527 0.313852,1.337878 0.1496901,0.165406 0.2986171,0.170377 4.4398449,0.148218 l 4.28496,-0.02293 z m 6.646207,-4.2225622 c 0.254364,-0.2808799 0.300687,-1.6755642 0.06989,-2.104137 L 17.6786,6.4679001 10.120931,6.5281573 c -4.1567178,0.033141 -7.708342,0.084811 -7.8924978,0.1148221 -0.4327933,0.07053 -0.5357174,0.2688955 -0.5431461,1.0468065 -0.00705,0.738682 0.070764,1.0598833 0.2805906,1.1581617 0.2009913,0.09414 4.0631265,0.1653632 10.5032773,0.1936952 l 5.132922,0.022581 z M 14.874879,4.7721455 C 14.986206,4.7359345 15.135361,4.5940139 15.206335,4.4567662 15.35165,4.1757584 15.382251,3.0958032 15.254425,2.759596 15.079339,2.2990832 15.064967,2.2980969 8.5294752,2.2980969 c -6.6380714,0 -6.5116318,-0.00969 -6.7303817,0.5158155 -0.1436413,0.3450713 -0.141149,1.1894819 0.00455,1.541228 0.14735,0.3557341 0.378912,0.4542348 1.157367,0.492315 1.1966812,0.058539 11.7066115,-0.0079 11.9138695,-0.07531 z"
       id="path13"
       transform="matrix(0.26458333,0,0,0.26458333,0.22819653,-0.05243662)" />
    <path
       style="fill:#f9f9f9;fill-opacity:1;stroke:none;stroke-width:1.70079;stroke-linecap:round;stroke-linejoin:round;stroke-dasharray:none;stroke-opacity:1;paint-order:markers stroke fill"
       d="M 1.1932426,11.711456 V 1.1932426 h 9.3249704 9.32497 V 11.711456 22.229668 h -9.32497 -9.3249704 z m 11.8193904,9.673307 c 0.283915,-0.05939 0.368645,-0.281637 0.434627,-1.140032 l 0.05867,-0.76332 -0.295859,-0.30525 -0.295859,-0.30525 H 7.5912676 2.2683206 l -0.2060827,0.331457 c -0.3673208,0.590786 -0.253663,1.909534 0.1819947,2.111648 0.078239,0.0363 0.8581983,0.08813 1.7332429,0.115173 1.7633236,0.05451 8.7258555,0.02027 9.0351575,-0.04443 z m 3.78517,-3.968242 c 0.198366,-0.198366 0.216953,-0.285451 0.216953,-1.016466 0,-1.009115 -0.07523,-1.10416 -0.937506,-1.184486 -0.961226,-0.08954 -8.2958617,-0.136434 -11.2010956,-0.07161 -2.4710169,0.05514 -2.6447341,0.06963 -2.7621357,0.230409 -0.1421347,0.194655 -0.177754,1.774221 -0.044745,1.984262 0.042806,0.0676 0.2311268,0.152516 0.4184911,0.188709 0.1873645,0.03619 3.4349578,0.07038 7.216874,0.07597 l 6.8762112,0.01017 z m -5.678271,-4.308877 c 0.257663,-0.345148 0.261298,-1.391849 0.0065,-1.882799 l -0.183218,-0.353079 -4.2461913,-0.02294 -4.2461914,-0.02294 -0.2750615,0.313277 c -0.2335782,0.266031 -0.2747434,0.382798 -0.2729527,0.774241 0.00275,0.601857 0.1210683,1.094923 0.313852,1.307947 0.1496901,0.165406 0.2986171,0.170377 4.4398449,0.148218 l 4.28496,-0.02293 z m 6.654923,-4.2337676 c 0.24719,-0.2729546 0.293337,-1.6058963 0.07176,-2.0728311 L 17.688494,6.4686694 10.125878,6.5307551 C 5.9664391,6.5649024 2.408288,6.6279597 2.2188755,6.6708826 2.0294629,6.7138055 1.8443523,6.7976865 1.8075185,6.8572847 1.7066514,7.0204912 1.6188569,7.8538898 1.6745726,8.1192886 c 0.02695,0.1283755 0.068544,0.3284595 0.092431,0.4446314 0.023887,0.1161718 0.1133804,0.2437957 0.1988738,0.2836085 0.1792737,0.083485 5.1397892,0.1684655 11.3449666,0.1943556 4.264625,0.017793 4.296432,0.016596 4.463611,-0.1680077 z m -2.9153,-4.1436609 c 0.360958,-0.1294171 0.476223,-0.4078818 0.476223,-1.1504876 0,-0.7412018 -0.114572,-1.0192176 -0.476223,-1.1555849 C 14.507995,2.2917309 5.3491607,2.2071718 3.4666728,2.3189617 2.3069306,2.3878321 2.139078,2.4178322 1.9705475,2.5863627 1.6082277,2.9486824 1.6113768,4.2135736 1.975507,4.578451 2.136469,4.7397434 2.3089352,4.7827978 2.9851635,4.8305016 4.3668549,4.9279713 14.547412,4.8419878 14.859155,4.7302155 Z"
       id="path14"
       transform="matrix(0.26458333,0,0,0.26458333,0.22819653,-0.05243662)" />
    <path
       style="fill:#f9f9f9;fill-opacity:1;stroke:none;stroke-width:1.70079;stroke-linecap:round;stroke-linejoin:round;stroke-dasharray:none;stroke-opacity:1;paint-order:markers stroke fill"
       d="M 1.1932426,11.711456 V 1.1932426 h 9.3249704 9.32497 V 11.711456 22.229668 h -9.32497 -9.3249704 z m 11.8704234,9.6411 c 0.276074,-0.104963 0.315312,-0.219492 0.384768,-1.123095 l 0.0575,-0.74805 -0.295859,-0.30525 -0.295859,-0.30525 H 7.5912676 2.2683206 l -0.178139,0.288236 c -0.2306344,0.373173 -0.3223943,1.078192 -0.1986087,1.525968 0.1359261,0.491693 0.209541,0.580126 0.5497781,0.660449 0.4245915,0.100238 10.359859,0.106778 10.622315,0.007 z m 3.73434,-3.952959 c 0.195396,-0.210836 0.21675,-0.309315 0.21675,-0.999572 0,-0.478739 -0.04199,-0.823122 -0.112047,-0.918929 -0.07337,-0.100344 -0.320113,-0.1827 -0.714856,-0.238602 -0.689286,-0.09762 -7.8243302,-0.149718 -11.4884413,-0.08389 -2.3052418,0.04141 -2.4679298,0.05499 -2.5853591,0.215767 -0.1439485,0.197085 -0.177057,1.775296 -0.04173,1.989195 0.044483,0.07031 0.2725784,0.154489 0.5068794,0.187064 0.2343011,0.03258 3.4806136,0.06454 7.2140278,0.07104 l 6.7880262,0.01181 z M 11.115377,13.11321 c 0.250368,-0.335378 0.253302,-1.420829 0.0051,-1.899079 L 10.942855,10.871766 6.6966637,10.848826 2.4504723,10.825887 2.1754108,11.139164 C 1.8761183,11.48004 1.8277554,11.869839 1.984173,12.68052 c 0.1449687,0.751344 -0.1030029,0.715085 4.7125566,0.689059 l 4.2443854,-0.02294 z m 6.654136,-4.2340004 c 0.241665,-0.2670372 0.297246,-1.6134059 0.08506,-2.0605479 L 17.701721,6.4965433 13.93319,6.5050039 C 8.7162728,6.5167163 2.1520878,6.6295527 1.9700053,6.7106474 1.7548964,6.8064513 1.6939578,7.061667 1.697363,7.8524945 c 0.00498,1.1566608 -0.3494111,1.0658079 4.3817179,1.1233103 2.1984546,0.02672 5.6913971,0.056551 7.7620931,0.066291 3.690625,0.01736 3.768127,0.014146 3.928339,-0.1628862 z M 14.826879,4.7236714 c 0.386499,-0.106717 0.508499,-0.393945 0.508499,-1.1971683 0,-0.7255315 -0.122021,-0.9825469 -0.522298,-1.1001217 C 14.374761,2.2976317 5.3327045,2.2131817 3.5416019,2.3211092 2.1536615,2.4047431 2.1303944,2.4095205 1.920051,2.6540592 1.7247099,2.8811568 1.7092325,2.9642989 1.7372062,3.636269 1.7812362,4.6939333 1.8575029,4.7558946 3.2061399,4.8296742 4.7546384,4.9143877 14.456686,4.8258869 14.826879,4.7236714 Z"
       id="path15"
       transform="matrix(0.26458333,0,0,0.26458333,0.22819653,-0.05243662)" />
    <path
       style="fill:#f9f9f9;fill-opacity:1;stroke:none;stroke-width:1.70079;stroke-linecap:round;stroke-linejoin:round;stroke-dasharray:none;stroke-opacity:1;paint-order:markers stroke fill"
       d="M 1.1932426,11.711456 V 1.1932426 h 9.3249704 9.32497 V 11.711456 22.229668 h -9.32497 -9.3249704 z m 11.7345304,9.669489 c 0.347282,-0.06946 0.449645,-0.309364 0.516253,-1.209947 l 0.05366,-0.725562 -0.301423,-0.287959 -0.301422,-0.287959 -5.3339133,0.02279 -5.3339129,0.02279 -0.1845662,0.353553 c -0.2180708,0.417735 -0.2494709,1.258325 -0.0636,1.7026 0.1156607,0.276456 0.1966049,0.32207 0.7169921,0.404035 0.3664744,0.05772 9.9451173,0.06301 10.2319283,0.0056 z m 3.870233,-3.981348 c 0.190863,-0.205945 0.216606,-0.31415 0.215544,-0.90598 -0.0016,-0.883085 -0.05043,-1.032756 -0.382861,-1.173099 -0.40557,-0.171223 -14.3113523,-0.174127 -14.4828161,-0.003 -0.1413932,0.141095 -0.2064658,1.855916 -0.07777,2.049431 0.051665,0.07769 0.2962054,0.1535 0.599565,0.185878 0.281772,0.03008 3.5271495,0.06053 7.2119503,0.06768 l 6.6996378,0.01299 z m -5.7043,-4.296025 c 0.247121,-0.405308 0.245637,-1.439059 -0.0028,-1.925968 L 10.912367,10.827572 H 6.6806799 2.4489921 l -0.2861463,0.325903 c -0.2844017,0.323916 -0.2858156,0.330191 -0.231907,1.029264 0.058778,0.762211 0.2052589,1.085084 0.5196604,1.145431 0.1105781,0.02122 2.0611055,0.04401 4.3345053,0.05063 l 4.1334545,0.01204 z m 6.536283,-4.1302893 c 0.3638,-0.1947003 0.486407,-1.442733 0.209678,-2.1343472 L 17.692306,6.4706436 10.61392,6.5292442 c -7.6115912,0.063015 -8.5635181,0.095039 -8.7632838,0.2948041 -0.09248,0.09248 -0.1270635,0.3533341 -0.1270635,0.9584018 0,1.2411762 -0.4445898,1.134863 4.9899427,1.1932266 8.1992856,0.088055 10.7485116,0.087496 10.9164736,-0.00239 z M 14.600832,4.7612499 c 0.582105,-0.08008 0.690351,-0.2664113 0.690351,-1.1883464 0,-1.1940052 0.05971,-1.1613987 -2.273732,-1.2416351 C 10.464518,2.2434848 4.9731577,2.2468995 3.406876,2.3372445 2.1597546,2.40918 2.1241128,2.4168233 1.9179077,2.656551 1.7250695,2.8807388 1.7093107,2.9661788 1.7372062,3.636269 c 0.044044,1.0579988 0.1205156,1.1200424 1.4691595,1.1919679 1.2112459,0.064598 10.8498693,0.00793 11.3944663,-0.066987 z"
       id="path16"
       transform="matrix(0.26458333,0,0,0.26458333,0.22819653,-0.05243662)" />
    <path
       style="fill:#f9f9f9;fill-opacity:1;stroke:none;stroke-width:1.70079;stroke-linecap:round;stroke-linejoin:round;stroke-dasharray:none;stroke-opacity:1;paint-order:markers stroke fill"
       d="M 1.1932426,11.711456 V 1.1932426 h 9.3249704 9.32497 V 11.711456 22.229668 h -9.32497 -9.3249704 z m 11.6071694,9.664979 c 0.458001,-0.07568 0.576003,-0.293207 0.641915,-1.183328 l 0.05536,-0.747671 -0.301423,-0.287959 -0.301422,-0.287959 -5.3339133,0.02279 -5.3339129,0.02279 -0.1815323,0.349824 c -0.1308543,0.252165 -0.1815323,0.517072 -0.1815323,0.948916 0,0.751413 0.1920752,1.061016 0.7081721,1.141493 0.4642652,0.07239 9.8012797,0.09165 10.2282857,0.0211 z m 3.868451,-3.856257 c 0.2586,-0.198547 0.345893,-0.489461 0.345893,-1.152731 0,-0.978552 -0.07703,-1.046023 -1.290742,-1.130571 -1.178829,-0.08212 -11.7140412,-0.08565 -12.7777371,-0.0043 -0.4213184,0.03223 -0.7982626,0.09082 -0.8376537,0.130216 -0.1058167,0.105817 -0.142177,1.851684 -0.041668,2.00071 0.1426602,0.211524 1.1215919,0.242717 7.9651218,0.253808 4.984629,0.0081 6.529182,-0.01453 6.636786,-0.09714 z m -5.575157,-4.416606 c 0.239105,-0.392161 0.239835,-1.375091 0.0014,-1.900349 L 10.924603,10.827572 H 6.6941781 2.4637528 L 2.2041482,11.09925 c -0.2436354,0.254966 -0.2590434,0.313729 -0.2504808,0.955267 0.010441,0.782264 0.1570861,1.168844 0.4770121,1.257477 0.1215339,0.03367 2.0810252,0.06518 4.354425,0.07003 l 4.1334545,0.0088 z M 17.561867,8.9830178 C 17.729827,8.9183268 17.82698,8.7929131 17.89283,8.5557814 18.031438,8.0566424 18.006621,7.2561949 17.8396,6.8387583 L 17.692164,6.4702892 10.790626,6.5290306 C 3.1041658,6.5944526 2.1096926,6.6280991 1.8782523,6.8305669 1.7516777,6.9412965 1.7235727,7.1155937 1.7235727,7.7898358 c 0,1.2342893 -0.4550143,1.1284213 5.0783677,1.1815811 2.5300857,0.024307 5.9326106,0.057464 7.5611656,0.073683 1.902562,0.018948 3.045997,-0.00324 3.198761,-0.062082 z M 14.421278,4.7640592 c 0.777137,-0.067981 0.869905,-0.1949766 0.869905,-1.1908607 0,-1.2117758 0.106133,-1.1607623 -2.582284,-1.2411964 C 9.787453,2.244596 5.3799029,2.2459817 3.5854223,2.3348703 2.1418629,2.4063762 2.1313666,2.4083903 1.9196773,2.6544938 1.7247726,2.8810839 1.709246,2.964624 1.7372062,3.636269 1.7828015,4.7315328 1.8220294,4.7584676 3.4716273,4.8271644 4.9289986,4.887856 13.575752,4.8380229 14.421278,4.7640592 Z"
       id="path17"
       transform="matrix(0.26458333,0,0,0.26458333,0.22819653,-0.05243662)" />
    <path
       style="fill:#f9f9f9;fill-opacity:1;stroke:none;stroke-width:1.70079;stroke-linecap:round;stroke-linejoin:round;stroke-dasharray:none;stroke-opacity:1;paint-order:markers stroke fill"
       d="M 1.1932426,11.711456 V 1.1932426 h 9.3249704 9.32497 V 11.711456 22.229668 h -9.32497 -9.3249704 z m 11.7106104,9.645247 c 0.344173,-0.07364 0.460488,-0.330229 0.538138,-1.187125 l 0.0625,-0.689661 -0.295136,-0.304503 -0.295135,-0.304503 -5.2638651,0.0014 c -2.8951255,7.07e-4 -5.3080332,0.03057 -5.362017,0.06629 -0.3081177,0.203852 -0.5101015,1.07046 -0.3931211,1.68668 0.094583,0.498236 0.2621361,0.65483 0.7775162,0.72666 0.5406347,0.07535 9.880918,0.07974 10.231125,0.0048 z m 3.897611,-4.015419 c 0.186206,-0.216504 0.213292,-0.335925 0.213292,-0.940383 0,-1.052338 -0.03345,-1.077604 -1.555689,-1.174989 -0.675699,-0.04323 -3.901996,-0.06611 -7.169549,-0.05086 -5.5620623,0.02597 -5.9510699,0.0378 -6.0987958,0.185432 -0.2176722,0.217537 -0.2802764,1.698219 -0.083023,1.963628 0.1922512,0.258679 0.8614016,0.281113 8.1309308,0.272601 l 6.349544,-0.0074 z m -5.733727,-4.188311 c 0.244789,-0.373594 0.265791,-1.403892 0.03907,-1.916443 L 10.925901,10.827572 H 6.6948268 2.4637528 l -0.2596046,0.271812 c -0.2451029,0.256628 -0.2588259,0.310304 -0.245664,0.960888 0.017594,0.869675 0.1768986,1.216343 0.5820294,1.266573 0.1583524,0.01963 2.1066915,0.04206 4.3296425,0.04984 l 4.0417289,0.01415 z m 6.433048,-4.1707661 c 0.210734,-0.045066 0.289304,-0.1289706 0.383361,-0.4093871 0.140946,-0.420216 0.09444,-1.4698572 -0.08174,-1.8450441 L 17.682704,6.4728723 11.006867,6.5303293 C 7.3351574,6.5619303 3.8184995,6.6124343 3.1920724,6.6425601 1.7532091,6.7117571 1.7235747,6.7336361 1.7235747,7.726751 c 0,0.8339647 0.040482,0.9625274 0.3435111,1.0909291 C 2.3944191,8.956381 16.89854,9.1109981 17.500785,8.9822069 Z M 15.089618,4.5719343 C 15.268627,4.3928751 15.29063,4.2845297 15.290891,3.580836 15.291244,2.6657381 15.218245,2.540869 14.614829,2.424178 14.092288,2.323127 5.2938904,2.2532472 3.5429083,2.3362411 2.1411083,2.4026842 2.1352939,2.4038244 1.9196182,2.6545624 1.7191529,2.8876172 1.7060046,2.9602623 1.741587,3.6381952 c 0.040905,0.779349 0.168529,1.042276 0.5436432,1.1199993 0.1043039,0.021612 2.9827405,0.033777 6.3965257,0.027035 l 6.2068821,-0.012259 z"
       id="path18"
       transform="matrix(0.26458333,0,0,0.26458333,0.22819653,-0.05243662)" />
    <path
       style="fill:#f9f9f9;fill-opacity:1;stroke:none;stroke-width:1.70079;stroke-linecap:round;stroke-linejoin:round;stroke-dasharray:none;stroke-opacity:1;paint-order:markers stroke fill"
       d="M 1.1932426,11.711456 V 1.1932426 h 9.3249704 9.32497 V 11.711456 22.229668 H 10.518213 1.1932426 Z M 13.178577,21.24244 c 0.098,-0.09804 0.178436,-0.41736 0.239781,-0.95184 l 0.09231,-0.804302 -0.29889,-0.308376 -0.29889,-0.308376 -5.2978709,0.02278 -5.2978707,0.02278 -0.163633,0.22097 c -0.3448741,0.46572 -0.3618649,1.696867 -0.028027,2.030844 0.2177295,0.21782 0.9699862,0.246905 6.0694444,0.234666 4.3893152,-0.01054 4.8498022,-0.02524 4.9836432,-0.159146 z m 3.590688,-3.854455 c 0.17039,-0.170388 0.205956,-0.313209 0.231643,-0.930195 0.04663,-1.119882 0.03683,-1.126905 -1.716143,-1.229826 -0.774287,-0.04546 -4.001686,-0.06972 -7.1719984,-0.05391 -5.3352669,0.0266 -5.7756398,0.04018 -5.9178914,0.182452 -0.1178858,0.117901 -0.1614971,0.344397 -0.1872095,0.972272 -0.047515,1.160281 -0.049057,1.158853 1.3217353,1.223602 0.5995089,0.02832 3.8234405,0.04821 7.164292,0.04419 l 6.074277,-0.0073 z m -5.700662,-4.23669 c 0.232748,-0.35575 0.222005,-1.64125 -0.01702,-2.036461 L 10.877846,10.827572 H 6.6707995 2.4637528 l -0.2596046,0.271153 c -0.2435272,0.254361 -0.2587436,0.312215 -0.2457007,0.934186 0.00765,0.364668 0.062401,0.780114 0.1216744,0.923214 0.102491,0.247435 0.1918842,0.29515 0.7041109,0.37583 0.121534,0.01914 1.9999742,0.04022 4.1743117,0.04684 l 3.9533405,0.01204 z m 6.279568,-4.1576307 c 0.267588,-0.029188 0.408033,-0.096374 0.48203,-0.2305919 0.14921,-0.270643 0.140391,-1.6261759 -0.01294,-1.9898155 l -0.125579,-0.2978107 -6.8571,0.063408 c -3.771406,0.034875 -7.3102116,0.092674 -7.8640128,0.1284426 -1.22415,0.079065 -1.2469915,0.098781 -1.2469915,1.0763474 0,0.816705 0.041552,0.9464713 0.3435111,1.0727853 C 2.3603561,8.9391101 16.359753,9.1014791 17.348171,8.9936643 Z M 15.085861,4.5756918 C 15.260274,4.4012286 15.283551,4.2853285 15.287134,3.5735378 15.292198,2.5675994 15.210296,2.4754542 14.22945,2.3835414 13.293126,2.2958007 3.2877427,2.2854436 2.6760385,2.3715819 1.9127992,2.479059 1.7781823,2.6297124 1.7432811,3.4154558 c -0.03574,0.8046192 0.1452227,1.2375029 0.5548158,1.3271861 0.1458408,0.031933 3.0383749,0.05182 6.4278536,0.044194 l 6.1626885,-0.013865 z"
       id="path19"
       transform="matrix(0.26458333,0,0,0.26458333,0.22819653,-0.05243662)" />
    <path
       style="fill:#f9f9f9;fill-opacity:1;stroke:none;stroke-width:1.70079;stroke-linecap:round;stroke-linejoin:round;stroke-dasharray:none;stroke-opacity:1;paint-order:markers stroke fill"
       d="M 1.1932426,11.711456 V 1.1932426 h 9.3249704 9.32497 V 11.711456 22.229668 H 10.518213 1.1932426 Z M 13.17729,21.243693 c 0.09727,-0.09729 0.176495,-0.41719 0.236562,-0.955197 l 0.09031,-0.808911 -0.294975,-0.304337 -0.294975,-0.304337 H 7.7665895 c -3.1958694,0 -5.2352104,0.0333 -5.3786254,0.08783 -0.347467,0.132107 -0.5116649,0.614031 -0.4726235,1.387161 0.043005,0.85162 0.1278955,0.931863 1.0676709,1.00922 0.4011144,0.03302 2.8260136,0.05437 5.3886648,0.04745 4.2073277,-0.01136 4.6735547,-0.02678 4.8056137,-0.158872 z m 3.590315,-3.854063 c 0.162518,-0.162559 0.205403,-0.318559 0.230832,-0.83969 0.01718,-0.35202 -0.01015,-0.747416 -0.06073,-0.878654 -0.179173,-0.464891 -0.238491,-0.468491 -7.7200728,-0.468491 -6.3002641,0 -6.881275,0.01223 -7.0167273,0.14769 -0.1097281,0.109736 -0.1580458,0.359601 -0.1880128,0.972272 -0.058485,1.195714 -0.096793,1.16594 1.5816237,1.229274 0.7453773,0.02813 3.9693394,0.04801 7.1643602,0.04419 l 5.809128,-0.0069 z m -5.699002,-4.237977 c 0.232772,-0.355256 0.222024,-1.641575 -0.01702,-2.036819 L 10.877846,10.827572 H 6.6696701 2.4614941 l -0.1862963,0.198874 c -0.3789716,0.404557 -0.4416538,1.053618 -0.1835277,1.900389 0.1328361,0.435763 0.027271,0.426466 5.0878452,0.448067 l 3.7323697,0.01593 z m 6.624558,-4.2814812 c 0.323782,-0.2687156 0.363292,-1.7206756 0.05946,-2.1851972 L 17.615715,6.4756582 10.973372,6.5381396 C 3.2978921,6.6103391 2.0157336,6.6611068 1.8412477,6.8997305 1.7022765,7.089785 1.6786315,8.3687349 1.8095659,8.6133881 1.8568622,8.701762 2.0457922,8.8048026 2.2294105,8.8423671 2.6045139,8.9191056 13.652685,9.042078 16.036513,8.996048 16.972202,8.9779804 17.622826,8.9285444 17.693161,8.8701718 Z M 15.032602,4.6275496 C 15.231969,4.428103 15.352275,3.7202611 15.282908,3.1548345 15.185883,2.363972 15.333364,2.3935343 11.229294,2.3422911 7.2521039,2.2926321 2.3795905,2.3605401 2.1401483,2.4689663 1.7649116,2.6388839 1.6096812,3.4754566 1.8157268,4.2173497 c 0.1005904,0.3621886 0.1627361,0.4194992 0.5630431,0.5192367 0.1500842,0.037394 3.0258878,0.060878 6.3906748,0.052186 5.5471173,-0.014328 6.1313543,-0.029367 6.2631573,-0.1612228 z"
       id="path20"
       transform="matrix(0.26458333,0,0,0.26458333,0.22819653,-0.05243662)" />
    <path
       style="fill:#f9f9f9;fill-opacity:1;stroke:none;stroke-width:1.70079;stroke-linecap:round;stroke-linejoin:round;stroke-dasharray:none;stroke-opacity:1;paint-order:markers stroke fill"
       d="M 1.1932426,11.711456 V 1.1932426 h 9.3249704 9.32497 V 11.711456 22.229668 h -9.32497 -9.3249704 z m 10.8159054,9.663996 1.137382,-0.058 0.113263,-0.273093 c 0.0623,-0.150202 0.141112,-0.57375 0.175149,-0.941218 l 0.06189,-0.668125 -0.321237,-0.28205 -0.321237,-0.28205 -4.5268272,0.0094 c -2.4897548,0.0051 -4.8847998,0.03498 -5.3223221,0.06629 l -0.7954951,0.05693 -0.1591666,0.309359 c -0.1221389,0.237392 -0.1528574,0.468107 -0.1320461,0.991748 0.036842,0.927007 0.099708,0.981928 1.2001246,1.048486 1.2375958,0.07485 7.5499365,0.09073 8.8905275,0.02237 z m 4.750876,-3.978241 c 0.152174,-0.152215 0.200258,-0.326457 0.231716,-0.83969 0.05153,-0.840605 -0.04866,-1.094924 -0.481008,-1.221017 -0.215362,-0.06281 -1.998778,-0.116671 -4.976053,-0.150283 -5.2896519,-0.05972 -9.1010437,0.01868 -9.3381848,0.192083 -0.1262809,0.09234 -0.1535026,0.264826 -0.1580585,1.001515 -0.00382,0.617611 0.029606,0.925325 0.109223,1.005518 0.1609089,0.16207 2.5280773,0.216929 9.0531593,0.209804 l 5.367186,-0.0059 z m -5.680161,-4.262744 c 0.21173,-0.32314 0.199367,-1.531184 -0.02022,-1.975439 L 10.895819,10.827572 H 6.6786562 2.4614941 l -0.1942949,0.206817 c -0.1068621,0.11375 -0.2295896,0.329883 -0.2727277,0.480297 -0.1081615,0.377137 0.031055,1.407464 0.2181024,1.614149 0.1938211,0.21417 0.5647493,0.230644 5.154979,0.228946 l 3.5668541,-0.0013 z M 17.786117,8.7321922 C 18.010185,8.3901579 18.00272,7.0663031 17.774762,6.7183941 L 17.614584,6.4739326 11.591525,6.5303157 C 4.8435088,6.5934852 2.62446,6.6497566 2.1535487,6.7696472 1.7732202,6.8664761 1.7264812,6.9877684 1.7247796,7.8823462 c -0.00111,0.586022 0.036046,0.7037175 0.2923687,0.9259803 0.084529,0.073297 3.8059694,0.1329816 9.1398427,0.1465842 l 6.472408,0.016506 z m -3.5819,-3.9892259 c 0.423055,-0.032343 0.817312,-0.1069279 0.876128,-0.1657441 0.149327,-0.149327 0.251839,-1.0057596 0.180272,-1.5060753 -0.103364,-0.7226051 0.267223,-0.6846616 -6.6869477,-0.6846616 -3.3543376,0 -6.2107973,0.031247 -6.3476882,0.069437 -0.4380568,0.122211 -0.6330258,0.9593105 -0.4102543,1.7614273 0.1059617,0.3815284 0.1807231,0.4404352 0.6591468,0.5193619 0.4649308,0.076701 10.7362524,0.082178 11.7293434,0.00625 z"
       id="path21"
       transform="matrix(0.26458333,0,0,0.26458333,0.22819653,-0.05243662)" />
    <path
       style="fill:#f9f9f9;fill-opacity:1;stroke:none;stroke-width:1.70079;stroke-linecap:round;stroke-linejoin:round;stroke-dasharray:none;stroke-opacity:1;paint-order:markers stroke fill"
       d="M 1.1932426,11.711456 V 1.1932426 h 9.3249704 9.32497 V 11.711456 22.229668 h -9.32497 -9.3249704 z m 10.6030134,9.66427 1.350344,-0.05845 0.113228,-0.27301 c 0.06228,-0.150155 0.141077,-0.573665 0.175114,-0.941133 l 0.06189,-0.668125 -0.327382,-0.287445 -0.327381,-0.287444 -4.5648767,0.02397 C 5.76651,18.897269 3.37423,18.929529 2.9610145,18.955779 l -0.7513009,0.04771 -0.1545423,0.309359 c -0.1959918,0.392332 -0.2070156,1.322051 -0.019965,1.683768 0.074169,0.143427 0.1437746,0.266457 0.1546796,0.273402 0.1898975,0.120928 7.4172878,0.200454 9.6063751,0.105703 z M 16.7693,17.388019 c 0.179342,-0.179341 0.201262,-0.287136 0.201262,-0.989732 0,-0.467206 -0.04061,-0.829173 -0.09968,-0.888366 -0.22467,-0.225162 -1.003569,-0.267945 -5.733952,-0.314958 -5.3278606,-0.05295 -8.8039908,0.02602 -8.9820271,0.204058 -0.152863,0.152863 -0.158959,1.834155 -0.0072,1.98659 0.1447662,0.145412 3.7817073,0.222053 10.0254051,0.211264 l 4.394932,-0.0076 z m -5.697872,-4.266826 c 0.216909,-0.307728 0.208234,-1.505329 -0.01421,-1.962165 L 10.895819,10.827572 H 6.671106 2.4463938 l -0.2370066,0.281666 c -0.2242486,0.266504 -0.2353768,0.323435 -0.206731,1.057601 0.040302,1.032911 0.08462,1.075063 1.2041712,1.145325 0.47247,0.02965 2.4009529,0.04753 4.2855175,0.03972 l 3.4264811,-0.01419 z m 6.68418,-4.3486499 C 18.040765,8.3232065 17.992959,6.9065352 17.682152,6.595728 17.574995,6.4885712 16.486951,6.484654 10.016072,6.5681285 5.2573693,6.629516 2.3562429,6.7000026 2.1533575,6.7591635 1.7737269,6.8698627 1.7264699,6.9937098 1.7247796,7.8823462 c -0.00113,0.5922574 0.024945,0.6749384 0.2923687,0.9271817 0.070207,0.066221 4.2351426,0.1302743 9.4050077,0.1446404 l 6.207243,0.017249 z M 13.648307,4.758243 c 1.606953,-0.073509 1.598682,-0.067499 1.598682,-1.1616214 0,-1.0632284 -0.0165,-1.0801202 -1.156043,-1.1834542 C 12.700329,2.2870662 2.3480637,2.3578564 2.1085202,2.4951049 1.7562843,2.6969216 1.6185184,3.5072762 1.8157268,4.2173497 1.9263879,4.6157991 1.9987054,4.6660566 2.563262,4.7368539 c 0.6070141,0.076122 9.512887,0.093306 11.085045,0.021389 z"
       id="path22"
       transform="matrix(0.26458333,0,0,0.26458333,0.22819653,-0.05243662)" />
    <path
       style="fill:#f9f9f9;fill-opacity:1;stroke:none;stroke-width:1.70079;stroke-linecap:round;stroke-linejoin:round;stroke-dasharray:none;stroke-opacity:1;paint-order:markers stroke fill"
       d="M 1.1932426,11.711456 V 1.1932426 h 9.3249704 9.32497 V 11.711456 22.229668 H 10.518213 1.1932426 Z M 11.47284,21.375599 c 1.932241,-0.06753 1.783829,0.02063 1.934864,-1.149386 L 13.506537,19.460577 13.184819,19.165745 12.8631,18.870911 H 9.5615233 c -1.8158672,0 -4.2062398,0.02633 -5.3119392,0.05851 -1.9590707,0.05702 -2.0137027,0.06361 -2.1412842,0.25832 -0.1570719,0.239721 -0.2530168,1.050421 -0.1741002,1.471082 0.1186884,0.632665 0.1314835,0.637369 1.8812872,0.691813 2.4847086,0.07731 5.8460019,0.08827 7.6573531,0.02497 z m 4.253581,-3.800181 c 1.187066,-0.07263 1.244141,-0.129926 1.244141,-1.248909 0,-0.901003 -0.0454,-0.948482 -1.001916,-1.047821 -0.963149,-0.100027 -13.2563742,-0.07308 -13.5821607,0.02978 -0.2428959,0.07668 -0.2710265,0.127724 -0.3349589,0.607741 -0.094015,0.705884 -0.00639,1.417189 0.1857186,1.5076 0.2778926,0.130782 11.726544,0.259458 13.489176,0.151611 z M 11.08279,13.064564 c 0.195046,-0.36404 0.17937,-1.40972 -0.02803,-1.86965 L 10.889112,10.827572 H 6.6643942 2.4396759 L 2.203161,11.137659 c -0.2231397,0.292551 -0.2342774,0.352718 -0.1969484,1.063927 0.056012,1.067161 0.020184,1.044765 1.7752403,1.109711 0.7884027,0.02917 2.7238044,0.04145 4.3008928,0.02728 l 2.8674333,-0.02576 z m 6.694488,-4.3188381 c 0.19117,-0.2917627 0.205926,-1.5629003 0.02257,-1.944321 l -0.125307,-0.2606675 -6.008844,0.03074 C 8.3608337,6.588385 4.8449346,6.631823 3.8525887,6.6680068 2.1230328,6.7310714 2.0415999,6.7420987 1.8859481,6.9343207 c -0.2356258,0.2909854 -0.2314023,1.4018645 0.00645,1.6958479 0.1650838,0.2040443 0.2096196,0.209755 2.0108349,0.2578437 1.0131066,0.027048 4.5159472,0.056879 7.784091,0.066291 l 5.942078,0.017113 z M 13.764536,4.7429016 c 0.784633,-0.040908 1.252953,-0.1028228 1.325349,-0.1752193 0.121742,-0.121742 0.211011,-1.379855 0.122836,-1.7311754 C 15.108124,2.419758 14.920122,2.4032539 9.8111062,2.3623152 7.1859723,2.3412799 4.3892979,2.352401 3.596274,2.3870284 2.3137917,2.4430283 2.1361546,2.4695853 1.9892374,2.6272824 1.7794561,2.852456 1.6906391,3.3724956 1.7670622,3.9281578 c 0.088062,0.6402866 0.2011142,0.7470387 0.8551164,0.8074625 0.8181347,0.075588 9.7206244,0.081406 11.1423574,0.00728 z"
       id="path23"
       transform="matrix(0.26458333,0,0,0.26458333,0.22819653,-0.05243662)" />
    <path
       style="fill:#f9f9f9;fill-opacity:1;stroke:none;stroke-width:1.70079;stroke-linecap:round;stroke-linejoin:round;stroke-dasharray:none;stroke-opacity:1;paint-order:markers stroke fill"
       d="M 1.1932426,11.711456 V 1.1932426 h 9.3249704 9.32497 V 11.711456 22.229668 h -9.32497 -9.3249704 z m 11.8899634,9.50874 c 0.200844,-0.131598 0.250223,-0.300414 0.357184,-1.221137 0.05742,-0.494284 0.05109,-0.514848 -0.251653,-0.817593 l -0.310555,-0.310555 -3.6990525,0.01128 c -2.0344787,0.0062 -4.4344612,0.03604 -5.3332946,0.06629 l -1.6342425,0.05501 -0.1282946,0.265165 c -0.2882611,0.59579 -0.1949865,1.790331 0.152783,1.956646 0.2445047,0.11693 3.6163382,0.189291 7.2560803,0.155717 2.7932529,-0.02576 3.4283249,-0.05421 3.5910449,-0.160826 z m 3.570847,-3.759672 c 0.202393,-0.108317 0.2582,-0.250182 0.326089,-0.828938 0.06375,-0.543514 -0.08343,-1.163829 -0.297802,-1.255073 -0.263878,-0.112317 -7.5937455,-0.207749 -11.0953868,-0.144457 -2.643021,0.04777 -3.3555202,0.08505 -3.4133299,0.17859 -0.1102445,0.178379 -0.1913881,1.134568 -0.1292548,1.523129 0.03015,0.188544 0.1155821,0.393278 0.1898501,0.454963 0.2624981,0.218023 14.0186284,0.286505 14.4198344,0.07179 z M 11.101526,13.016062 C 11.269101,12.6115 11.239681,11.604994 11.047846,11.17958 L 10.889112,10.827572 H 6.6643942 2.4396759 l -0.2254691,0.295605 c -0.1897566,0.248784 -0.2254691,0.389234 -0.2254691,0.886723 0,0.479359 0.1526522,1.138564 0.282752,1.221021 0.074354,0.04712 4.8866513,0.112472 6.6683786,0.09055 l 2.0455777,-0.02517 z M 17.733138,8.8252495 C 17.921735,8.598004 17.90285,6.8164263 17.709798,6.6233743 17.576546,6.4901227 16.977671,6.4866553 10.1084,6.5793631 6.0071878,6.634713 2.4934635,6.708854 2.300124,6.7441208 1.8508476,6.8260727 1.7265922,7.0616355 1.7248757,7.8346735 1.7238825,8.2819704 1.763724,8.471118 1.8924363,8.6301686 2.0588981,8.8358664 2.0906429,8.8395364 4.124242,8.8881917 c 1.1346181,0.027146 4.6334872,0.056978 7.775265,0.066291 5.218474,0.01547 5.722809,0.0043 5.833631,-0.1292332 z M 13.456799,4.7406911 C 14.480455,4.6975156 15.017414,4.6401541 15.091507,4.5660608 15.212011,4.4455564 15.29996,3.1840952 15.212228,2.8345424 15.101755,2.3943816 14.982149,2.3864853 8.4254584,2.3864853 c -6.0260236,0 -6.0720379,0.00135 -6.3184793,0.1853545 -0.3056167,0.2281877 -0.4231132,0.6763351 -0.3437862,1.3112471 0.09369,0.7498694 0.1555443,0.7933723 1.2127777,0.8529626 1.3455218,0.07584 8.7153974,0.079103 10.4808284,0.00464 z"
       id="path24"
       transform="matrix(0.26458333,0,0,0.26458333,0.22819653,-0.05243662)" />
    <path
       style="fill:#f9f9f9;fill-opacity:1;stroke:none;stroke-width:1.70079;stroke-linecap:round;stroke-linejoin:round;stroke-dasharray:none;stroke-opacity:1;paint-order:markers stroke fill"
       d="M 1.1932426,11.711456 V 1.1932426 h 9.3249704 9.32497 V 11.711456 22.229668 h -9.32497 -9.3249704 z m 11.9019804,9.50076 c 0.189324,-0.123944 0.221131,-0.240191 0.34448,-1.259026 0.05422,-0.447849 0.04464,-0.476118 -0.267028,-0.787785 l -0.323268,-0.323268 -5.2005528,0.05797 c -2.8603037,0.03189 -5.2587919,0.08032 -5.3299738,0.107639 -0.4813878,0.184726 -0.5490913,1.997019 -0.0828,2.216384 0.2290605,0.107762 3.840097,0.177275 7.4424428,0.143268 2.5894348,-0.02444 3.2637778,-0.05507 3.4166998,-0.155185 z m 3.60146,-3.78241 c 0.203243,-0.148616 0.340544,-0.871401 0.268443,-1.413152 -0.06838,-0.513763 -0.23305,-0.638234 -0.947427,-0.71613 -0.680318,-0.07418 -12.7217759,-0.07367 -13.3534271,5.31e-4 -0.5856577,0.06883 -0.5981479,0.09175 -0.6176632,1.133311 -0.016986,0.90657 0.049689,1.003011 0.7228709,1.045579 0.275489,0.01742 3.4863373,0.03919 7.1352183,0.04839 5.3357561,0.01344 6.6651881,-0.0059 6.7919851,-0.09857 z m -5.618134,-4.35249 c 0.152012,-0.33363 0.127945,-1.475658 -0.03994,-1.895245 l -0.142516,-0.356184 -4.2513007,0.02294 -4.2513004,0.02294 -0.2023766,0.300333 c -0.376647,0.558957 -0.2170884,1.925425 0.2395652,2.051648 0.1215339,0.03359 2.0939435,0.06504 4.3831324,0.06989 l 4.1621611,0.0088 z m 6.604323,-4.2313033 c 0.235819,-0.172361 0.300332,-1.5340368 0.09587,-2.0233943 l -0.136243,-0.3260751 -1.087267,0.00186 C 13.615287,6.5034418 2.9481575,6.6760904 2.5447417,6.725167 1.8221958,6.8130664 1.7677669,6.8861118 1.7677669,7.7678924 c 0,1.1262161 -0.1533796,1.0609425 2.6326151,1.1203596 1.2744226,0.02718 4.7457337,0.057011 7.714025,0.066291 4.539681,0.014194 5.424144,-0.00304 5.568465,-0.1085303 z M 13.146129,4.7415919 c 2.089695,-0.071951 2.03705,-0.045952 2.086769,-1.0305356 C 15.27932,2.7917811 15.226446,2.6362581 14.826456,2.5156408 14.397885,2.3864036 7.0048908,2.2951857 4.2504135,2.385149 2.3064883,2.4486391 2.2172006,2.4593464 2.0244656,2.6520813 1.6588515,3.0176953 1.6368433,4.0505767 1.9854766,4.4818993 2.1372408,4.6696591 2.2361292,4.6882079 3.3285543,4.733825 5.0604572,4.806145 11.13177,4.810948 13.146129,4.741595 Z"
       id="path25"
       transform="matrix(0.26458333,0,0,0.26458333,0.22819653,-0.05243662)" />
    <path
       style="fill:#f9f9f9;fill-opacity:1;stroke:none;stroke-width:1.70079;stroke-linecap:round;stroke-linejoin:round;stroke-dasharray:none;stroke-opacity:1;paint-order:markers stroke fill"
       d="M 1.1932426,11.711456 V 1.1932426 h 9.3249704 9.32497 V 11.711456 22.229668 h -9.32497 -9.3249704 z m 11.7896384,9.549821 c 0.244456,-0.09294 0.350121,-0.389531 0.450897,-1.265618 0.05758,-0.500579 0.05251,-0.51664 -0.262535,-0.831686 l -0.32125,-0.32125 -5.2122065,0.06204 c -2.8667135,0.03412 -5.2670796,0.0831 -5.3341467,0.108834 -0.2125641,0.08157 -0.3590962,0.587631 -0.3590962,1.240173 0,0.725312 0.1445498,0.970754 0.605877,1.028764 0.6246573,0.07855 10.2213814,0.05899 10.4324604,-0.02126 z m 3.774679,-3.865552 c 0.149925,-0.149967 0.267278,-0.976145 0.202349,-1.424565 -0.10521,-0.726601 0.412544,-0.679977 -7.5511128,-0.679977 -5.8364225,0 -7.0642568,0.02073 -7.1854725,0.121308 -0.1177232,0.09768 -0.1461976,0.289244 -0.1461976,0.983547 0,0.596802 0.035147,0.891407 0.1141702,0.956991 0.1760041,0.146071 0.8666044,0.159482 7.9026807,0.153468 4.945659,-0.0042 6.584299,-0.03147 6.663583,-0.110772 z m -5.679011,-4.318409 c 0.151835,-0.333241 0.127953,-1.475639 -0.0396,-1.894402 l -0.14218,-0.355342 H 6.6669092 2.4370524 l -0.2241573,0.329877 c -0.1807573,0.266008 -0.2231915,0.432862 -0.2191686,0.861786 0.00722,0.769672 0.1532935,1.135717 0.4811471,1.205697 0.1458408,0.03113 2.1182504,0.0613 4.3831325,0.06706 l 4.1179669,0.01046 z M 17.51743,8.9171609 c 0.110958,-0.029757 0.233337,-0.166654 0.287262,-0.321342 0.135431,-0.3884991 0.115519,-1.4346078 -0.03412,-1.7927554 l -0.128073,-0.3065202 -0.866296,0.00152 C 14.004187,6.5029178 3.0938327,6.6783374 2.6328474,6.7254617 1.8175017,6.8088103 1.7677669,6.868726 1.7677669,7.7676276 c 0,1.1354076 -0.1911028,1.0615023 2.8978049,1.1206696 3.6761314,0.070415 12.6219972,0.090507 12.8518582,0.028864 z M 14.715764,4.653508 c 0.411544,-0.085647 0.528317,-0.3435914 0.529922,-1.1705664 0.0019,-0.9900133 0.0086,-0.9863263 -1.926718,-1.064551 -1.935717,-0.078241 -7.6788127,-0.079008 -9.6807843,-0.00129 -1.40198,0.054424 -1.4976946,0.06933 -1.6495544,0.2568996 C 1.6617048,3.077797 1.6616184,4.081354 1.9884702,4.4854589 2.1433533,4.6769476 2.2201553,4.6867 3.991578,4.7398138 c 2.248308,0.067413 10.296787,0.00264 10.724183,-0.086306 z"
       id="path26"
       transform="matrix(0.26458333,0,0,0.26458333,0.22819653,-0.05243662)" />
    <path
       style="fill:#f9f9f9;fill-opacity:1;stroke:none;stroke-width:1.70079;stroke-linecap:round;stroke-linejoin:round;stroke-dasharray:none;stroke-opacity:1;paint-order:markers stroke fill"
       d="M 1.1932426,11.711456 V 1.1932426 h 9.3249704 9.32497 V 11.711456 22.229668 h -9.32497 -9.3249704 z m 11.7113484,9.55673 c 0.310354,-0.06637 0.429225,-0.350016 0.517714,-1.235359 0.05552,-0.555476 0.05268,-0.56511 -0.257825,-0.875617 l -0.313961,-0.313962 -5.2155938,0.06298 c -2.8685765,0.03464 -5.2690608,0.08349 -5.3344096,0.108571 -0.211189,0.08104 -0.3560587,0.591989 -0.3524004,1.242898 0.00409,0.728559 0.1443802,0.967259 0.6023054,1.024841 0.4709528,0.05922 10.0723664,0.04592 10.3541704,-0.01435 z m 3.854978,-3.874444 c 0.147921,-0.147997 0.255755,-1.028772 0.180164,-1.471562 -0.113564,-0.665234 0.298793,-0.630997 -7.5997858,-0.630997 -6.8389964,0 -7.01499,0.0042 -7.1373587,0.171574 -0.1654854,0.226306 -0.1778174,1.772846 -0.014977,1.878239 0.2256223,0.146026 1.7698467,0.178555 8.0389755,0.16934 4.905611,-0.0072 6.451225,-0.03479 6.532982,-0.116594 z m -5.663002,-4.412261 c 0.128024,-0.387918 0.07017,-1.563705 -0.09401,-1.910841 L 10.887585,10.827572 H 6.665151 2.4427169 l -0.2048925,0.287262 c -0.1739853,0.24393 -0.2048925,0.39587 -0.2048925,1.007251 0,0.799212 0.1265349,1.051089 0.5616155,1.117939 0.1286337,0.01976 2.0703774,0.04189 4.3149858,0.04918 l 4.0811068,0.01324 z m 6.345648,-4.0646198 c 0.213305,-0.042661 0.295127,-0.1222761 0.375286,-0.3651587 0.123748,-0.3749602 0.06868,-1.5737878 -0.08546,-1.8603727 L 17.62288,6.4883688 12.700527,6.5441974 C 6.7434575,6.6117615 2.2624872,6.7209373 2.0612052,6.8034171 1.6327917,6.9789691 1.6023765,8.4929873 2.0225112,8.7295427 c 0.1277224,0.071914 1.0577429,0.1217854 2.927236,0.156971 3.9534349,0.074407 12.1723378,0.094373 12.4924678,0.030347 z M 14.423927,4.6747389 c 0.328654,-0.028391 0.590878,-0.1001706 0.656999,-0.1798428 0.06052,-0.072926 0.127115,-0.4578487 0.14798,-0.8553832 0.03259,-0.6208602 0.01355,-0.7529033 -0.134974,-0.9363263 C 14.923794,2.4930751 14.887838,2.4883513 12.852199,2.4086718 9.9709061,2.2958914 2.5003896,2.3876228 2.1831314,2.5396786 1.7130331,2.7649878 1.5891525,3.9918494 1.9868651,4.4834173 2.147415,4.6818548 2.1829842,4.6852016 4.6103446,4.7302671 c 2.7737032,0.051496 8.9812774,0.016371 9.8135824,-0.055528 z"
       id="path27"
       transform="matrix(0.26458333,0,0,0.26458333,0.22819653,-0.05243662)" />
    <path
       style="fill:#f9f9f9;fill-opacity:1;stroke:none;stroke-width:1.70079;stroke-linecap:round;stroke-linejoin:round;stroke-dasharray:none;stroke-opacity:1;paint-order:markers stroke fill"
       d="M 1.1932426,11.711456 V 1.1932426 h 9.3249704 9.32497 V 11.711456 22.229668 h -9.32497 -9.3249704 z m 11.8651754,9.51439 c 0.172484,-0.08417 0.288515,-0.472149 0.369404,-1.235202 0.0533,-0.502839 0.04693,-0.523164 -0.260627,-0.83072 l -0.315268,-0.315267 -5.1443328,0.063 c -2.8293827,0.03465 -5.2304334,0.08379 -5.3356681,0.109205 -0.2651852,0.06404 -0.4169685,0.486951 -0.4226087,1.177515 -0.00611,0.748676 0.1617296,1.036723 0.6345239,1.088942 0.6360351,0.07025 10.3217517,0.0171 10.4745767,-0.05748 z m 3.61948,-3.802261 c 0.18786,-0.08815 0.269098,-0.45173 0.264865,-1.185415 -0.0023,-0.394234 -0.04574,-0.616465 -0.138768,-0.709492 -0.235215,-0.235215 -2.094649,-0.293592 -8.4363554,-0.264859 -5.8599399,0.02655 -6.0433927,0.03247 -6.1650869,0.198938 -0.1450725,0.198447 -0.175317,1.601104 -0.039182,1.817164 0.062017,0.09843 0.3292136,0.146353 1.0372095,0.186036 1.3878882,0.07779 13.3010488,0.04034 13.4773178,-0.04237 z m -5.581331,-4.442104 c 0.128024,-0.387918 0.07017,-1.563705 -0.09401,-1.910841 L 10.887585,10.827572 H 6.665151 2.4427169 l -0.2048925,0.287262 c -0.1707772,0.239432 -0.2048925,0.398299 -0.2048925,0.954136 0,0.807331 0.1565913,1.115142 0.5949057,1.169408 0.1589378,0.01968 2.1055882,0.04214 4.3258898,0.04992 l 4.0369126,0.01415 z m 6.600104,-4.2120946 c 0.129781,-0.1298316 0.157774,-0.3101823 0.157774,-1.0164659 0,-0.5560203 -0.04181,-0.9320459 -0.118646,-1.0669423 L 17.617152,6.4776657 13.802518,6.5318569 C 4.7488679,6.6604741 3.6739477,6.6797635 2.9610095,6.7264071 c -0.9996042,0.065398 -1.040733,0.081918 -1.1458044,0.460229 -0.1807018,0.6506175 -0.057836,1.4357794 0.2460001,1.572043 0.2182654,0.097887 5.488662,0.1833653 10.8183018,0.1754572 4.349843,-0.00645 4.669872,-0.017399 4.817164,-0.1647499 z M 14.613283,4.6471069 C 14.823801,4.606423 15.036784,4.5323955 15.086578,4.4826015 15.136372,4.4328075 15.197631,4.0601354 15.22271,3.6544412 15.262377,3.0127568 15.245871,2.8892198 15.095813,2.7046527 14.925224,2.4948322 14.898029,2.4915831 12.632378,2.4103289 10.381285,2.3295969 2.838677,2.3888547 2.3264684,2.4912964 1.9302478,2.5705406 1.7744402,2.8837813 1.7808898,3.5881454 c 0.00614,0.6705071 0.163553,1.0147454 0.4929327,1.0779671 0.3794131,0.072825 11.9565525,0.054994 12.3394605,-0.019006 z"
       id="path28"
       transform="matrix(0.26458333,0,0,0.26458333,0.22819653,-0.05243662)" />
    <path
       style="fill:#f9f9f9;fill-opacity:1;stroke:none;stroke-width:1.70079;stroke-linecap:round;stroke-linejoin:round;stroke-dasharray:none;stroke-opacity:1;paint-order:markers stroke fill"
       d="M 1.1932426,11.711456 V 1.1932426 h 9.3249704 9.32497 V 11.711456 22.229668 h -9.32497 -9.3249704 z m 11.2074964,9.55931 c 0.817831,-0.06797 0.857904,-0.09835 0.940423,-0.713002 0.02992,-0.222872 0.07679,-0.554789 0.104156,-0.737593 0.04423,-0.295462 0.01416,-0.367965 -0.270768,-0.652891 l -0.32052,-0.32052 -4.9686072,0.05989 c -2.7327341,0.03294 -5.135973,0.08241 -5.3405309,0.109941 -0.3327321,0.04478 -0.3832553,0.08398 -0.4794615,0.372031 -0.1601066,0.479375 -0.139404,1.362153 0.038305,1.633372 0.1216738,0.185698 0.2312365,0.231902 0.6131941,0.258593 0.8588888,0.06002 8.9421375,0.05182 9.6838095,-0.0098 z m 4.360776,-3.983621 c 0.205103,-0.253292 0.237383,-1.465235 0.046,-1.726971 -0.181029,-0.247572 -1.710147,-0.306581 -7.6593184,-0.295573 -5.2081768,0.0096 -6.8186797,0.05329 -6.9535444,0.188474 -0.1080811,0.108338 -0.1385999,1.672067 -0.035654,1.826846 0.1367448,0.205596 1.6492619,0.246637 8.3932388,0.227743 l 6.044428,-0.01693 z m -5.663996,-4.308549 c 0.126844,-0.384341 0.06689,-1.548506 -0.09826,-1.907956 L 10.887585,10.827572 H 6.665151 2.4427169 l -0.2048925,0.287262 c -0.1716797,0.240698 -0.2045242,0.395912 -0.2026202,0.95753 0.00294,0.86768 0.1489767,1.117421 0.6814023,1.165298 0.207342,0.01864 2.1538212,0.04085 4.3255092,0.04934 l 3.9485243,0.01544 z M 17.676773,8.7893042 C 17.851917,8.6140564 17.938917,7.8933252 17.860597,7.2664696 17.752315,6.3998161 18.507533,6.4727399 10.736267,6.5785432 3.0861289,6.6826972 2.2399523,6.7164843 1.9816789,6.9281059 1.6293483,7.2167953 1.6852393,8.5918129 2.0559889,8.756257 2.2658599,8.849344 8.386987,8.9461098 13.409857,8.935744 17.025799,8.928284 17.556067,8.910083 17.676773,8.7893042 Z M 14.913807,4.6086785 C 15.112243,4.512327 15.245877,4.0191363 15.246496,3.3808541 15.247115,2.7008734 15.098984,2.5567721 14.304694,2.4649245 13.320401,2.3511059 2.8030731,2.3884505 2.3748694,2.5072845 1.9227435,2.6327572 1.7688489,2.9453871 1.7896569,3.6961169 c 0.016896,0.6095865 0.1837299,0.9161658 0.5286058,0.971382 0.4519772,0.072364 12.4406733,0.016377 12.5955443,-0.05882 z"
       id="path29"
       transform="matrix(0.26458333,0,0,0.26458333,0.22819653,-0.05243662)" />
    <path
       style="fill:#f9f9f9;fill-opacity:1;stroke:none;stroke-width:1.70079;stroke-linecap:round;stroke-linejoin:round;stroke-dasharray:none;stroke-opacity:1;paint-order:markers stroke fill"
       d="M 1.1932426,11.711456 V 1.1932426 h 9.3249704 9.32497 V 11.711456 22.229668 h -9.32497 -9.3249704 z m 10.7766134,9.576169 c 1.271589,-0.06837 1.290862,-0.08278 1.412575,-1.056182 0.06545,-0.523437 0.05316,-0.647353 -0.08727,-0.87994 -0.318215,-0.527039 -0.11866,-0.512299 -5.7739622,-0.426494 -4.7854583,0.07261 -5.1845904,0.0903 -5.3305225,0.236224 -0.1218277,0.121824 -0.1642147,0.333132 -0.1861656,0.928077 -0.036227,0.981867 0.03894,1.099793 0.7492324,1.175454 0.7154261,0.07621 7.8928699,0.09401 9.2161139,0.02286 z m 4.766751,-3.956839 c 0.09215,-0.09214 0.151711,-0.350257 0.174692,-0.756979 0.0492,-0.870611 -0.008,-1.033497 -0.405464,-1.154081 -0.730378,-0.221602 -13.9018632,-0.212141 -14.2621159,0.01024 -0.1494076,0.09223 -0.220513,1.645836 -0.084669,1.84995 0.1338701,0.201148 2.1113161,0.250836 8.7026059,0.218671 5.087702,-0.02483 5.750915,-0.04377 5.874951,-0.167806 z M 11.09958,12.926795 c 0.118945,-0.437866 0.06084,-1.501334 -0.101457,-1.856995 l -0.111303,-0.243908 -4.2452299,0.02294 -4.2452295,0.02294 -0.1817144,0.309359 c -0.2324082,0.395664 -0.2434354,1.460373 -0.018678,1.803396 0.1825552,0.278615 0.1700763,0.277875 5.070566,0.300613 l 3.7310008,0.01731 z M 17.677657,8.7883386 C 17.846273,8.6197227 17.936277,7.6621079 17.834904,7.1152819 17.778339,6.8101549 17.706358,6.6912829 17.525741,6.6047155 17.336163,6.513853 16.028334,6.5091141 10.81067,6.5803839 7.2468671,6.629063 3.8421712,6.6946525 3.2446786,6.7261384 1.8328903,6.800535 1.7766766,6.8401686 1.7715143,7.764798 c -0.00325,0.5821247 0.022793,0.697775 0.1961946,0.8712433 l 0.1999421,0.2000192 4.0868926,0.056293 c 2.247791,0.030961 5.7069364,0.05083 7.6869884,0.044154 3.111823,-0.010493 3.618545,-0.030588 3.736125,-0.1481689 z M 14.916296,4.6035725 c 0.209849,-0.095947 0.286499,-0.4131567 0.286499,-1.1856493 0,-0.7793793 -0.07522,-0.8608331 -0.870307,-0.9424273 -0.299148,-0.0307 -3.142673,-0.043398 -6.3189436,-0.02822 L 2.2385071,2.4748736 2.0252341,2.7228705 C 1.8453353,2.9320592 1.8121649,3.0634589 1.813264,3.5625597 c 0.00172,0.78246 0.1256551,1.017506 0.5753861,1.0912618 0.5032013,0.082525 12.3411029,0.035042 12.5276459,-0.050249 z"
       id="path30"
       transform="matrix(0.26458333,0,0,0.26458333,0.22819653,-0.05243662)" />
    <path
       style="fill:#f9f9f9;fill-opacity:1;stroke:none;stroke-width:1.70079;stroke-linecap:round;stroke-linejoin:round;stroke-dasharray:none;stroke-opacity:1;paint-order:markers stroke fill"
       d="M 1.1932426,11.711456 V 1.1932426 h 9.3249704 9.32497 V 11.711456 22.229668 h -9.32497 -9.3249704 z m 11.8189394,9.473325 c 0.376907,-0.206218 0.537537,-1.490582 0.237547,-1.899381 -0.326397,-0.444787 -0.285616,-0.442257 -5.7792847,-0.35855 -4.7292719,0.07206 -5.1353415,0.09014 -5.2803852,0.235091 -0.1211133,0.121039 -0.1636416,0.333593 -0.1855494,0.927369 -0.037727,1.022536 0.024109,1.105261 0.8829261,1.181196 1.2042397,0.106479 9.9081462,0.03278 10.1247462,-0.08573 z m 3.737409,-3.867778 c 0.15223,-0.15123 0.235665,-1.506588 0.104696,-1.700755 -0.04336,-0.06428 -0.233809,-0.15576 -0.423222,-0.203284 -0.850627,-0.21342 -14.0201589,-0.175499 -14.2369011,0.04099 -0.095423,0.09531 -0.094759,1.788826 7.425e-4,1.884684 0.1337865,0.134292 3.3875392,0.188521 8.9420286,0.149031 4.700748,-0.03342 5.498932,-0.05769 5.61266,-0.170671 z m -5.650074,-4.390208 c 0.112993,-0.416202 0.06151,-1.361714 -0.09866,-1.811961 l -0.10219,-0.287262 H 6.6718822 2.4450973 l -0.1732301,0.287262 c -0.095277,0.157994 -0.1975115,0.426474 -0.2271887,0.596622 -0.065924,0.377957 0.057511,1.209332 0.2009166,1.35324 0.1598364,0.160397 1.2255906,0.206471 5.1535218,0.222795 l 3.5984181,0.01496 z m 5.760931,-4.0228557 c 0.948049,-0.04156 0.988918,-0.08991 0.988918,-1.1699592 0,-0.9035007 -0.09314,-1.1055937 -0.543976,-1.180328 C 16.88008,6.4831492 4.3003165,6.6582282 3.0219778,6.7524418 1.8246306,6.8406862 1.7855842,6.872712 1.7776763,7.7730152 c -0.00508,0.5788064 0.020526,0.6935966 0.1932872,0.8663577 l 0.1991476,0.1991478 4.3508276,0.050949 c 4.9640353,0.058129 9.2080823,0.064069 10.3395093,0.01447 z M 14.916296,4.5997367 c 0.205985,-0.089097 0.280131,-0.3980115 0.283617,-1.1816355 0.0035,-0.7933735 -0.06639,-0.8623809 -0.95484,-0.942404 -0.348298,-0.031371 -3.192263,-0.04439 -6.3199225,-0.028931 L 2.2384961,2.4748736 2.0252286,2.7228705 C 1.847867,2.9291143 1.811961,3.0660646 1.811961,3.5363037 c 0,0.31099 0.046594,0.6676985 0.1035416,0.7926855 0.098299,0.2157427 0.1698805,0.2515502 0.6919535,0.3461388 0.375658,0.068061 12.1438329,-0.00402 12.3088399,-0.075391 z"
       id="path31"
       transform="matrix(0.26458333,0,0,0.26458333,0.22819653,-0.05243662)" />
    <path
       style="fill:#f9f9f9;fill-opacity:1;stroke:none;stroke-width:1.70079;stroke-linecap:round;stroke-linejoin:round;stroke-dasharray:none;stroke-opacity:1;paint-order:markers stroke fill"
       d="M 1.1932426,11.711456 V 1.1932426 h 9.3249704 9.32497 V 11.711456 22.229668 h -9.32497 -9.3249704 z m 11.8336024,9.463138 c 0.22869,-0.122392 0.284196,-0.29795 0.337113,-1.066246 0.04506,-0.654291 0.04201,-0.66636 -0.234444,-0.928077 -0.273994,-0.259382 -0.302631,-0.265755 -1.313119,-0.29218 -0.56816,-0.01486 -2.9345268,0.0087 -5.2585944,0.05239 -3.7238931,0.06997 -4.2427238,0.09654 -4.3699998,0.223822 -0.1051356,0.105135 -0.1538685,0.35537 -0.1791471,0.919887 -0.047396,1.058431 -0.002,1.111724 1.0112506,1.187104 1.212127,0.09018 9.8130617,0.0071 10.0069407,-0.0967 z m 3.58845,-3.805633 c 0.227989,-0.08668 0.311073,-0.393045 0.311073,-1.147049 0,-0.810101 -0.02057,-0.818702 -2.146573,-0.897366 -3.424747,-0.126722 -12.413457,-0.04275 -12.5736178,0.117463 -0.03433,0.03434 -0.08108,0.4122 -0.1038901,0.83969 -0.063826,1.196193 -0.2193949,1.122023 2.4645542,1.174999 3.2221176,0.0636 11.8149947,0.001 12.0484537,-0.08774 z m -5.516256,-4.440389 c 0.113467,-0.417967 0.06234,-1.362511 -0.09818,-1.813738 l -0.10219,-0.287262 H 6.6718822 2.4450973 l -0.1945948,0.314861 c -0.1522055,0.246273 -0.1933768,0.444312 -0.189003,0.909127 0.00683,0.725606 0.1211292,1.054174 0.3881507,1.115766 0.3004468,0.0693 1.3398046,0.09303 5.125765,0.117005 L 10.996579,13.306 Z M 17.594557,8.8245787 C 17.779101,8.7537629 17.85363,8.4044815 17.846208,7.6452194 17.838385,6.84478 17.735985,6.6213121 17.348664,6.5594211 17.010567,6.5053957 5.7894623,6.6381289 3.7204554,6.7206278 2.9471178,6.7514636 2.224632,6.8108176 2.1149315,6.8525256 1.8609377,6.9490939 1.7914323,7.1753119 1.7955666,7.8919562 c 0.00268,0.463953 0.039282,0.6113041 0.1890758,0.7611086 0.1829557,0.1829684 0.2606901,0.186614 5.1551587,0.2417713 5.0042149,0.056394 10.2159789,0.02137 10.4547559,-0.070257 z M 14.983618,4.5061826 C 15.084681,4.414722 15.16037,4.1664069 15.200008,3.7962611 15.278285,3.0653283 15.147455,2.6328951 14.820277,2.5411251 14.690366,2.5046868 11.80634,2.4748736 8.4113288,2.4748736 H 2.2385809 l -0.21331,0.2479969 C 1.8478572,2.9291338 1.811961,3.06602 1.811961,3.5363037 c 0,0.652326 0.1292004,1.0028453 0.3908037,1.0602466 0.4869221,0.106841 1.204112,0.1158373 6.7139318,0.084218 5.2506135,-0.030132 5.9288695,-0.04965 6.0669215,-0.1745857 z"
       id="path32"
       transform="matrix(0.26458333,0,0,0.26458333,0.22819653,-0.05243662)" />
    <path
       style="fill:none;fill-opacity:1;stroke:#ffffff;stroke-width:0.450001;stroke-linecap:round;stroke-linejoin:round;stroke-dasharray:none;stroke-opacity:1;paint-order:markers stroke fill"
       d="m 0.74269037,2.6369622 2.73617163,10e-8"
       id="path33" />
    <path
       style="fill:none;fill-opacity:1;stroke:#ffffff;stroke-width:0.3;stroke-linecap:round;stroke-linejoin:round;stroke-dasharray:none;stroke-opacity:1;paint-order:markers stroke fill"
       d="m 1.2441935,4.8222639 2.7361716,10e-8"
       id="path33-2" />
    <path
       style="fill:none;fill-opacity:1;stroke:#ffffff;stroke-width:0.3;stroke-linecap:round;stroke-linejoin:round;stroke-dasharray:none;stroke-opacity:1;paint-order:markers stroke fill"
       d="M 0.50882951,5.9344005 0.46205735,0.1814242 H 5.5134512"
       id="path34" />
  </g>
</svg>
