<?xml version="1.0" encoding="UTF-8" standalone="no"?>
<!-- Created with Inkscape (http://www.inkscape.org/) -->

<svg
   width="20.033772"
   height="22.243481"
   viewBox="0 0 5.300602 5.8852542"
   version="1.1"
   id="svg1"
   inkscape:version="1.4 (86a8ad7, 2024-10-11)"
   sodipodi:docname="changelogicon.svg"
   xmlns:inkscape="http://www.inkscape.org/namespaces/inkscape"
   xmlns:sodipodi="http://sodipodi.sourceforge.net/DTD/sodipodi-0.dtd"
   xmlns="http://www.w3.org/2000/svg"
   xmlns:svg="http://www.w3.org/2000/svg">
  <sodipodi:namedview
     id="namedview1"
     pagecolor="#000000"
     bordercolor="#000000"
     borderopacity="0.25"
     inkscape:showpageshadow="2"
     inkscape:pageopacity="0.0"
     inkscape:pagecheckerboard="0"
     inkscape:deskcolor="#d1d1d1"
     inkscape:document-units="mm"
     inkscape:zoom="11.313709"
     inkscape:cx="6.1429899"
     inkscape:cy="11.888232"
     inkscape:window-width="1280"
     inkscape:window-height="705"
     inkscape:window-x="-8"
     inkscape:window-y="-8"
     inkscape:window-maximized="1"
     inkscape:current-layer="layer1" />
  <defs
     id="defs1">
    <inkscape:path-effect
       effect="spiro"
       id="path-effect4"
       is_visible="true"
       lpeversion="1" />
    <inkscape:path-effect
       effect="spiro"
       id="path-effect3"
       is_visible="true"
       lpeversion="1" />
    <inkscape:path-effect
       effect="spiro"
       id="path-effect2"
       is_visible="true"
       lpeversion="1" />
    <inkscape:path-effect
       effect="spiro"
       id="path-effect1"
       is_visible="true"
       lpeversion="1" />
    <inkscape:path-effect
       effect="spiro"
       id="path-effect1-4"
       is_visible="true"
       lpeversion="1" />
    <inkscape:path-effect
       effect="spiro"
       id="path-effect2-8"
       is_visible="true"
       lpeversion="1" />
    <inkscape:path-effect
       effect="spiro"
       id="path-effect3-1"
       is_visible="true"
       lpeversion="1" />
    <inkscape:path-effect
       effect="spiro"
       id="path-effect4-2"
       is_visible="true"
       lpeversion="1" />
    <inkscape:path-effect
       effect="spiro"
       id="path-effect4-2-2"
       is_visible="true"
       lpeversion="1" />
  </defs>
  <g
     inkscape:label="Camada 1"
     inkscape:groupmode="layer"
     id="layer1"
     transform="translate(-0.40158263,-0.14433555)">
    <path
       style="fill:none;stroke:#ffffff;stroke-width:0.6;stroke-linecap:round;stroke-linejoin:round;stroke-dasharray:none;stroke-opacity:1;paint-order:markers stroke fill"
       d="M 0.72496855,0.44433556 H 5.3787989 l 0.023386,5.26186854 -4.70060239,0.023386 z"
       id="path1" />
    <path
       style="fill:#f9f9f9;fill-opacity:1;stroke:none;stroke-width:2.26772;stroke-linecap:round;stroke-linejoin:round;stroke-dasharray:none;stroke-opacity:1;paint-order:markers stroke fill"
       d="m 2.3422911,12.48914 c 0,-4.1069011 0.026097,-8.0700374 0.057994,-8.8069705 l 0.057994,-1.3398784 h 7.5768279 7.576828 l 0.06599,8.7099619 c 0.03629,4.79048 0.05108,8.724314 0.03287,8.741853 -0.01822,0.01754 -3.483578,0.06119 -7.700807,0.09701 l -7.6676886,0.06512 z m 14.0502259,6.14882 c 0.411003,-0.242785 0.533851,-0.553645 0.533851,-1.350878 0,-0.692964 -0.01009,-0.727871 -0.302539,-1.047022 l -0.30254,-0.330158 -6.3794628,-0.02381 -6.3794626,-0.02381 -0.3448713,0.344871 c -0.3446015,0.344602 -0.3448711,0.345435 -0.3448711,1.066766 0,0.471475 0.046377,0.811578 0.1336936,0.98043 0.2794559,0.540408 0.021908,0.520767 6.8795421,0.524642 5.6421591,0.0032 6.2861561,-0.01077 6.5066601,-0.141024 z m -5.570395,-5.585412 c 0.433614,-0.23255 0.624169,-0.64431 0.624169,-1.34874 0,-0.460983 -0.04251,-0.648569 -0.200636,-0.885262 -0.403044,-0.60332 -0.443487,-0.609418 -4.042005,-0.609418 -3.5499087,0 -3.6119361,0.0086 -4.0138953,0.556637 -0.2619208,0.357105 -0.3034517,1.403205 -0.072364,1.822744 0.3416691,0.620302 0.3759423,0.625548 4.0862596,0.625548 3.0439917,0 3.3421337,-0.01331 3.6184717,-0.161509 z m 3.185732,-6.1237286 c 0.426976,-0.2399743 0.620417,-0.6503413 0.620417,-1.3161596 0,-0.6658182 -0.193441,-1.0761852 -0.620417,-1.3161595 C 13.681276,4.1129534 13.598756,4.1100631 8.6942173,4.1103884 3.8789535,4.1107066 3.7026746,4.1165941 3.4242405,4.2863572 2.9693616,4.5637002 2.7848936,4.9463726 2.7848936,5.6126598 c 0,0.6662873 0.184468,1.0489597 0.6393469,1.3263027 0.2784341,0.1697633 0.454713,0.1756494 5.2699768,0.1759688 4.9045387,3.27e-4 4.9870587,-0.00257 5.3136367,-0.1861119 z"
       id="path4"
       transform="matrix(0.26458333,0,0,0.26458333,0.40158263,0.14433555)" />
    <path
       style="fill:#f9f9f9;fill-opacity:1;stroke:none;stroke-width:2.26772;stroke-linecap:round;stroke-linejoin:round;stroke-dasharray:none;stroke-opacity:1;paint-order:markers stroke fill"
       d="M 0.88756755,22.157493 C 0.60031655,22.097308 0.30838476,21.865452 0.16100327,21.580447 0.03540423,21.337566 0.02812284,20.305112 0.08707181,11.097457 0.15873111,-0.09551433 0.12227415,0.56312891 0.68930079,0.2173925 0.96507626,0.04924235 1.2021989,0.04484658 10.014369,0.04452458 c 9.769134,-3.5697e-4 9.358881,-0.01984012 9.669124,0.45919068 0.07245,0.11186532 0.154622,0.30282838 0.182606,0.42436235 0.02798,0.12153399 0.06411,4.76230659 0.08027,10.31282739 0.02936,10.080429 0.02919,10.092141 -0.153087,10.341436 -0.417392,0.570869 0.119742,0.539118 -9.761208,0.577012 -4.9342793,0.01892 -9.04930848,0.01809 -9.14450945,-0.0019 z M 17.798496,19.880975 c 0.01784,-0.01596 0.0028,-3.988576 -0.03351,-8.828043 L 17.69903,2.2539028 H 10.034608 2.3701878 l -0.058143,1.6051594 c -0.031978,0.8828377 -0.058142,4.8842702 -0.058142,8.8920718 v 7.286913 l 7.7560772,-0.06403 c 4.265842,-0.03522 7.770674,-0.07709 7.788516,-0.09304 z"
       id="path6"
       transform="matrix(0.26458333,0,0,0.26458333,0.40158263,0.14433555)" />
    <path
       style="fill:#f9f9f9;fill-opacity:1;stroke:none;stroke-width:2.26772;stroke-linecap:round;stroke-linejoin:round;stroke-dasharray:none;stroke-opacity:1;paint-order:markers stroke fill"
       d="M 0.66291258,22.089154 C 0.58999219,22.066688 0.43089318,21.902968 0.3093592,21.725333 L 0.08838834,21.402357 0.11586293,12.601528 C 0.14340702,3.7784337 0.20881518,0.83915924 0.38493604,0.51007442 0.61411206,0.0818551 0.46670167,0.08838834 9.8994945,0.08838834 c 4.8613585,0 8.9828755,0.03067399 9.1589265,0.06816441 0.360628,0.0767967 0.696374,0.32948015 0.696374,0.52409307 0,0.0712694 0.01655,0.14615348 0.03679,0.16640911 0.07985,0.0799396 0.136675,5.17506757 0.138911,12.45539107 0.0018,5.853033 -0.0237,7.749207 -0.108772,8.087533 -0.181028,0.719975 0.353819,0.681883 -10.0106148,0.712976 -4.9585861,0.01488 -9.07527324,0.0087 -9.14819362,-0.0138 z M 13.638181,19.96118 l 4.180627,-0.05858 -0.0092,-4.338642 c -0.0051,-2.386252 -0.03338,-6.3572101 -0.06292,-8.8243498 L 17.692969,2.2539028 H 10.0311 2.3692323 L 2.3137854,3.33666 c -0.030496,0.5955164 -0.05745,4.5928793 -0.059898,8.883029 l -0.00445,7.800271 3.6040584,-8.9e-5 c 1.9822321,-5.6e-5 5.4853402,-0.02646 7.7846862,-0.05868 z"
       id="path7"
       transform="matrix(0.26458333,0,0,0.26458333,0.40158263,0.14433555)" />
    <path
       style="fill:#f9f9f9;fill-opacity:1;stroke:none;stroke-width:2.26772;stroke-linecap:round;stroke-linejoin:round;stroke-dasharray:none;stroke-opacity:1;paint-order:markers stroke fill"
       d="M 0.66291258,22.089047 C 0.58999219,22.06664 0.43089318,21.902801 0.3093592,21.724962 L 0.08838834,21.401617 0.1045594,15.827332 C 0.14294115,2.5968517 0.17400081,0.90421046 0.38565287,0.508735 0.61424701,0.08160296 0.45781752,0.08838834 10.076271,0.08838834 c 8.519068,0 9.031683,0.0087737 9.307421,0.15930101 0.160495,0.0876156 0.305834,0.20693982 0.322976,0.26516503 0.01714,0.0582252 0.05411,0.17674813 0.08216,0.26338424 0.09502,0.29355578 0.133971,3.61789518 0.14002,11.95168238 0.0048,6.59845 -0.01778,8.390369 -0.10965,8.706252 -0.194649,0.66928 0.264867,0.638566 -10.0080888,0.668949 -4.9585861,0.01467 -9.07527324,0.0083 -9.14819362,-0.01407 z m 15.94493042,-2.157121 1.228271,-3.54e-4 -0.05594,-6.960583 c -0.03077,-3.8283197 -0.05647,-7.8057952 -0.05712,-8.8388339 l -0.0012,-1.8782523 H 10.036991 2.3521188 l -0.029275,1.1711455 c -0.016102,0.6441301 -0.039622,4.6478173 -0.052268,8.8970827 l -0.022993,7.725937 6.5659947,-0.05789 c 3.6112965,-0.03184 7.1187155,-0.05805 7.7942655,-0.05825 z"
       id="path8"
       transform="matrix(0.26458333,0,0,0.26458333,0.40158263,0.14433555)" />
    <path
       style="fill:#f9f9f9;fill-opacity:1;stroke:none;stroke-width:2.26772;stroke-linecap:round;stroke-linejoin:round;stroke-dasharray:none;stroke-opacity:1;paint-order:markers stroke fill"
       d="M 0.66449094,22.080562 C 0.49990793,22.010106 0.3936548,21.898108 0.19051378,21.580953 0.03700651,21.341289 0.03209786,20.943172 0.08153411,12.742118 0.13055743,4.6095671 0.18026113,1.5754967 0.27434603,0.97227178 0.34812173,0.4992593 0.40579113,0.39826175 0.69127362,0.24209855 0.95304705,0.09890454 1.592105,0.08838834 10.032077,0.08838834 c 8.561645,0 9.07585,0.0087593 9.351615,0.15930101 0.160495,0.0876156 0.305834,0.20693982 0.322976,0.26516503 0.01714,0.0582252 0.05468,0.17823189 0.08342,0.2666815 0.104982,0.32308852 0.131565,2.49491302 0.138773,11.33770512 0.0058,7.105211 -0.01668,9.097106 -0.105695,9.369165 -0.198797,0.607583 0.145791,0.58624 -10.0120628,0.620144 -4.9585861,0.01655 -9.07456298,0.0049 -9.14661526,-0.02599 z M 17.795498,19.88486 c 0.01619,-0.0148 2.66e-4,-3.987814 -0.03537,-8.82893 L 17.695323,2.2539028 H 10.022749 2.3501732 l -0.028846,1.5688931 c -0.015865,0.8628912 -0.038187,4.86509 -0.049605,8.8937751 l -0.020759,7.324882 7.7575468,-0.06485 c 4.26665,-0.03567 7.770795,-0.07695 7.786987,-0.09175 z"
       id="path9"
       transform="matrix(0.26458333,0,0,0.26458333,0.40158263,0.14433555)" />
    <path
       style="fill:#f9f9f9;fill-opacity:1;stroke:none;stroke-width:2.26772;stroke-linecap:round;stroke-linejoin:round;stroke-dasharray:none;stroke-opacity:1;paint-order:markers stroke fill"
       d="M 0.59213668,22.086006 C 0.52890314,22.058047 0.37974781,21.880849 0.26068039,21.692235 l -0.21648622,-0.342937 0.0048315,-4.75263 C 0.05628405,9.4566556 0.19231205,1.120041 0.30793168,0.72934545 0.37493313,0.50293779 0.49563369,0.34900841 0.68912517,0.24320956 0.95367761,0.09855541 1.5672264,0.08838834 10.032077,0.08838834 c 8.553479,0 9.076071,0.0088812 9.350865,0.15891306 0.160082,0.0874022 0.33042,0.26243914 0.378527,0.38897101 0.14073,0.37014939 0.153894,1.26040629 0.164538,11.12756559 0.008,7.387299 -0.01381,9.449875 -0.102646,9.719089 -0.203908,0.61797 0.215399,0.59181 -10.0122548,0.624667 -5.0071997,0.01609 -9.15573598,0.0064 -9.21896952,-0.02159 z M 17.795498,19.883244 c 0.01619,-0.01391 2.66e-4,-3.986198 -0.03537,-8.827314 L 17.695323,2.2539028 H 10.033092 2.3708602 L 2.3125297,5.1044269 C 2.2804479,6.6722151 2.2541325,10.672562 2.254051,13.994086 l -1.482e-4,6.039136 7.7560772,-0.06234 c 4.265842,-0.03429 7.769326,-0.07373 7.785518,-0.08763 z"
       id="path10"
       transform="matrix(0.26458333,0,0,0.26458333,0.40158263,0.14433555)" />
    <path
       style="fill:#f9f9f9;fill-opacity:1;stroke:none;stroke-width:2.26772;stroke-linecap:round;stroke-linejoin:round;stroke-dasharray:none;stroke-opacity:1;paint-order:markers stroke fill"
       d="M 0.55929808,22.050653 C 0.47800331,22.00267 0.32884798,21.829693 0.22784179,21.666262 0.047592,21.374611 0.04427774,21.279362 0.04871125,16.518188 0.05119565,13.850178 0.08632439,9.2607871 0.12677513,6.3195405 0.20832947,0.38957604 0.20198996,0.45045759 0.76252571,0.21410054 1.0137227,0.10818008 2.48005,0.08838834 10.076271,0.08838834 c 8.439767,0 9.033792,0.0099381 9.300254,0.15559446 0.156552,0.085577 0.327743,0.23613075 0.380423,0.334564 0.152733,0.285385 0.1654,1.103409 0.172431,11.1354072 0.0048,6.855047 -0.02119,9.58414 -0.09326,9.790875 -0.05495,0.157646 -0.185228,0.332999 -0.289496,0.389674 -0.104267,0.05667 -0.766311,0.129008 -1.471208,0.16074 -2.153281,0.09693 -17.35086195,0.09295 -17.51611792,-0.0046 z M 17.793176,19.885162 c 0.01492,-0.01241 -0.0013,-3.984516 -0.03613,-8.826909 L 17.693801,2.2539028 H 10.032368 2.3709347 l -0.05838,3.1156891 c -0.032109,1.713629 -0.058441,5.7131021 -0.058516,8.8877191 l -1.359e-4,5.77203 7.7560772,-0.06081 c 4.265842,-0.03345 7.76828,-0.07096 7.783196,-0.08337 z"
       id="path11"
       transform="matrix(0.26458333,0,0,0.26458333,0.40158263,0.14433555)" />
    <path
       style="fill:#f9f9f9;fill-opacity:1;stroke:none;stroke-width:2.26772;stroke-linecap:round;stroke-linejoin:round;stroke-dasharray:none;stroke-opacity:1;paint-order:markers stroke fill"
       d="M 0.50716175,22.004637 C 0.39781506,21.928048 0.24261388,21.738531 0.16227023,21.583488 0.0279408,21.324265 0.02132327,20.558644 0.07999865,12.065009 0.11509293,6.9848889 0.17540319,2.3181127 0.21402145,1.6943951 0.29992591,0.30696568 0.34778673,0.23468647 1.2503555,0.12932759 1.5835453,0.0904336 5.7341938,0.06531108 10.474019,0.07349979 c 8.043536,0.01389632 8.636833,0.02525796 8.902506,0.17048301 0.362785,0.19831052 0.469053,0.40239667 0.507585,0.9748167 0.01705,0.2533184 0.0357,4.8568587 0.04143,10.2300895 0.0075,7.059095 -0.01728,9.849004 -0.08946,10.05604 -0.05494,0.157591 -0.182068,0.330512 -0.282513,0.384268 -0.348715,0.186627 -2.803172,0.243178 -10.8036935,0.248921 -7.1844199,0.0052 -8.06514852,-0.0091 -8.24271775,-0.133481 z M 17.714045,19.877511 c 0.106398,-0.03389 0.116204,-0.777727 0.06661,-5.053072 -0.03198,-2.757333 -0.0583,-6.7137036 -0.05847,-8.7919345 L 17.721863,2.2539028 H 10.04643 2.3709977 l -0.058422,3.3808541 c -0.032132,1.8594698 -0.058478,5.8589261 -0.058547,8.8876791 l -1.255e-4,5.506826 7.6676888,-0.05601 c 4.217228,-0.0308 7.723833,-0.07389 7.792453,-0.09575 z"
       id="path12"
       transform="matrix(0.26458333,0,0,0.26458333,0.40158263,0.14433555)" />
    <path
       style="fill:#f9f9f9;fill-opacity:1;stroke:none;stroke-width:2.26772;stroke-linecap:round;stroke-linejoin:round;stroke-dasharray:none;stroke-opacity:1;paint-order:markers stroke fill"
       d="M 0.5065306,22.004195 C 0.39753104,21.927849 0.24259373,21.738531 0.16222546,21.583488 0.02784956,21.324255 0.02111501,20.551873 0.07846134,11.976621 0.11275934,6.8478869 0.1740159,2.1801846 0.21458703,1.6039486 0.30526391,0.3160555 0.36312812,0.23359077 1.2503555,0.12783124 2.2541298,0.00817905 19.047546,0.0719229 19.330327,0.19645856 c 0.298789,0.13158523 0.501032,0.43429738 0.552147,0.82644104 0.02172,0.1666091 0.04263,4.7787842 0.04647,10.2492784 0.005,7.18116 -0.02078,10.025992 -0.09288,10.232817 -0.05492,0.157554 -0.182045,0.330446 -0.28249,0.384202 -0.350045,0.187339 -2.812944,0.244084 -10.8043246,0.24893 -7.1732298,0.0043 -8.06600184,-0.01016 -8.2427178,-0.133932 z M 17.71397,19.877414 c 0.106178,-0.03371 0.116074,-0.705154 0.06666,-4.522616 -0.03192,-2.465668 -0.0582,-6.422051 -0.0584,-8.7919635 L 17.721863,2.2539028 H 10.035958 2.350053 L 2.321052,4.7950676 C 2.305101,6.1927083 2.282972,10.191589 2.271877,13.681468 l -0.020174,6.345237 7.6687887,-0.05485 c 4.2178343,-0.03017 7.7249003,-0.07267 7.7934793,-0.09444 z"
       id="path13"
       transform="matrix(0.26458333,0,0,0.26458333,0.40158263,0.14433555)" />
    <path
       style="fill:#f9f9f9;fill-opacity:1;stroke:none;stroke-width:2.26772;stroke-linecap:round;stroke-linejoin:round;stroke-dasharray:none;stroke-opacity:1;paint-order:markers stroke fill"
       d="M 0.50772816,22.005633 C 0.39806994,21.928496 0.24257828,21.738531 0.16219113,21.583488 0.02773311,21.324157 0.02112293,20.548024 0.0796186,11.888232 0.14811002,1.7486554 0.18426341,0.66033631 0.46182384,0.38277589 0.78718818,0.05741158 1.5846277,0.03183063 10.5037,0.06064397 c 9.508279,0.03071678 8.973087,-0.0043611 9.272531,0.60774522 0.14365,0.29364165 0.154208,0.99593941 0.156839,10.43253681 0.002,7.297756 -0.02501,10.19753 -0.09702,10.404117 -0.05492,0.157528 -0.18025,0.329446 -0.278522,0.38204 -0.352716,0.188769 -2.093729,0.229592 -10.4093304,0.244086 -7.5808516,0.01321 -8.46140562,4.42e-4 -8.64046544,-0.125536 z m 17.02958584,-2.129567 0.301587,-0.04627 -0.05852,-4.117883 c -0.03219,-2.264837 -0.05852,-6.2194127 -0.05852,-8.7879486 V 2.2539028 H 10.04652 2.3711757 l -0.05854,4.4415142 c -0.032197,2.4428329 -0.058584,6.441398 -0.058636,8.885701 l -9.6e-5,4.444187 7.4909121,-0.05149 c 4.1200022,-0.02832 7.6266262,-0.07231 7.7924992,-0.09775 z"
       id="path14"
       transform="matrix(0.26458333,0,0,0.26458333,0.40158263,0.14433555)" />
    <path
       style="fill:#f9f9f9;fill-opacity:1;stroke:none;stroke-width:2.26772;stroke-linecap:round;stroke-linejoin:round;stroke-dasharray:none;stroke-opacity:1;paint-order:markers stroke fill"
       d="M 0.50769608,22.005012 C 0.39805551,21.928216 0.24256047,21.738531 0.16215155,21.583488 0.02770924,21.324258 0.0207692,20.544667 0.07584304,11.888232 0.14452375,1.0930857 0.16016685,0.64855131 0.48160203,0.35765647 0.80962362,0.06080104 1.7672639,0.03242064 10.5037,0.06064397 c 9.508279,0.03071678 8.973087,-0.0043611 9.272531,0.60774522 0.14365,0.29364165 0.154208,0.99593941 0.156839,10.43253681 0.002,7.297756 -0.02501,10.19753 -0.09702,10.404117 -0.05492,0.157528 -0.18025,0.329446 -0.278522,0.38204 -0.355981,0.190515 -2.115038,0.231848 -10.4093622,0.244589 -7.5630278,0.01162 -8.46185634,-0.0016 -8.64046572,-0.12666 z M 17.1837,19.875256 l 0.655079,-0.04983 -0.05846,-3.850518 c -0.03215,-2.117785 -0.05846,-6.0713779 -0.05846,-8.7857627 V 2.2539028 H 10.046536 2.3712079 L 2.3126461,6.9605821 C 2.280437,9.5492557 2.2540434,13.547122 2.2539935,15.84473 l -9.07e-5,4.177468 7.1373587,-0.04856 c 3.9255475,-0.02671 7.4321445,-0.07098 7.7924385,-0.09839 z"
       id="path15"
       transform="matrix(0.26458333,0,0,0.26458333,0.40158263,0.14433555)" />
    <path
       style="fill:#f9f9f9;fill-opacity:1;stroke:none;stroke-width:2.26772;stroke-linecap:round;stroke-linejoin:round;stroke-dasharray:none;stroke-opacity:1;paint-order:markers stroke fill"
       d="M 0.50764793,22.004978 C 0.39803384,21.928201 0.24256213,21.738531 0.16215522,21.583488 0.02769599,21.324219 0.0208632,20.545974 0.07703335,11.888232 0.14003892,2.176917 0.16875826,0.95000764 0.34184436,0.57532935 0.57626822,0.06787361 0.16802066,0.08838834 10.032077,0.08838834 c 10.03813,0 9.443089,-0.03541859 9.744154,0.58000085 0.14365,0.29364165 0.154208,0.99593941 0.156839,10.43253681 0.002,7.297756 -0.02501,10.19753 -0.09702,10.404117 -0.05492,0.157528 -0.179025,0.328792 -0.275802,0.380584 -0.360779,0.193084 -2.092991,0.234259 -10.3679367,0.246447 -7.6019929,0.0112 -8.50610897,-0.002 -8.68465937,-0.127096 z M 16.91838,19.875075 l 0.920089,-0.05083 -0.0579,-3.415581 c -0.03185,-1.87857 -0.05808,-5.831898 -0.0583,-8.7851734 L 17.721863,2.2539028 H 10.032077 2.3422911 l -1.944e-4,0.6850096 c -1.061e-4,0.3767553 -0.026541,4.3749383 -0.058742,8.8848516 l -0.058546,8.199841 6.8867411,-0.04885 c 3.7877082,-0.02687 7.3007812,-0.07172 7.8068312,-0.09968 z"
       id="path16"
       transform="matrix(0.26458333,0,0,0.26458333,0.40158263,0.14433555)" />
    <path
       style="fill:#f9f9f9;fill-opacity:1;stroke:none;stroke-width:2.26772;stroke-linecap:round;stroke-linejoin:round;stroke-dasharray:none;stroke-opacity:1;paint-order:markers stroke fill"
       d="M 0.50772816,22.007765 C 0.39806994,21.929456 0.24256352,21.738531 0.16215833,21.583488 0.0276834,21.324183 0.02088648,20.540085 0.07734929,11.799844 0.14072539,1.9894515 0.16510608,0.94832137 0.34019962,0.57532935 0.57846216,0.0677719 0.16812084,0.08838834 10.032077,0.08838834 c 10.03813,0 9.443089,-0.03541859 9.744154,0.58000085 0.143655,0.29365111 0.154208,0.99678441 0.156844,10.44957981 0.0024,8.603349 -0.01632,10.180557 -0.123852,10.437928 -0.119923,0.287016 -0.194781,0.338326 -0.688182,0.471707 -0.113265,0.03062 -4.302735,0.07072 -9.3099348,0.08911 -8.2632358,0.03035 -9.12241226,0.02029 -9.30337804,-0.108946 z m 16.23392984,-2.132789 1.096921,-0.05123 -0.05823,-3.238555 c -0.03203,-1.781204 -0.05829,-5.73442 -0.05836,-8.7849227 L 17.721863,2.2539028 H 10.046577 2.371292 L 2.312597,7.8369425 C 2.280315,10.907614 2.253902,14.905596 2.253902,16.721345 v 3.301363 l 6.695417,-0.04825 c 3.682479,-0.02654 7.189031,-0.07131 7.792338,-0.09948 z"
       id="path17"
       transform="matrix(0.26458333,0,0,0.26458333,0.40158263,0.14433555)" />
    <path
       style="fill:#f9f9f9;fill-opacity:1;stroke:none;stroke-width:2.26772;stroke-linecap:round;stroke-linejoin:round;stroke-dasharray:none;stroke-opacity:1;paint-order:markers stroke fill"
       d="M 0.50772816,22.007991 C 0.39806994,21.929557 0.24256793,21.738531 0.16216814,21.583488 0.02766655,21.324114 0.02094541,20.528279 0.07804843,11.623067 0.11218238,6.2998792 0.17329376,1.6323478 0.2138515,1.2507752 0.30854539,0.3598824 0.42109299,0.23999488 1.2736627,0.1218471 1.6768969,0.06596753 5.0868697,0.04341303 10.502541,0.06080477 c 9.509608,0.03053889 8.974238,-0.004537 9.27369,0.60758442 0.143655,0.29365111 0.154208,0.99678441 0.156844,10.44957981 0.0031,11.186799 0.03137,10.62372 -0.544423,10.851757 -0.238319,0.09439 -2.107247,0.123771 -9.4891575,0.149203 -8.3488119,0.02876 -9.21068452,0.01858 -9.39176634,-0.110938 z m 16.05683084,-2.133055 1.273375,-0.05152 -0.05747,-2.884837 c -0.03161,-1.58666 -0.05772,-5.539802 -0.05803,-8.7847593 L 17.721863,2.2539028 H 10.046588 2.3713127 l -0.058705,5.848212 C 2.28032,11.318631 2.2539028,15.316713 2.2539028,16.98674 v 3.036413 l 6.5186403,-0.04835 c 3.5852519,-0.02659 7.0916589,-0.07153 7.7920159,-0.09986 z"
       id="path18"
       transform="matrix(0.26458333,0,0,0.26458333,0.40158263,0.14433555)" />
    <path
       style="fill:#f9f9f9;fill-opacity:1;stroke:none;stroke-width:2.26772;stroke-linecap:round;stroke-linejoin:round;stroke-dasharray:none;stroke-opacity:1;paint-order:markers stroke fill"
       d="M 0.50772816,22.00774 C 0.39806994,21.929444 0.24258115,21.738531 0.1621975,21.583488 0.02774293,21.324153 0.02097602,20.526955 0.07764982,11.623067 0.11153225,6.2998792 0.17263042,1.6323478 0.21342353,1.2507752 0.30649113,0.38023503 0.42519174,0.24626873 1.2120011,0.12377384 1.5891226,0.06506146 4.8359728,0.04290977 10.442814,0.06079647 c 9.575679,0.03054791 9.03387,-0.0047231 9.333417,0.60759272 0.143655,0.29365111 0.154208,0.99678441 0.156844,10.44957981 0.0031,11.186513 0.03138,10.623222 -0.544423,10.852283 -0.239065,0.0951 -2.084188,0.124066 -9.4891575,0.148951 -8.3412671,0.02803 -9.21084816,0.01771 -9.39176634,-0.111463 z M 12.639533,19.914826 c 1.993157,-0.0086 3.978243,-0.03139 4.411301,-0.05056 l 0.787378,-0.03486 -0.05791,-2.711051 c -0.03185,-1.491078 -0.05803,-5.445565 -0.05817,-8.7877496 L 17.721863,2.2539028 H 10.032077 2.3422911 L 2.3419994,4.1321551 C 2.3418403,5.1651938 2.3154159,9.169009 2.2832825,13.029523 l -0.058424,7.019115 3.395377,-0.05905 c 1.8674563,-0.03248 5.0261405,-0.06612 7.0192975,-0.07476 z"
       id="path19"
       transform="matrix(0.26458333,0,0,0.26458333,0.40158263,0.14433555)" />
    <path
       style="fill:none;fill-opacity:1;stroke:#ffffff;stroke-width:0.3;stroke-linecap:round;stroke-linejoin:round;stroke-dasharray:none;stroke-opacity:1;paint-order:markers stroke fill"
       d="M 0.93946257,3.8159505 V 0.51851286 l 0.046772,0.16370257 H 4.9852548 L 5.0086408,5.359432 0.91607632,5.382819 Z"
       id="path34" />
  </g>
</svg>
