<?xml version="1.0" encoding="UTF-8" standalone="no"?>
<!-- Generator: Adobe Illustrator 27.1.1, SVG Export Plug-In . SVG Version: 6.00 Build 0)  -->

<svg
   version="1.1"
   id="Layer_1"
   x="0px"
   y="0px"
   width="256px"
   height="256px"
   viewBox="0 0 256 256"
   enable-background="new 0 0 256 256"
   xml:space="preserve"
   sodipodi:docname="Chão de grama.svg"
   inkscape:version="1.4 (86a8ad7, 2024-10-11)"
   xmlns:inkscape="http://www.inkscape.org/namespaces/inkscape"
   xmlns:sodipodi="http://sodipodi.sourceforge.net/DTD/sodipodi-0.dtd"
   xmlns="http://www.w3.org/2000/svg"
   xmlns:svg="http://www.w3.org/2000/svg"><defs
   id="defs9" /><sodipodi:namedview
   id="namedview9"
   pagecolor="#ffffff"
   bordercolor="#000000"
   borderopacity="0.25"
   inkscape:showpageshadow="2"
   inkscape:pageopacity="0.0"
   inkscape:pagecheckerboard="0"
   inkscape:deskcolor="#d1d1d1"
   inkscape:zoom="1"
   inkscape:cx="121.5"
   inkscape:cy="127.5"
   inkscape:window-width="1280"
   inkscape:window-height="657"
   inkscape:window-x="-8"
   inkscape:window-y="-8"
   inkscape:window-maximized="1"
   inkscape:current-layer="Layer_1"
   showguides="false" />









<g
   inkscape:groupmode="layer"
   id="layer1"
   inkscape:label="Layer 2" /><path
   style="fill:none;fill-opacity:1;stroke:none;stroke-width:2.386;stroke-linejoin:round;stroke-dasharray:none;stroke-opacity:1"
   d="m 211.09584,2.7775769 -9.72152,6.0180831 -5.09222,10.184448 5.09222,8.795661 5.55516,13.887884 1.38878,32.405063 -10.64737,10.184449 17.59132,11.573236 -6.48102,6.943939 -11.1103,6.48102 16.66546,10.18444 5.09222,3.24051 -25.46112,12.4991 20.3689,23.14647 1.38879,23.14647 0.92585,26.84991 -17.12839,13.42496 7.40688,36.57143"
   id="path13" /><path
   style="fill:none;fill-opacity:1;stroke:none;stroke-width:2.386;stroke-linejoin:round;stroke-dasharray:none;stroke-opacity:1"
   d="M 206.46655,3.7034358 196.2821,7.4068716 193.04159,15.739602 V 26.84991 l 9.72152,7.869801 0.92586,11.573237 v 18.980108 l -0.92586,14.350814 -11.57324,5.555154 14.35082,3.703435 6.48101,9.25859 -16.20253,10.647381 14.35081,7.40687 1.38879,7.40687 -17.59132,13.42495 17.12839,19.90597 0.92586,48.14467 -15.7396,20.36889 7.8698,29.16456"
   id="path14" /><rect
   style="fill:#1ea761;fill-opacity:1;stroke:none;stroke-width:5.4393;stroke-linejoin:round;stroke-dasharray:none;stroke-opacity:1"
   id="rect19"
   width="255.34143"
   height="257.62534"
   x="0.91356504"
   y="-0.45678252" /><path
   sodipodi:type="star"
   style="fill:#1c9e5b;fill-opacity:1;stroke:#1c9e5b;stroke-width:7.86633;stroke-linecap:round;stroke-linejoin:round;stroke-dasharray:none;stroke-opacity:1"
   id="path19"
   inkscape:flatsided="true"
   sodipodi:sides="3"
   sodipodi:cx="22.382343"
   sodipodi:cy="23.752691"
   sodipodi:r1="28.806288"
   sodipodi:r2="14.403143"
   sodipodi:arg1="-0.25651661"
   sodipodi:arg2="0.79068094"
   inkscape:rounded="0"
   inkscape:randomized="0"
   d="M 50.246079,16.444171 14.77984,51.537654 2.1211111,3.276249 Z"
   inkscape:transform-center-x="-2.9437035"
   inkscape:transform-center-y="2.4863369"
   transform="matrix(0.77440381,0,0,0.68039399,50.764332,28.567618)" /><path
   sodipodi:type="star"
   style="fill:#1c9e5b;fill-opacity:1;stroke:#1c9e5b;stroke-width:7.31527;stroke-linecap:round;stroke-linejoin:round;stroke-dasharray:none;stroke-opacity:1"
   id="path19-1"
   inkscape:flatsided="true"
   sodipodi:sides="3"
   sodipodi:cx="22.382343"
   sodipodi:cy="23.752691"
   sodipodi:r1="28.806288"
   sodipodi:r2="14.403143"
   sodipodi:arg1="-0.25651661"
   sodipodi:arg2="0.79068094"
   inkscape:rounded="0"
   inkscape:randomized="0"
   d="M 50.246079,16.444171 14.77984,51.537654 2.1211111,3.276249 Z"
   inkscape:transform-center-x="-2.6381255"
   inkscape:transform-center-y="-2.211862"
   transform="matrix(0.77414788,-0.01990782,0.02192582,-0.68118277,199.38266,203.25167)" /><path
   sodipodi:type="star"
   style="fill:#1fad64;fill-opacity:1;stroke:#1fad64;stroke-width:5.386;stroke-linecap:round;stroke-linejoin:round;stroke-dasharray:none;stroke-opacity:1"
   id="path20"
   inkscape:flatsided="true"
   sodipodi:sides="6"
   sodipodi:cx="116"
   sodipodi:cy="97"
   sodipodi:r1="18.973665"
   sodipodi:r2="16.431677"
   sodipodi:arg1="-1.2490458"
   sodipodi:arg2="-0.725447"
   inkscape:rounded="0"
   inkscape:randomized="0"
   d="m 122,79.000001 12.58846,14.196151 -6,17.999998 L 110,115 97.411544,100.80385 103.41154,82.803848 Z"
   transform="translate(-83,55)" /><path
   sodipodi:type="star"
   style="fill:#1fad64;fill-opacity:1;stroke:#1fad64;stroke-width:5.386;stroke-linecap:round;stroke-linejoin:round;stroke-dasharray:none;stroke-opacity:1"
   id="path21"
   inkscape:flatsided="true"
   sodipodi:sides="6"
   sodipodi:cx="135"
   sodipodi:cy="61"
   sodipodi:r1="25.317978"
   sodipodi:r2="21.926012"
   sodipodi:arg1="1.4121411"
   sodipodi:arg2="1.9357398"
   inkscape:rounded="0"
   inkscape:randomized="0"
   d="m 139,86 -23.65064,-9.035899 -3.99999,-25 L 131,36 l 23.65064,9.035899 3.99999,25 z"
   transform="translate(3,70)" /><path
   sodipodi:type="star"
   style="fill:#1fad64;fill-opacity:1;stroke:#1fad64;stroke-width:5.31;stroke-linecap:round;stroke-linejoin:round;stroke-dasharray:none;stroke-opacity:1"
   id="path22"
   inkscape:flatsided="true"
   sodipodi:sides="8"
   sodipodi:cx="101"
   sodipodi:cy="89"
   sodipodi:r1="9.8488579"
   sodipodi:r2="9.0991583"
   sodipodi:arg1="0.41822433"
   sodipodi:arg2="0.81092341"
   inkscape:rounded="0"
   inkscape:randomized="0"
   d="M 110,93 104.53553,98.192388 97,98 91.807612,92.535534 92,85 97.464466,79.807612 105,80 l 5.19239,5.464466 z"
   transform="translate(83,-52)" /><path
   sodipodi:type="star"
   style="fill:#1c9e5b;fill-opacity:1;stroke:#1c9e5b;stroke-width:5.31;stroke-linecap:round;stroke-linejoin:round;stroke-dasharray:none;stroke-opacity:1"
   id="path23"
   inkscape:flatsided="true"
   sodipodi:sides="8"
   sodipodi:cx="121"
   sodipodi:cy="225"
   sodipodi:r1="15.811388"
   sodipodi:r2="14.607818"
   sodipodi:arg1="0.60554466"
   sodipodi:arg2="0.99824375"
   inkscape:rounded="0"
   inkscape:randomized="0"
   d="M 134,234 123.82843,240.55635 112,238 105.44365,227.82843 108,216 118.17157,209.44365 130,212 l 6.55635,10.17157 z"
   transform="translate(10,-1)" /><path
   sodipodi:type="star"
   style="fill:#1c9e5b;fill-opacity:1;stroke:#1c9e5b;stroke-width:5.31;stroke-linecap:round;stroke-linejoin:round;stroke-dasharray:none;stroke-opacity:1"
   id="path24"
   inkscape:flatsided="false"
   sodipodi:sides="9"
   sodipodi:cx="149"
   sodipodi:cy="52"
   sodipodi:r1="4.1231055"
   sodipodi:r2="3.809253"
   sodipodi:arg1="0.24497866"
   sodipodi:arg2="0.59404451"
   inkscape:rounded="0"
   inkscape:randomized="0"
   d="m 153,53 -0.84333,1.132104 -0.73528,1.205091 -1.37373,0.325157 -1.33788,0.450527 -1.26134,-0.633934 -1.31447,-0.514843 -0.55876,-1.296401 -0.676,-1.239313 0.40527,-1.352268 0.27877,-1.383893 1.17968,-0.775393 1.1031,-0.880936 1.40209,0.164297 1.41128,0.03422 0.96846,1.02711 1.05911,0.933367 0.0817,1.409327 z"
   inkscape:transform-center-x="0.050395313"
   inkscape:transform-center-y="0.074388787"
   transform="translate(67,25)" /><path
   sodipodi:type="star"
   style="fill:#1c9e5b;fill-opacity:1;stroke:#1c9e5b;stroke-width:5.31;stroke-linecap:round;stroke-linejoin:round;stroke-dasharray:none;stroke-opacity:1"
   id="path24-5"
   inkscape:flatsided="false"
   sodipodi:sides="9"
   sodipodi:cx="149"
   sodipodi:cy="52"
   sodipodi:r1="4.1231055"
   sodipodi:r2="3.809253"
   sodipodi:arg1="0.24497866"
   sodipodi:arg2="0.59404451"
   inkscape:rounded="0"
   inkscape:randomized="0"
   d="m 153,53 -0.84333,1.132104 -0.73528,1.205091 -1.37373,0.325157 -1.33788,0.450527 -1.26134,-0.633934 -1.31447,-0.514843 -0.55876,-1.296401 -0.676,-1.239313 0.40527,-1.352268 0.27877,-1.383893 1.17968,-0.775393 1.1031,-0.880936 1.40209,0.164297 1.41128,0.03422 0.96846,1.02711 1.05911,0.933367 0.0817,1.409327 z"
   inkscape:transform-center-x="0.050395313"
   inkscape:transform-center-y="0.074388787"
   transform="translate(-50.24423,49.61909)" /></svg>
