<?xml version='1.0' encoding='utf-8'?>
<svg xmlns:ns0="http://sodipodi.sourceforge.net/DTD/sodipodi-0.dtd" xmlns:ns1="http://www.inkscape.org/namespaces/inkscape" version="1.1" xmlns="http://www.w3.org/2000/svg" width="1024.0" height="1536.0" viewBox="0 0 1024.0 1536.0"><g transform="translate(0,0)"><defs id="defs9" />









<g id="layer1"><path style="fill:#69462e;fill-opacity:1;stroke:none;stroke-width:3.53551;stroke-linejoin:round;stroke-dasharray:none;stroke-opacity:0.31954" d="m 229.69343,257.27487 -10.81507,-34.69042 18.33858,-16.8764 -0.47023,-46.41016 -22.10033,-24.37704 23.04078,-14.53247 -23.04078,-11.71973 22.10033,-12.18853 -21.6301,-11.250944 12.22572,-14.53247 -0.47022,-33.284044 -14.10659,-17.813995 10.81504,-17.3452049 6.11287,-4.219104 L -0.71422871,-0.55927392 -1.1844484,256.33729 Z" id="path15" /></g><path style="fill:none;fill-opacity:1;stroke:#4f3422;stroke-width:3.786;stroke-linejoin:round;stroke-dasharray:none;stroke-opacity:1" d="m 229.15063,-0.92641855 -7.12531,6.55302915 -8.61429,15.8222204 13.42435,16.320189 0.46291,33.57296 -12.49854,14.455025 21.2938,11.190986 -22.21961,12.123569 23.14543,11.19098 -23.14543,14.92133 21.7567,24.71342 v 45.69653 l -17.12762,16.78648 10.18467,34.96847" id="path12" /><path style="fill:none;fill-opacity:1;stroke:#000000;stroke-width:5.386;stroke-linejoin:round;stroke-dasharray:none;stroke-opacity:0.31954" d="m 233.95066,-2.312512 -8.05117,7.9418175 -8.61429,15.8222195 13.42435,16.320189 0.46291,33.57296 -12.49854,14.455025 21.2938,11.190986 -22.21961,12.123575 23.14543,11.19098 -23.14543,14.92133 21.7567,24.71342 v 45.69653 l -17.12762,16.78648 6.396,28.04281 2.86281,6.92566" id="path12-2" /><path style="fill:none;fill-opacity:1;stroke:none;stroke-width:2.386;stroke-linejoin:round;stroke-dasharray:none;stroke-opacity:1" d="m 211.09584,2.7775769 -9.72152,6.0180831 -5.09222,10.184448 5.09222,8.795661 5.55516,13.887884 1.38878,32.405063 -10.64737,10.184449 17.59132,11.573236 -6.48102,6.943939 -11.1103,6.48102 16.66546,10.18444 5.09222,3.24051 -25.46112,12.4991 20.3689,23.14647 1.38879,23.14647 0.92585,26.84991 -17.12839,13.42496 7.40688,36.57143" id="path13" /><path style="fill:none;fill-opacity:1;stroke:none;stroke-width:2.386;stroke-linejoin:round;stroke-dasharray:none;stroke-opacity:1" d="M 206.46655,3.7034358 196.2821,7.4068716 193.04159,15.739602 V 26.84991 l 9.72152,7.869801 0.92586,11.573237 v 18.980108 l -0.92586,14.350814 -11.57324,5.555154 14.35082,3.703435 6.48101,9.25859 -16.20253,10.647381 14.35081,7.40687 1.38879,7.40687 -17.59132,13.42495 17.12839,19.90597 0.92586,48.14467 -15.7396,20.36889 7.8698,29.16456" id="path14" /><ellipse style="fill:#4f3422;fill-opacity:1;stroke:#4f3422;stroke-width:5.386;stroke-linejoin:round;stroke-dasharray:none;stroke-opacity:1" id="path16" cx="124.75928" cy="212.63194" rx="20.368896" ry="17.822784" /><ellipse style="fill:#4f3422;fill-opacity:1;stroke:#4f3422;stroke-width:5.386;stroke-linejoin:round;stroke-dasharray:none;stroke-opacity:1" id="path16-4" cx="47.310444" cy="31.764931" rx="20.368896" ry="17.822784" /><ellipse style="fill:#4f3422;fill-opacity:1;stroke:#4f3422;stroke-width:2.16666;stroke-linejoin:round;stroke-dasharray:none;stroke-opacity:1" id="path16-4-5" cx="128.70293" cy="92.934731" rx="8.2750931" ry="7.0993285" /><ellipse style="fill:#4f3422;fill-opacity:1;stroke:#4f3422;stroke-width:2.16666;stroke-linejoin:round;stroke-dasharray:none;stroke-opacity:1" id="path16-4-5-5" cx="61.273224" cy="153.28047" rx="8.2750931" ry="7.0993285" /><ellipse style="fill:#4f3422;fill-opacity:1;stroke:#4f3422;stroke-width:2.16666;stroke-linejoin:round;stroke-dasharray:none;stroke-opacity:1" id="path16-4-5-5-1" cx="200.49408" cy="168.66467" rx="8.2750931" ry="7.0993285" /><path style="fill:#4f3422;fill-opacity:1;stroke:none;stroke-width:5.386;stroke-linejoin:round;stroke-dasharray:none;stroke-opacity:1" id="path17" d="M 49.789294,84.047989 37.68895,91.302922 25.355822,84.451184 25.123037,70.344513 37.22338,63.089579 49.556509,69.941317 Z" transform="matrix(0.98148148,0,0,0.90285819,-0.44832364,31.708458)" /><path style="fill:#4f3422;fill-opacity:1;stroke:none;stroke-width:5.386;stroke-linejoin:round;stroke-dasharray:none;stroke-opacity:1" id="path18" d="m 150.28145,42.023992 -17.12056,2.246723 -10.50599,-13.703475 6.61455,-15.950199 17.12056,-2.246723 10.506,13.703475 z" /><path style="fill:#4f3422;fill-opacity:1;stroke:none;stroke-width:5.386;stroke-linejoin:round;stroke-dasharray:none;stroke-opacity:1" id="path19" d="m 140.68902,132.46694 -1.08515,14.66945 -13.24669,6.39495 -12.16154,-8.27449 1.08515,-14.66945 13.24669,-6.39496 z" /></g><g transform="translate(512.0,0.0)"><defs id="defs9" />









<g id="layer1" transform="matrix(-0.99152286,0,0,1.0130185,253.88656,-0.64939323)" style="fill:#69462e;fill-opacity:1"><path style="fill:#69462e;fill-opacity:1;stroke:none;stroke-width:3.53551;stroke-linejoin:round;stroke-dasharray:none;stroke-opacity:0.31954" d="m 229.69343,257.27487 -10.81507,-34.69042 18.33858,-16.8764 -0.47023,-46.41016 -22.10033,-24.37704 23.04078,-14.53247 -23.04078,-11.71973 22.10033,-12.18853 -21.6301,-11.250944 12.22572,-14.53247 -0.47022,-33.284044 -14.10659,-17.813995 10.81504,-17.3452049 6.11287,-4.219104 L -0.71422871,-0.55927392 -1.1844484,256.33729 Z" id="path15" /></g><path style="fill:none;fill-opacity:1;stroke:#4f3422;stroke-width:3.786;stroke-linejoin:round;stroke-dasharray:none;stroke-opacity:1" d="m 26.75084,-1.6014014 7.12531,6.5530291 8.61429,15.8222203 -13.42435,16.320189 -0.46291,33.57296 12.49854,14.455025 -21.2938,11.190986 22.21961,12.123572 -23.14543,11.19098 23.14543,14.92133 -21.7567,24.71342 v 45.69653 l 17.12762,16.78648 -10.18467,34.96847" id="path12" /><path style="fill:none;fill-opacity:1;stroke:#000000;stroke-width:5.43741;stroke-linejoin:round;stroke-dasharray:none;stroke-opacity:0.31954" d="M 21.958185,-4.995038 29.997141,3.1114057 38.598363,19.261604 25.194379,35.920095 24.73217,70.18899 37.21175,84.943654 15.950253,96.366619 38.136155,108.74151 15.025838,120.16446 38.136155,135.3951 16.412461,160.6208 v 46.64378 l 17.101636,17.13445 -6.386297,28.62411 -2.858467,7.06922" id="path12-2" /><path style="fill:none;fill-opacity:1;stroke:none;stroke-width:2.386;stroke-linejoin:round;stroke-dasharray:none;stroke-opacity:1" d="m 44.80563,2.102594 9.72152,6.0180831 5.09222,10.1844479 -5.09222,8.795661 -5.55516,13.887884 -1.38878,32.405063 10.64737,10.184449 -17.59132,11.573236 6.48102,6.943942 11.1103,6.48102 -16.66546,10.18444 -5.09222,3.24051 25.46112,12.4991 -20.3689,23.14647 -1.38879,23.14647 -0.92585,26.84991 17.12839,13.42496 -7.40688,36.57143" id="path13" /><path style="fill:none;fill-opacity:1;stroke:none;stroke-width:2.386;stroke-linejoin:round;stroke-dasharray:none;stroke-opacity:1" d="m 49.43492,3.0284529 10.18445,3.7034358 3.24051,8.3327303 v 11.110308 l -9.72152,7.869801 -0.92586,11.573237 v 18.980108 l 0.92586,14.350814 11.57324,5.555154 -14.35082,3.703435 -6.48101,9.25859 16.20253,10.647384 -14.35081,7.40687 -1.38879,7.40687 17.59132,13.42495 -17.12839,19.90597 -0.92586,48.14467 15.7396,20.36889 -7.8698,29.16456" id="path14" /><ellipse style="fill:#4f3422;fill-opacity:1;stroke:#4f3422;stroke-width:5.386;stroke-linejoin:round;stroke-dasharray:none;stroke-opacity:1" id="path16" cx="-131.1422" cy="211.95695" rx="20.368896" ry="17.822784" transform="scale(-1,1)" /><ellipse style="fill:#4f3422;fill-opacity:1;stroke:#4f3422;stroke-width:5.386;stroke-linejoin:round;stroke-dasharray:none;stroke-opacity:1" id="path16-4" cx="-208.59103" cy="31.089949" rx="20.368896" ry="17.822784" transform="scale(-1,1)" /><ellipse style="fill:#4f3422;fill-opacity:1;stroke:#4f3422;stroke-width:2.16666;stroke-linejoin:round;stroke-dasharray:none;stroke-opacity:1" id="path16-4-5" cx="-127.19854" cy="92.25975" rx="8.2750931" ry="7.0993285" transform="scale(-1,1)" /><ellipse style="fill:#4f3422;fill-opacity:1;stroke:#4f3422;stroke-width:2.16666;stroke-linejoin:round;stroke-dasharray:none;stroke-opacity:1" id="path16-4-5-5" cx="-194.62825" cy="152.60548" rx="8.2750931" ry="7.0993285" transform="scale(-1,1)" /><ellipse style="fill:#4f3422;fill-opacity:1;stroke:#4f3422;stroke-width:2.16666;stroke-linejoin:round;stroke-dasharray:none;stroke-opacity:1" id="path16-4-5-5-1" cx="-55.407391" cy="167.98969" rx="8.2750931" ry="7.0993285" transform="scale(-1,1)" /><path style="fill:#4f3422;fill-opacity:1;stroke:none;stroke-width:5.07011;stroke-linejoin:round;stroke-dasharray:none;stroke-opacity:1" id="path17" d="m 207.48253,106.91689 11.87626,6.55018 12.10474,-6.18615 0.22847,-12.736325 -11.87626,-6.550177 -12.10474,6.186148 z" /><path style="fill:#4f3422;fill-opacity:1;stroke:none;stroke-width:5.386;stroke-linejoin:round;stroke-dasharray:none;stroke-opacity:1" id="path18" d="m 105.62002,41.349009 17.12056,2.246723 10.50599,-13.703475 -6.61455,-15.950199 -17.12056,-2.246723 -10.506,13.703475 z" /><path style="fill:#4f3422;fill-opacity:1;stroke:none;stroke-width:5.386;stroke-linejoin:round;stroke-dasharray:none;stroke-opacity:1" id="path19" d="m 115.21245,131.79196 1.08515,14.66945 13.24669,6.39495 12.16154,-8.27449 -1.08515,-14.66945 -13.24669,-6.39496 z" /><rect style="fill:#69462e;stroke-width:5.31;stroke-linecap:round;stroke-linejoin:round;fill-opacity:1" id="rect1" width="82.347908" height="270.66812" x="237.59398" y="-4.0498972" /></g><g transform="translate(0.0,256.0)"><ns0:namedview id="namedview1" pagecolor="#ffffff" bordercolor="#000000" borderopacity="0.25" ns1:showpageshadow="2" ns1:pageopacity="0.0" ns1:pagecheckerboard="0" ns1:deskcolor="#d1d1d1" ns1:zoom="1.5882281" ns1:cx="139.46359" ns1:cy="85.3152" ns1:window-width="1280" ns1:window-height="705" ns1:window-x="-8" ns1:window-y="-8" ns1:window-maximized="1" ns1:current-layer="Layer_1" /><defs id="defs9" />









<g id="layer1" transform="matrix(0,-0.99152286,-1.0171739,0,257.37467,254.04355)" style="fill:#69462e;fill-opacity:1"><path style="fill:#69462e;fill-opacity:1;stroke:none;stroke-width:3.53551;stroke-linejoin:round;stroke-dasharray:none;stroke-opacity:0.31954" d="m 229.69343,257.27487 -10.81507,-34.69042 18.33858,-16.8764 -0.47023,-46.41016 -22.10033,-24.37704 23.04078,-14.53247 -23.04078,-11.71973 22.10033,-12.18853 -21.6301,-11.250944 12.22572,-14.53247 -0.47022,-33.284044 -14.10659,-17.813995 10.81504,-17.3452049 6.11287,-4.219104 L -0.71422871,-0.55927392 -1.1844484,256.33729 Z" id="path15" /></g><path style="fill:none;fill-opacity:1;stroke:#4f3422;stroke-width:3.786;stroke-linejoin:round;stroke-dasharray:none;stroke-opacity:1" d="m 258.33485,26.907833 -6.55303,7.12531 -15.82222,8.61429 -16.32019,-13.42435 -33.57296,-0.46291 -14.45502,12.49854 -11.19099,-21.2938 -12.12357,22.21961 -11.19098,-23.14543 -14.92133,23.14543 -24.713424,-21.7567 H 51.774605 L 34.988125,37.555443 0.01965419,27.370773" id="path12" /><path style="fill:none;fill-opacity:1;stroke:#000000;stroke-width:5.51518;stroke-linejoin:round;stroke-dasharray:none;stroke-opacity:0.31954" d="m 260.93351,21.508109 -8.07087,8.307004 -16.07935,8.888018 L 220.19787,24.852209 186.0793,24.37459 171.38936,37.270282 160.01651,15.299851 147.6959,38.225511 136.32305,14.344614 121.15922,38.225511 96.04417,15.777472 H 49.605002 L 32.545717,33.449338 4.0471689,26.850099 -2.9910439,23.89632" id="path12-2" /><path style="fill:none;fill-opacity:1;stroke:none;stroke-width:2.386;stroke-linejoin:round;stroke-dasharray:none;stroke-opacity:1" d="m 254.63085,44.962623 -6.01808,9.72152 -10.18445,5.09222 -8.79566,-5.09222 -13.88788,-5.55516 -32.40506,-1.38878 -10.18445,10.64737 -11.57324,-17.59132 -6.94394,6.48102 -6.48102,11.1103 -10.18444,-16.66546 -3.24051,-5.09222 -12.4991,25.46112 -23.146474,-20.3689 -23.146471,-1.38879 -26.84991,-0.92585 -13.42496,17.12839 -36.57143081,-7.40688" id="path13" /><path style="fill:none;fill-opacity:1;stroke:none;stroke-width:2.386;stroke-linejoin:round;stroke-dasharray:none;stroke-opacity:1" d="m 253.705,49.591913 -3.70344,10.18445 -8.33273,3.24051 h -11.11031 l -7.8698,-9.72152 -11.57324,-0.92586 h -18.9801 l -14.35082,0.92586 -5.55515,11.57324 -3.70344,-14.35082 -9.25859,-6.48101 -10.64738,16.20253 -7.40687,-14.35081 -7.40687,-1.38879 -13.42495,17.59132 -19.90597,-17.12839 -48.144675,-0.92586 -20.36889,15.7396 -29.1645608,-7.8698" id="path14" /><ellipse style="fill:#4f3422;fill-opacity:1;stroke:#4f3422;stroke-width:5.386;stroke-linejoin:round;stroke-dasharray:none;stroke-opacity:1" id="path16" cx="-131.29918" cy="-44.776489" rx="20.368896" ry="17.822784" transform="matrix(0,-1,-1,0,0,0)" /><ellipse style="fill:#4f3422;fill-opacity:1;stroke:#4f3422;stroke-width:5.386;stroke-linejoin:round;stroke-dasharray:none;stroke-opacity:1" id="path16-4" cx="-208.74802" cy="-225.64351" rx="20.368896" ry="17.822784" transform="matrix(0,-1,-1,0,0,0)" /><ellipse style="fill:#4f3422;fill-opacity:1;stroke:#4f3422;stroke-width:2.16666;stroke-linejoin:round;stroke-dasharray:none;stroke-opacity:1" id="path16-4-5" cx="-127.35553" cy="-164.47369" rx="8.2750931" ry="7.0993285" transform="matrix(0,-1,-1,0,0,0)" /><ellipse style="fill:#4f3422;fill-opacity:1;stroke:#4f3422;stroke-width:2.16666;stroke-linejoin:round;stroke-dasharray:none;stroke-opacity:1" id="path16-4-5-5" cx="-194.78523" cy="-104.12796" rx="8.2750931" ry="7.0993285" transform="matrix(0,-1,-1,0,0,0)" /><ellipse style="fill:#4f3422;fill-opacity:1;stroke:#4f3422;stroke-width:2.16666;stroke-linejoin:round;stroke-dasharray:none;stroke-opacity:1" id="path16-4-5-5-1" cx="-55.564384" cy="-88.743759" rx="8.2750931" ry="7.0993285" transform="matrix(0,-1,-1,0,0,0)" /><path style="fill:#4f3422;fill-opacity:1;stroke:none;stroke-width:5.07011;stroke-linejoin:round;stroke-dasharray:none;stroke-opacity:1" id="path17" d="m 149.81656,207.63952 -6.55018,11.87626 6.18615,12.10474 12.73632,0.22847 6.55018,-11.87626 -6.18615,-12.10474 z" /><path style="fill:#4f3422;fill-opacity:1;stroke:none;stroke-width:5.386;stroke-linejoin:round;stroke-dasharray:none;stroke-opacity:1" id="path18" d="m 215.38444,105.77701 -2.24672,17.12056 13.70347,10.50599 15.9502,-6.61455 2.24672,-17.12056 -13.70347,-10.505997 z" /><path style="fill:#4f3422;fill-opacity:1;stroke:none;stroke-width:5.386;stroke-linejoin:round;stroke-dasharray:none;stroke-opacity:1" id="path19" d="m 124.94149,115.36944 -14.66945,1.08515 -6.39495,13.24669 8.27449,12.16154 14.66945,-1.08515 6.39496,-13.24669 z" /><rect style="fill:#69462e;fill-opacity:1;stroke-width:5.31;stroke-linecap:round;stroke-linejoin:round" id="rect1" width="319.94189" height="72.898148" x="-23.624401" y="240.96889" /></g><g transform="translate(512.0,256.0)"><ns0:namedview id="namedview1" pagecolor="#ffffff" bordercolor="#000000" borderopacity="0.25" ns1:showpageshadow="2" ns1:pageopacity="0.0" ns1:pagecheckerboard="0" ns1:deskcolor="#d1d1d1" ns1:zoom="2.2460938" ns1:cx="128" ns1:cy="199.23478" ns1:window-width="1280" ns1:window-height="705" ns1:window-x="-8" ns1:window-y="-8" ns1:window-maximized="1" ns1:current-layer="Layer_1" /><defs id="defs9" />









<g id="layer1" transform="matrix(0,0.99152286,-1.0182259,0,258.04758,2.171901)" style="fill:#69462e;fill-opacity:1"><path style="fill:#69462e;fill-opacity:1;stroke:none;stroke-width:3.53551;stroke-linejoin:round;stroke-dasharray:none;stroke-opacity:0.31954" d="m 229.69343,257.27487 -10.81507,-34.69042 18.33858,-16.8764 -0.47023,-46.41016 -22.10033,-24.37704 23.04078,-14.53247 -23.04078,-11.71973 22.10033,-12.18853 -21.6301,-11.250944 12.22572,-14.53247 -0.47022,-33.284044 -14.10659,-17.813995 10.81504,-17.3452049 6.11287,-4.219104 L -0.71422871,-0.55927392 -1.1844484,256.33729 Z" id="path15" /></g><path style="fill:none;fill-opacity:1;stroke:#4f3422;stroke-width:3.786;stroke-linejoin:round;stroke-dasharray:none;stroke-opacity:1" d="m 258.33485,229.30762 -6.55303,-7.12531 -15.82222,-8.61429 -16.32019,13.42435 -33.57296,0.46291 -14.45502,-12.49854 -11.19099,21.2938 -12.12357,-22.21961 -11.19098,23.14543 -14.92133,-23.14543 -24.713424,21.7567 H 51.774605 L 34.988125,218.66001 0.01965419,228.84468" id="path12" /><path style="fill:none;fill-opacity:1;stroke:#000000;stroke-width:5.41574;stroke-linejoin:round;stroke-dasharray:none;stroke-opacity:0.31954" d="m 260.60128,234.10338 -8.03682,-8.04409 -16.01151,-8.60673 -16.51543,13.41256 -33.97461,0.4625 -14.62796,-12.48756 -11.32486,21.27509 -12.26862,-22.20009 -11.32486,23.1251 -15.09985,-23.1251 -25.009079,21.73759 H 50.164463 l -16.987304,-17.11257 -28.3783,6.39038 -7.0085151,2.86029" id="path12-2" /><path style="fill:none;fill-opacity:1;stroke:none;stroke-width:2.386;stroke-linejoin:round;stroke-dasharray:none;stroke-opacity:1" d="m 254.63085,211.25283 -6.01808,-9.72152 -10.18445,-5.09222 -8.79566,5.09222 -13.88788,5.55516 -32.40506,1.38878 -10.18445,-10.64737 -11.57324,17.59132 -6.94394,-6.48102 -6.48102,-11.1103 -10.18444,16.66546 -3.24051,5.09222 -12.4991,-25.46112 -23.146474,20.3689 -23.146471,1.38879 -26.84991,0.92585 -13.42496,-17.12839 -36.57143081,7.40688" id="path13" /><path style="fill:none;fill-opacity:1;stroke:none;stroke-width:2.386;stroke-linejoin:round;stroke-dasharray:none;stroke-opacity:1" d="m 253.705,206.62354 -3.70344,-10.18445 -8.33273,-3.24051 h -11.11031 l -7.8698,9.72152 -11.57324,0.92586 h -18.9801 l -14.35082,-0.92586 -5.55515,-11.57324 -3.70344,14.35082 -9.25859,6.48101 -10.64738,-16.20253 -7.40687,14.35081 -7.40687,1.38879 -13.42495,-17.59132 -19.90597,17.12839 -48.144675,0.92586 -20.36889,-15.7396 -29.1645608,7.8698" id="path14" /><ellipse style="fill:#4f3422;fill-opacity:1;stroke:#4f3422;stroke-width:5.386;stroke-linejoin:round;stroke-dasharray:none;stroke-opacity:1" id="path16" cx="124.91627" cy="-44.776489" rx="20.368896" ry="17.822784" transform="rotate(90)" /><ellipse style="fill:#4f3422;fill-opacity:1;stroke:#4f3422;stroke-width:5.386;stroke-linejoin:round;stroke-dasharray:none;stroke-opacity:1" id="path16-4" cx="47.467434" cy="-225.64351" rx="20.368896" ry="17.822784" transform="rotate(90)" /><ellipse style="fill:#4f3422;fill-opacity:1;stroke:#4f3422;stroke-width:2.16666;stroke-linejoin:round;stroke-dasharray:none;stroke-opacity:1" id="path16-4-5" cx="128.85991" cy="-164.47369" rx="8.2750931" ry="7.0993285" transform="rotate(90)" /><ellipse style="fill:#4f3422;fill-opacity:1;stroke:#4f3422;stroke-width:2.16666;stroke-linejoin:round;stroke-dasharray:none;stroke-opacity:1" id="path16-4-5-5" cx="61.430222" cy="-104.12796" rx="8.2750931" ry="7.0993285" transform="rotate(90)" /><ellipse style="fill:#4f3422;fill-opacity:1;stroke:#4f3422;stroke-width:2.16666;stroke-linejoin:round;stroke-dasharray:none;stroke-opacity:1" id="path16-4-5-5-1" cx="200.65106" cy="-88.743759" rx="8.2750931" ry="7.0993285" transform="rotate(90)" /><path style="fill:#4f3422;fill-opacity:1;stroke:none;stroke-width:5.07011;stroke-linejoin:round;stroke-dasharray:none;stroke-opacity:1" id="path17" d="m 149.81656,48.575931 -6.55018,-11.87626 6.18615,-12.10474 12.73632,-0.22847 6.55018,11.87626 -6.18615,12.10474 z" /><path style="fill:#4f3422;fill-opacity:1;stroke:none;stroke-width:5.386;stroke-linejoin:round;stroke-dasharray:none;stroke-opacity:1" id="path18" d="m 215.38444,150.43844 -2.24672,-17.12056 13.70347,-10.50599 15.9502,6.61455 2.24672,17.12056 -13.70347,10.506 z" /><path style="fill:#4f3422;fill-opacity:1;stroke:none;stroke-width:5.386;stroke-linejoin:round;stroke-dasharray:none;stroke-opacity:1" id="path19" d="m 124.94149,140.84601 -14.66945,-1.08515 -6.39495,-13.24669 8.27449,-12.16154 14.66945,1.08515 6.39496,13.24669 z" /><rect style="fill:#69462e;fill-opacity:1;stroke-width:5.60799;stroke-linecap:round;stroke-linejoin:round" id="rect1" width="330.74161" height="39.149006" x="-24.299383" y="-27.674297" /></g><g transform="translate(0.0,512.0)"><defs id="defs9" /><ns0:namedview id="namedview9" pagecolor="#ffffff" bordercolor="#000000" borderopacity="0.25" ns1:showpageshadow="2" ns1:pageopacity="0.0" ns1:pagecheckerboard="0" ns1:deskcolor="#d1d1d1" ns1:zoom="1" ns1:cx="121.5" ns1:cy="127.5" ns1:window-width="1280" ns1:window-height="657" ns1:window-x="-8" ns1:window-y="-8" ns1:window-maximized="1" ns1:current-layer="Layer_1" showguides="false" />









<g ns1:groupmode="layer" id="layer1" ns1:label="Layer 2" /><path style="fill:none;fill-opacity:1;stroke:none;stroke-width:2.386;stroke-linejoin:round;stroke-dasharray:none;stroke-opacity:1" d="m 211.09584,2.7775769 -9.72152,6.0180831 -5.09222,10.184448 5.09222,8.795661 5.55516,13.887884 1.38878,32.405063 -10.64737,10.184449 17.59132,11.573236 -6.48102,6.943939 -11.1103,6.48102 16.66546,10.18444 5.09222,3.24051 -25.46112,12.4991 20.3689,23.14647 1.38879,23.14647 0.92585,26.84991 -17.12839,13.42496 7.40688,36.57143" id="path13" /><path style="fill:none;fill-opacity:1;stroke:none;stroke-width:2.386;stroke-linejoin:round;stroke-dasharray:none;stroke-opacity:1" d="M 206.46655,3.7034358 196.2821,7.4068716 193.04159,15.739602 V 26.84991 l 9.72152,7.869801 0.92586,11.573237 v 18.980108 l -0.92586,14.350814 -11.57324,5.555154 14.35082,3.703435 6.48101,9.25859 -16.20253,10.647381 14.35081,7.40687 1.38879,7.40687 -17.59132,13.42495 17.12839,19.90597 0.92586,48.14467 -15.7396,20.36889 7.8698,29.16456" id="path14" /><rect style="fill:#1ea761;fill-opacity:1;stroke:none;stroke-width:5.46056;stroke-linejoin:round;stroke-dasharray:none;stroke-opacity:1" id="rect19" width="257.34143" height="257.62534" x="-1.086435" y="-0.45678252" /><path ns0:type="star" style="fill:#1c9e5b;fill-opacity:1;stroke:#1c9e5b;stroke-width:7.86633;stroke-linecap:round;stroke-linejoin:round;stroke-dasharray:none;stroke-opacity:1" id="path19" ns1:flatsided="true" ns0:sides="3" ns0:cx="22.382343" ns0:cy="23.752691" ns0:r1="28.806288" ns0:r2="14.403143" ns0:arg1="-0.25651661" ns0:arg2="0.79068094" ns1:rounded="0" ns1:randomized="0" d="M 50.246079,16.444171 14.77984,51.537654 2.1211111,3.276249 Z" ns1:transform-center-x="-2.9437035" ns1:transform-center-y="2.4863369" transform="matrix(0.77440381,0,0,0.68039399,50.764332,28.567618)" /><path ns0:type="star" style="fill:#1c9e5b;fill-opacity:1;stroke:#1c9e5b;stroke-width:7.31527;stroke-linecap:round;stroke-linejoin:round;stroke-dasharray:none;stroke-opacity:1" id="path19-1" ns1:flatsided="true" ns0:sides="3" ns0:cx="22.382343" ns0:cy="23.752691" ns0:r1="28.806288" ns0:r2="14.403143" ns0:arg1="-0.25651661" ns0:arg2="0.79068094" ns1:rounded="0" ns1:randomized="0" d="M 50.246079,16.444171 14.77984,51.537654 2.1211111,3.276249 Z" ns1:transform-center-x="-2.6381255" ns1:transform-center-y="-2.211862" transform="matrix(0.77414788,-0.01990782,0.02192582,-0.68118277,199.38266,203.25167)" /><path ns0:type="star" style="fill:#1fad64;fill-opacity:1;stroke:#1fad64;stroke-width:5.386;stroke-linecap:round;stroke-linejoin:round;stroke-dasharray:none;stroke-opacity:1" id="path20" ns1:flatsided="true" ns0:sides="6" ns0:cx="116" ns0:cy="97" ns0:r1="18.973665" ns0:r2="16.431677" ns0:arg1="-1.2490458" ns0:arg2="-0.725447" ns1:rounded="0" ns1:randomized="0" d="m 122,79.000001 12.58846,14.196151 -6,17.999998 L 110,115 97.411544,100.80385 103.41154,82.803848 Z" transform="translate(-83,55)" /><path ns0:type="star" style="fill:#1fad64;fill-opacity:1;stroke:#1fad64;stroke-width:5.386;stroke-linecap:round;stroke-linejoin:round;stroke-dasharray:none;stroke-opacity:1" id="path21" ns1:flatsided="true" ns0:sides="6" ns0:cx="135" ns0:cy="61" ns0:r1="25.317978" ns0:r2="21.926012" ns0:arg1="1.4121411" ns0:arg2="1.9357398" ns1:rounded="0" ns1:randomized="0" d="m 139,86 -23.65064,-9.035899 -3.99999,-25 L 131,36 l 23.65064,9.035899 3.99999,25 z" transform="translate(3,70)" /><path ns0:type="star" style="fill:#1fad64;fill-opacity:1;stroke:#1fad64;stroke-width:5.31;stroke-linecap:round;stroke-linejoin:round;stroke-dasharray:none;stroke-opacity:1" id="path22" ns1:flatsided="true" ns0:sides="8" ns0:cx="101" ns0:cy="89" ns0:r1="9.8488579" ns0:r2="9.0991583" ns0:arg1="0.41822433" ns0:arg2="0.81092341" ns1:rounded="0" ns1:randomized="0" d="M 110,93 104.53553,98.192388 97,98 91.807612,92.535534 92,85 97.464466,79.807612 105,80 l 5.19239,5.464466 z" transform="translate(83,-52)" /><path ns0:type="star" style="fill:#1c9e5b;fill-opacity:1;stroke:#1c9e5b;stroke-width:5.31;stroke-linecap:round;stroke-linejoin:round;stroke-dasharray:none;stroke-opacity:1" id="path23" ns1:flatsided="true" ns0:sides="8" ns0:cx="121" ns0:cy="225" ns0:r1="15.811388" ns0:r2="14.607818" ns0:arg1="0.60554466" ns0:arg2="0.99824375" ns1:rounded="0" ns1:randomized="0" d="M 134,234 123.82843,240.55635 112,238 105.44365,227.82843 108,216 118.17157,209.44365 130,212 l 6.55635,10.17157 z" transform="translate(10,-1)" /><path ns0:type="star" style="fill:#1c9e5b;fill-opacity:1;stroke:#1c9e5b;stroke-width:5.31;stroke-linecap:round;stroke-linejoin:round;stroke-dasharray:none;stroke-opacity:1" id="path24" ns1:flatsided="false" ns0:sides="9" ns0:cx="149" ns0:cy="52" ns0:r1="4.1231055" ns0:r2="3.809253" ns0:arg1="0.24497866" ns0:arg2="0.59404451" ns1:rounded="0" ns1:randomized="0" d="m 153,53 -0.84333,1.132104 -0.73528,1.205091 -1.37373,0.325157 -1.33788,0.450527 -1.26134,-0.633934 -1.31447,-0.514843 -0.55876,-1.296401 -0.676,-1.239313 0.40527,-1.352268 0.27877,-1.383893 1.17968,-0.775393 1.1031,-0.880936 1.40209,0.164297 1.41128,0.03422 0.96846,1.02711 1.05911,0.933367 0.0817,1.409327 z" ns1:transform-center-x="0.050395313" ns1:transform-center-y="0.074388787" transform="translate(67,25)" /><path ns0:type="star" style="fill:#1c9e5b;fill-opacity:1;stroke:#1c9e5b;stroke-width:5.31;stroke-linecap:round;stroke-linejoin:round;stroke-dasharray:none;stroke-opacity:1" id="path24-5" ns1:flatsided="false" ns0:sides="9" ns0:cx="149" ns0:cy="52" ns0:r1="4.1231055" ns0:r2="3.809253" ns0:arg1="0.24497866" ns0:arg2="0.59404451" ns1:rounded="0" ns1:randomized="0" d="m 153,53 -0.84333,1.132104 -0.73528,1.205091 -1.37373,0.325157 -1.33788,0.450527 -1.26134,-0.633934 -1.31447,-0.514843 -0.55876,-1.296401 -0.676,-1.239313 0.40527,-1.352268 0.27877,-1.383893 1.17968,-0.775393 1.1031,-0.880936 1.40209,0.164297 1.41128,0.03422 0.96846,1.02711 1.05911,0.933367 0.0817,1.409327 z" ns1:transform-center-x="0.050395313" ns1:transform-center-y="0.074388787" transform="translate(-50.24423,49.61909)" /></g><g transform="translate(512.0,512.0)"><ns0:namedview id="namedview1" pagecolor="#ffffff" bordercolor="#000000" borderopacity="0.25" ns1:showpageshadow="2" ns1:pageopacity="0.0" ns1:pagecheckerboard="0" ns1:deskcolor="#d1d1d1" ns1:zoom="2.2460938" ns1:cx="128" ns1:cy="128" ns1:window-width="1280" ns1:window-height="657" ns1:window-x="-8" ns1:window-y="-8" ns1:window-maximized="1" ns1:current-layer="Layer_1" /><defs id="defs9" />









<g id="layer1"><rect style="fill:#694630;stroke-width:5.31;stroke-linecap:round;stroke-linejoin:round" id="rect1" width="260.45218" height="262.23306" x="-1.7808696" y="-2.6713042" /></g><path style="fill:none;fill-opacity:1;stroke:none;stroke-width:2.386;stroke-linejoin:round;stroke-dasharray:none;stroke-opacity:1" d="m 211.09584,2.7775769 -9.72152,6.0180831 -5.09222,10.184448 5.09222,8.795661 5.55516,13.887884 1.38878,32.405063 -10.64737,10.184449 17.59132,11.573236 -6.48102,6.943939 -11.1103,6.48102 16.66546,10.18444 5.09222,3.24051 -25.46112,12.4991 20.3689,23.14647 1.38879,23.14647 0.92585,26.84991 -17.12839,13.42496 7.40688,36.57143" id="path13" /><path style="fill:none;fill-opacity:1;stroke:none;stroke-width:2.386;stroke-linejoin:round;stroke-dasharray:none;stroke-opacity:1" d="M 206.46655,3.7034358 196.2821,7.4068716 193.04159,15.739602 V 26.84991 l 9.72152,7.869801 0.92586,11.573237 v 18.980108 l -0.92586,14.350814 -11.57324,5.555154 14.35082,3.703435 6.48101,9.25859 -16.20253,10.647381 14.35081,7.40687 1.38879,7.40687 -17.59132,13.42495 17.12839,19.90597 0.92586,48.14467 -15.7396,20.36889 7.8698,29.16456" id="path14" /><ellipse style="fill:#4f3422;fill-opacity:1;stroke:#4f3422;stroke-width:5.386;stroke-linejoin:round;stroke-dasharray:none;stroke-opacity:1" id="path16" cx="136.33493" cy="218.86499" rx="20.368896" ry="17.822784" /><ellipse style="fill:#4f3422;fill-opacity:1;stroke:#4f3422;stroke-width:5.386;stroke-linejoin:round;stroke-dasharray:none;stroke-opacity:1" id="path16-4" cx="86.044357" cy="68.717972" rx="20.368896" ry="17.822784" /><ellipse style="fill:#4f3422;fill-opacity:1;stroke:#4f3422;stroke-width:2.16666;stroke-linejoin:round;stroke-dasharray:none;stroke-opacity:1" id="path16-4-5" cx="123.80553" cy="145.9156" rx="8.2750931" ry="7.0993285" /><ellipse style="fill:#4f3422;fill-opacity:1;stroke:#4f3422;stroke-width:2.16666;stroke-linejoin:round;stroke-dasharray:none;stroke-opacity:1" id="path16-4-5-5" cx="31.888876" cy="184.00047" rx="8.2750931" ry="7.0993285" /><ellipse style="fill:#4f3422;fill-opacity:1;stroke:#4f3422;stroke-width:2.16666;stroke-linejoin:round;stroke-dasharray:none;stroke-opacity:1" id="path16-4-5-5-1" cx="229.43321" cy="196.26816" rx="8.2750931" ry="7.0993285" /><path style="fill:#4f3422;fill-opacity:1;stroke:none;stroke-width:5.07011;stroke-linejoin:round;stroke-dasharray:none;stroke-opacity:1" id="path17" d="M 35.952859,31.4597 24.076596,38.009876 11.971859,31.823728 11.743385,19.087405 23.619648,12.537228 35.724385,18.723376 Z" /><path style="fill:#4f3422;fill-opacity:1;stroke:none;stroke-width:5.386;stroke-linejoin:round;stroke-dasharray:none;stroke-opacity:1" id="path18" d="m 181.44667,37.571818 -17.12056,2.246723 -10.50599,-13.703475 6.61455,-15.950199 17.12056,-2.2467229 10.506,13.7034749 z" /><path style="fill:#4f3422;fill-opacity:1;stroke:none;stroke-width:5.386;stroke-linejoin:round;stroke-dasharray:none;stroke-opacity:1" id="path19" d="m 220.82815,93.733027 -1.08515,14.669453 -13.24669,6.39495 -12.16154,-8.27449 1.08515,-14.669453 13.24669,-6.39496 z" /><path style="fill:#4f3422;fill-opacity:1;stroke:none;stroke-width:5.386;stroke-linejoin:round;stroke-dasharray:none;stroke-opacity:1" id="path19-4" d="m 73.35149,130.34411 -12.308852,8.05372 -13.129149,-6.63292 -0.820303,-14.68664 12.308853,-8.05372 13.129156,6.63292 z" /></g></svg>