<?xml version="1.0" encoding="UTF-8" standalone="no"?>
<!-- Generator: Adobe Illustrator 27.1.1, SVG Export Plug-In . SVG Version: 6.00 Build 0)  -->

<svg
   version="1.1"
   id="Layer_1"
   x="0px"
   y="0px"
   width="256px"
   height="256px"
   viewBox="0 0 256 256"
   enable-background="new 0 0 256 256"
   xml:space="preserve"
   sodipodi:docname="Dirt_wall_id3.svg"
   inkscape:version="1.4 (86a8ad7, 2024-10-11)"
   xmlns:inkscape="http://www.inkscape.org/namespaces/inkscape"
   xmlns:sodipodi="http://sodipodi.sourceforge.net/DTD/sodipodi-0.dtd"
   xmlns="http://www.w3.org/2000/svg"
   xmlns:svg="http://www.w3.org/2000/svg"><sodipodi:namedview
   id="namedview1"
   pagecolor="#ffffff"
   bordercolor="#000000"
   borderopacity="0.25"
   inkscape:showpageshadow="2"
   inkscape:pageopacity="0.0"
   inkscape:pagecheckerboard="0"
   inkscape:deskcolor="#d1d1d1"
   inkscape:zoom="1.5882281"
   inkscape:cx="139.46359"
   inkscape:cy="186.0564"
   inkscape:window-width="1280"
   inkscape:window-height="705"
   inkscape:window-x="-8"
   inkscape:window-y="-8"
   inkscape:window-maximized="1"
   inkscape:current-layer="Layer_1" /><defs
   id="defs9" />









<g
   id="layer1"
   transform="matrix(0,-0.99152286,-1.0171739,0,257.37467,254.04355)"
   style="fill:#69462e;fill-opacity:1"><path
     style="fill:#69462e;fill-opacity:1;stroke:none;stroke-width:3.53551;stroke-linejoin:round;stroke-dasharray:none;stroke-opacity:0.31954"
     d="m 229.69343,257.27487 -10.81507,-34.69042 18.33858,-16.8764 -0.47023,-46.41016 -22.10033,-24.37704 23.04078,-14.53247 -23.04078,-11.71973 22.10033,-12.18853 -21.6301,-11.250944 12.22572,-14.53247 -0.47022,-33.284044 -14.10659,-17.813995 10.81504,-17.3452049 6.11287,-4.219104 L -0.71422871,-0.55927392 -1.1844484,256.33729 Z"
     id="path15" /></g><path
   style="fill:none;fill-opacity:1;stroke:#4f3422;stroke-width:3.786;stroke-linejoin:round;stroke-dasharray:none;stroke-opacity:1"
   d="m 258.33485,26.907833 -6.55303,7.12531 -15.82222,8.61429 -16.32019,-13.42435 -33.57296,-0.46291 -14.45502,12.49854 -11.19099,-21.2938 -12.12357,22.21961 -11.19098,-23.14543 -14.92133,23.14543 -24.713424,-21.7567 H 51.774605 L 34.988125,37.555443 0.01965419,27.370773"
   id="path12" /><path
   style="fill:none;fill-opacity:1;stroke:#000000;stroke-width:5.51518;stroke-linejoin:round;stroke-dasharray:none;stroke-opacity:0.31954"
   d="m 260.93351,21.508109 -8.07087,8.307004 -16.07935,8.888018 L 220.19787,24.852209 186.0793,24.37459 171.38936,37.270282 160.01651,15.299851 147.6959,38.225511 136.32305,14.344614 121.15922,38.225511 96.04417,15.777472 H 49.605002 L 32.545717,33.449338 4.0471689,26.850099 -2.9910439,23.89632"
   id="path12-2" /><path
   style="fill:none;fill-opacity:1;stroke:none;stroke-width:2.386;stroke-linejoin:round;stroke-dasharray:none;stroke-opacity:1"
   d="m 254.63085,44.962623 -6.01808,9.72152 -10.18445,5.09222 -8.79566,-5.09222 -13.88788,-5.55516 -32.40506,-1.38878 -10.18445,10.64737 -11.57324,-17.59132 -6.94394,6.48102 -6.48102,11.1103 -10.18444,-16.66546 -3.24051,-5.09222 -12.4991,25.46112 -23.146474,-20.3689 -23.146471,-1.38879 -26.84991,-0.92585 -13.42496,17.12839 -36.57143081,-7.40688"
   id="path13" /><path
   style="fill:none;fill-opacity:1;stroke:none;stroke-width:2.386;stroke-linejoin:round;stroke-dasharray:none;stroke-opacity:1"
   d="m 253.705,49.591913 -3.70344,10.18445 -8.33273,3.24051 h -11.11031 l -7.8698,-9.72152 -11.57324,-0.92586 h -18.9801 l -14.35082,0.92586 -5.55515,11.57324 -3.70344,-14.35082 -9.25859,-6.48101 -10.64738,16.20253 -7.40687,-14.35081 -7.40687,-1.38879 -13.42495,17.59132 -19.90597,-17.12839 -48.144675,-0.92586 -20.36889,15.7396 -29.1645608,-7.8698"
   id="path14" /><ellipse
   style="fill:#4f3422;fill-opacity:1;stroke:#4f3422;stroke-width:5.386;stroke-linejoin:round;stroke-dasharray:none;stroke-opacity:1"
   id="path16"
   cx="-131.29918"
   cy="-44.776489"
   rx="20.368896"
   ry="17.822784"
   transform="matrix(0,-1,-1,0,0,0)" /><ellipse
   style="fill:#4f3422;fill-opacity:1;stroke:#4f3422;stroke-width:5.386;stroke-linejoin:round;stroke-dasharray:none;stroke-opacity:1"
   id="path16-4"
   cx="-208.74802"
   cy="-225.64351"
   rx="20.368896"
   ry="17.822784"
   transform="matrix(0,-1,-1,0,0,0)" /><ellipse
   style="fill:#4f3422;fill-opacity:1;stroke:#4f3422;stroke-width:2.16666;stroke-linejoin:round;stroke-dasharray:none;stroke-opacity:1"
   id="path16-4-5"
   cx="-127.35553"
   cy="-164.47369"
   rx="8.2750931"
   ry="7.0993285"
   transform="matrix(0,-1,-1,0,0,0)" /><ellipse
   style="fill:#4f3422;fill-opacity:1;stroke:#4f3422;stroke-width:2.16666;stroke-linejoin:round;stroke-dasharray:none;stroke-opacity:1"
   id="path16-4-5-5"
   cx="-194.78523"
   cy="-104.12796"
   rx="8.2750931"
   ry="7.0993285"
   transform="matrix(0,-1,-1,0,0,0)" /><ellipse
   style="fill:#4f3422;fill-opacity:1;stroke:#4f3422;stroke-width:2.16666;stroke-linejoin:round;stroke-dasharray:none;stroke-opacity:1"
   id="path16-4-5-5-1"
   cx="-55.564384"
   cy="-88.743759"
   rx="8.2750931"
   ry="7.0993285"
   transform="matrix(0,-1,-1,0,0,0)" /><path
   style="fill:#4f3422;fill-opacity:1;stroke:none;stroke-width:5.07011;stroke-linejoin:round;stroke-dasharray:none;stroke-opacity:1"
   id="path17"
   d="m 149.81656,207.63952 -6.55018,11.87626 6.18615,12.10474 12.73632,0.22847 6.55018,-11.87626 -6.18615,-12.10474 z" /><path
   style="fill:#4f3422;fill-opacity:1;stroke:none;stroke-width:5.386;stroke-linejoin:round;stroke-dasharray:none;stroke-opacity:1"
   id="path18"
   d="m 215.38444,105.77701 -2.24672,17.12056 13.70347,10.50599 15.9502,-6.61455 2.24672,-17.12056 -13.70347,-10.505997 z" /><path
   style="fill:#4f3422;fill-opacity:1;stroke:none;stroke-width:5.386;stroke-linejoin:round;stroke-dasharray:none;stroke-opacity:1"
   id="path19"
   d="m 124.94149,115.36944 -14.66945,1.08515 -6.39495,13.24669 8.27449,12.16154 14.66945,-1.08515 6.39496,-13.24669 z" /><rect
   style="fill:#69462e;fill-opacity:1;stroke-width:2.21771;stroke-linecap:round;stroke-linejoin:round"
   id="rect1"
   width="260.75644"
   height="15.601592"
   x="-2.2168965"
   y="240.96889" /></svg>
