<?xml version="1.0" encoding="UTF-8" standalone="no"?>
<!-- Generator: Adobe Illustrator 27.1.1, SVG Export Plug-In . SVG Version: 6.00 Build 0)  -->

<svg
   version="1.1"
   id="Layer_1"
   x="0px"
   y="0px"
   width="256px"
   height="256px"
   viewBox="0 0 256 256"
   enable-background="new 0 0 256 256"
   xml:space="preserve"
   sodipodi:docname="Dirt_wall(fill).svg"
   inkscape:version="1.4 (86a8ad7, 2024-10-11)"
   xmlns:inkscape="http://www.inkscape.org/namespaces/inkscape"
   xmlns:sodipodi="http://sodipodi.sourceforge.net/DTD/sodipodi-0.dtd"
   xmlns="http://www.w3.org/2000/svg"
   xmlns:svg="http://www.w3.org/2000/svg"><sodipodi:namedview
   id="namedview1"
   pagecolor="#ffffff"
   bordercolor="#000000"
   borderopacity="0.25"
   inkscape:showpageshadow="2"
   inkscape:pageopacity="0.0"
   inkscape:pagecheckerboard="0"
   inkscape:deskcolor="#d1d1d1"
   inkscape:zoom="1.1230469"
   inkscape:cx="178.53217"
   inkscape:cy="65.446955"
   inkscape:window-width="1280"
   inkscape:window-height="705"
   inkscape:window-x="-8"
   inkscape:window-y="-8"
   inkscape:window-maximized="1"
   inkscape:current-layer="Layer_1"
   inkscape:clip-to-page="true" /><defs
   id="defs9" />









<g
   id="layer1"
   transform="matrix(1.0136752,0,0,0.99830224,-0.86608132,-0.00453508)"><rect
     style="fill:#694630;stroke-width:5.31;stroke-linecap:round;stroke-linejoin:round"
     id="rect1"
     width="260.45218"
     height="262.23306"
     x="-1.7808696"
     y="-2.6713042" /></g><path
   style="fill:none;fill-opacity:1;stroke:none;stroke-width:2.386;stroke-linejoin:round;stroke-dasharray:none;stroke-opacity:1"
   d="m 211.09584,2.7775769 -9.72152,6.0180831 -5.09222,10.184448 5.09222,8.795661 5.55516,13.887884 1.38878,32.405063 -10.64737,10.184449 17.59132,11.573236 -6.48102,6.943939 -11.1103,6.48102 16.66546,10.18444 5.09222,3.24051 -25.46112,12.4991 20.3689,23.14647 1.38879,23.14647 0.92585,26.84991 -17.12839,13.42496 7.40688,36.57143"
   id="path13" /><path
   style="fill:none;fill-opacity:1;stroke:none;stroke-width:2.386;stroke-linejoin:round;stroke-dasharray:none;stroke-opacity:1"
   d="M 206.46655,3.7034358 196.2821,7.4068716 193.04159,15.739602 V 26.84991 l 9.72152,7.869801 0.92586,11.573237 v 18.980108 l -0.92586,14.350814 -11.57324,5.555154 14.35082,3.703435 6.48101,9.25859 -16.20253,10.647381 14.35081,7.40687 1.38879,7.40687 -17.59132,13.42495 17.12839,19.90597 0.92586,48.14467 -15.7396,20.36889 7.8698,29.16456"
   id="path14" /><ellipse
   style="fill:#4f3422;fill-opacity:1;stroke:#4f3422;stroke-width:6.60946;stroke-linejoin:round;stroke-dasharray:none;stroke-opacity:1"
   id="path16"
   cx="139.89667"
   cy="212.63194"
   rx="23.318907"
   ry="23.444099" /><ellipse
   style="fill:#4f3422;fill-opacity:1;stroke:#4f3422;stroke-width:6.88328;stroke-linejoin:round;stroke-dasharray:none;stroke-opacity:1"
   id="path16-4"
   cx="100.29131"
   cy="48.683189"
   rx="24.962862"
   ry="23.752403" /><ellipse
   style="fill:#4f3422;fill-opacity:1;stroke:#4f3422;stroke-width:3.05415;stroke-linejoin:round;stroke-dasharray:none;stroke-opacity:1"
   id="path16-4-5"
   cx="176.78639"
   cy="137.45647"
   rx="10.947868"
   ry="10.662539" /><ellipse
   style="fill:#4f3422;fill-opacity:1;stroke:#4f3422;stroke-width:2.16666;stroke-linejoin:round;stroke-dasharray:none;stroke-opacity:1"
   id="path16-4-5-5"
   cx="31.888876"
   cy="184.00047"
   rx="8.2750931"
   ry="7.0993285" /><ellipse
   style="fill:#4f3422;fill-opacity:1;stroke:#4f3422;stroke-width:2.16666;stroke-linejoin:round;stroke-dasharray:none;stroke-opacity:1"
   id="path16-4-5-5-1"
   cx="229.43321"
   cy="196.26816"
   rx="8.2750931"
   ry="7.0993285" /><path
   style="fill:#4f3422;fill-opacity:1;stroke:none;stroke-width:5.07011;stroke-linejoin:round;stroke-dasharray:none;stroke-opacity:1"
   id="path17"
   d="M 35.952859,31.4597 24.076596,38.009876 11.971859,31.823728 11.743385,19.087405 23.619648,12.537228 35.724385,18.723376 Z" /><path
   style="fill:#4f3422;fill-opacity:1;stroke:none;stroke-width:5.386;stroke-linejoin:round;stroke-dasharray:none;stroke-opacity:1"
   id="path18"
   d="m 204.59798,43.804861 -17.12056,2.246723 -10.50599,-13.703475 6.61455,-15.950199 17.12056,-2.246723 10.506,13.703475 z" /><path
   style="fill:#4f3422;fill-opacity:1;stroke:none;stroke-width:5.386;stroke-linejoin:round;stroke-dasharray:none;stroke-opacity:1"
   id="path19"
   d="m 238.63685,88.390418 -1.08515,14.669452 -13.24669,6.39495 -12.16154,-8.27449 1.08515,-14.669452 13.24669,-6.39496 z" /><path
   style="fill:#4f3422;fill-opacity:1;stroke:none;stroke-width:6.25656;stroke-linejoin:round;stroke-dasharray:none;stroke-opacity:1"
   id="path19-4"
   d="m 76.022795,125.80579 -14.813256,9.0303 -15.800452,-7.43721 -0.987205,-16.46751 14.813256,-9.0303 15.800461,7.43721 z" /></svg>
