<?xml version="1.0" encoding="UTF-8" standalone="no"?>
<!-- Generator: Adobe Illustrator 27.1.1, SVG Export Plug-In . SVG Version: 6.00 Build 0)  -->

<svg
   version="1.1"
   id="Layer_1"
   x="0px"
   y="0px"
   width="256px"
   height="256px"
   viewBox="0 0 256 256"
   enable-background="new 0 0 256 256"
   xml:space="preserve"
   sodipodi:docname="Dirt_wall_id1(1).svg"
   inkscape:version="1.4 (86a8ad7, 2024-10-11)"
   xmlns:inkscape="http://www.inkscape.org/namespaces/inkscape"
   xmlns:sodipodi="http://sodipodi.sourceforge.net/DTD/sodipodi-0.dtd"
   xmlns="http://www.w3.org/2000/svg"
   xmlns:svg="http://www.w3.org/2000/svg"><sodipodi:namedview
   id="namedview1"
   pagecolor="#ffffff"
   bordercolor="#000000"
   borderopacity="0.25"
   inkscape:showpageshadow="2"
   inkscape:pageopacity="0.0"
   inkscape:pagecheckerboard="0"
   inkscape:deskcolor="#d1d1d1"
   inkscape:zoom="1.1660156"
   inkscape:cx="176.24121"
   inkscape:cy="159.9464"
   inkscape:window-width="1280"
   inkscape:window-height="705"
   inkscape:window-x="-8"
   inkscape:window-y="-8"
   inkscape:window-maximized="1"
   inkscape:current-layer="Layer_1"
   showguides="false"
   inkscape:clip-to-page="true" /><defs
   id="defs9" />









<path
   style="fill:none;fill-opacity:1;stroke:#000000;stroke-width:7.243;stroke-linecap:square;stroke-linejoin:miter;stroke-dasharray:none;stroke-opacity:0.390805"
   d="m 241.34569,2.7944353 -0.57457,19.2890077 10.05485,20.152694 -0.57457,40.305391 -12.35307,13.243197 11.20397,10.652155 -11.20397,12.66739 12.92764,34.54746 -13.78948,38.00224 10.91667,8.92476 0.86185,27.92587 -8.04389,7.1974 0.2873,17.84953"
   id="path3-2" /><path
   style="fill:#69462e;fill-opacity:1;stroke:#69462e;stroke-width:5.528;stroke-linecap:square;stroke-linejoin:miter;stroke-dasharray:none;stroke-opacity:1"
   d="m 236.50768,248.33306 -0.30322,-14.2511 6.97394,-6.97395 -1.21286,-24.56041 -9.09644,-10.61253 11.82538,-38.5083 -10.91574,-35.17293 9.39966,-12.1286 -10.61252,-10.006095 11.82538,-15.160748 0.30322,-39.114731 -9.39966,-21.225048 0.90964,-13.0382438 -33.35365,-2.1225048 11.21896,244.6944806 z"
   id="path4" /><g
   inkscape:groupmode="layer"
   id="layer2"
   inkscape:label="Layer 12" /><rect
   style="fill:none;fill-opacity:1;stroke-width:5.31;stroke-linecap:round;stroke-linejoin:round"
   id="rect1"
   width="251.062"
   height="257.73273"
   x="-10.915739"
   y="-1.8192898" /><rect
   style="fill:#69462e;fill-opacity:1;stroke-width:5.4311;stroke-linecap:round;stroke-linejoin:round"
   id="rect2"
   width="232.84422"
   height="257.71524"
   x="-9.1636103e-08"
   y="-0.764" /><path
   style="fill:none;fill-opacity:1;stroke:#4f3422;stroke-width:5.339;stroke-linecap:square;stroke-linejoin:miter;stroke-dasharray:none;stroke-opacity:1"
   d="m 239.34561,2.4174221 -0.50867,19.3369219 8.90153,20.202754 -0.50867,40.40551 -10.93614,13.276095 9.91884,10.678607 -9.91884,12.69887 11.44481,34.63328 -12.2078,38.09663 9.6645,8.94693 0.763,27.99525 -7.12123,7.21527 0.25433,17.89387"
   id="path3" /><rect
   style="fill:none;fill-opacity:1;stroke:#69462e;stroke-width:5.61651;stroke-linecap:square;stroke-linejoin:miter;stroke-dasharray:none;stroke-opacity:1"
   id="rect3"
   width="16.536345"
   height="4.4077458"
   x="218.66223"
   y="249.59015" /><rect
   style="fill:none;fill-opacity:1;stroke:#69462e;stroke-width:5.2309;stroke-linecap:square;stroke-linejoin:miter;stroke-dasharray:none;stroke-opacity:1"
   id="rect3-1"
   width="16.064274"
   height="3.9356744"
   x="218.54546"
   y="2.41745" /><ellipse
   style="fill:#4f3422;fill-opacity:1;stroke:#69462e;stroke-width:6.27612;stroke-linecap:square;stroke-linejoin:miter;stroke-dasharray:none;stroke-opacity:1"
   id="path5"
   cx="191.67839"
   cy="204.11391"
   rx="28.356264"
   ry="26.21221" /><ellipse
   style="fill:#4f3422;fill-opacity:1;stroke:#69462e;stroke-width:6.27612;stroke-linecap:square;stroke-linejoin:miter;stroke-dasharray:none;stroke-opacity:1"
   id="path5-8"
   cx="67.281593"
   cy="63.554619"
   rx="28.356264"
   ry="26.21221" /><path
   sodipodi:type="star"
   style="fill:#4f3422;fill-opacity:1;stroke:#69462e;stroke-width:5.528;stroke-linecap:square;stroke-linejoin:miter;stroke-dasharray:none;stroke-opacity:1"
   id="path6"
   inkscape:flatsided="true"
   sodipodi:sides="8"
   sodipodi:cx="58.318256"
   sodipodi:cy="129.50084"
   sodipodi:r1="27.255636"
   sodipodi:r2="25.180923"
   sodipodi:arg1="-0.42141921"
   sodipodi:arg2="-0.028720125"
   inkscape:rounded="0"
   inkscape:randomized="0"
   d="m 83.189279,118.35176 0.599035,20.85196 -14.320979,15.16814 -20.851958,0.59904 -15.168143,-14.32098 -0.599035,-20.85196 14.320978,-15.16814 20.851958,-0.59904 z"
   transform="matrix(0.77501983,0,0,0.7549521,-7.0336502,90.052162)" /><path
   sodipodi:type="star"
   style="fill:#4f3422;fill-opacity:1;stroke:#69462e;stroke-width:5.528;stroke-linecap:square;stroke-linejoin:miter;stroke-dasharray:none;stroke-opacity:1"
   id="path7"
   inkscape:flatsided="true"
   sodipodi:sides="6"
   sodipodi:cx="156.0871"
   sodipodi:cy="48.884422"
   sodipodi:r1="21.440536"
   sodipodi:r2="18.568048"
   sodipodi:arg1="0.28379411"
   sodipodi:arg2="0.80739288"
   inkscape:rounded="0"
   inkscape:randomized="0"
   d="M 176.67001,54.887773 161.1795,69.711425 140.59659,63.708074 135.50418,42.881072 150.99469,28.05742 171.57761,34.06077 Z"
   transform="translate(28.301508,-18.01005)" /><path
   sodipodi:type="star"
   style="fill:#4f3422;fill-opacity:1;stroke:#69462e;stroke-width:5.528;stroke-linecap:square;stroke-linejoin:miter;stroke-dasharray:none;stroke-opacity:1"
   id="path7-7"
   inkscape:flatsided="true"
   sodipodi:sides="6"
   sodipodi:cx="156.0871"
   sodipodi:cy="48.884422"
   sodipodi:r1="21.440536"
   sodipodi:r2="18.568048"
   sodipodi:arg1="0.28379411"
   sodipodi:arg2="0.80739288"
   inkscape:rounded="0"
   inkscape:randomized="0"
   d="M 176.67001,54.887773 161.1795,69.711425 140.59659,63.708074 135.50418,42.881072 150.99469,28.05742 171.57761,34.06077 Z"
   transform="rotate(-77.238903,217.93552,65.630452)" /><ellipse
   style="fill:#4f3422;fill-opacity:1;stroke:#69462e;stroke-width:5.528;stroke-linecap:square;stroke-linejoin:miter;stroke-dasharray:none;stroke-opacity:1"
   id="path8"
   cx="134.64656"
   cy="129.92964"
   rx="7.7185931"
   ry="8.1474037" /><ellipse
   style="fill:#4f3422;fill-opacity:1;stroke:#69462e;stroke-width:5.528;stroke-linecap:square;stroke-linejoin:miter;stroke-dasharray:none;stroke-opacity:1"
   id="path9"
   cx="42.452263"
   cy="22.298157"
   rx="9.8626461"
   ry="9.433836" /><ellipse
   style="fill:#4f3422;fill-opacity:1;stroke:#69462e;stroke-width:5.528;stroke-linecap:square;stroke-linejoin:miter;stroke-dasharray:none;stroke-opacity:1"
   id="path10"
   cx="97.340034"
   cy="234.13065"
   rx="9.0050249"
   ry="9.433836" /></svg>
