<?xml version="1.0" encoding="UTF-8" standalone="no"?>
<!-- Generator: Adobe Illustrator 27.1.1, SVG Export Plug-In . SVG Version: 6.00 Build 0)  -->

<svg
   version="1.1"
   id="Layer_1"
   x="0px"
   y="0px"
   width="256px"
   height="256px"
   viewBox="0 0 256 256"
   enable-background="new 0 0 256 256"
   xml:space="preserve"
   sodipodi:docname="Dirt_wall_id2.svg"
   inkscape:version="1.4 (86a8ad7, 2024-10-11)"
   xmlns:inkscape="http://www.inkscape.org/namespaces/inkscape"
   xmlns:sodipodi="http://sodipodi.sourceforge.net/DTD/sodipodi-0.dtd"
   xmlns="http://www.w3.org/2000/svg"
   xmlns:svg="http://www.w3.org/2000/svg"><sodipodi:namedview
   id="namedview1"
   pagecolor="#ffffff"
   bordercolor="#000000"
   borderopacity="0.25"
   inkscape:showpageshadow="2"
   inkscape:pageopacity="0.0"
   inkscape:pagecheckerboard="0"
   inkscape:deskcolor="#d1d1d1"
   inkscape:zoom="1.4815191"
   inkscape:cx="119.13447"
   inkscape:cy="159.63345"
   inkscape:window-width="1280"
   inkscape:window-height="705"
   inkscape:window-x="-8"
   inkscape:window-y="-8"
   inkscape:window-maximized="1"
   inkscape:current-layer="Layer_1"
   showguides="true" /><defs
   id="defs9" />









<g
   id="layer1"
   transform="matrix(-0.99152286,0,0,1.0130185,253.88656,-0.64939323)"
   style="fill:#69462e;fill-opacity:1"><path
     style="fill:#69462e;fill-opacity:1;stroke:none;stroke-width:3.53551;stroke-linejoin:round;stroke-dasharray:none;stroke-opacity:0.31954"
     d="m 229.69343,257.27487 -10.81507,-34.69042 18.33858,-16.8764 -0.47023,-46.41016 -22.10033,-24.37704 23.04078,-14.53247 -23.04078,-11.71973 22.10033,-12.18853 -21.6301,-11.250944 12.22572,-14.53247 -0.47022,-33.284044 -14.10659,-17.813995 10.81504,-17.3452049 6.11287,-4.219104 L -0.71422871,-0.55927392 -1.1844484,256.33729 Z"
     id="path15" /></g><path
   style="fill:none;fill-opacity:1;stroke:#4f3422;stroke-width:3.786;stroke-linejoin:round;stroke-dasharray:none;stroke-opacity:1"
   d="m 26.75084,-1.6014014 7.12531,6.5530291 8.61429,15.8222203 -13.42435,16.320189 -0.46291,33.57296 12.49854,14.455025 -21.2938,11.190986 22.21961,12.123572 -23.14543,11.19098 23.14543,14.92133 -21.7567,24.71342 v 45.69653 l 17.12762,16.78648 -10.18467,34.96847"
   id="path12" /><path
   style="fill:none;fill-opacity:1;stroke:#000000;stroke-width:5.43741;stroke-linejoin:round;stroke-dasharray:none;stroke-opacity:0.31954"
   d="M 21.958185,-4.995038 29.997141,3.1114057 38.598363,19.261604 25.194379,35.920095 24.73217,70.18899 37.21175,84.943654 15.950253,96.366619 38.136155,108.74151 15.025838,120.16446 38.136155,135.3951 16.412461,160.6208 v 46.64378 l 17.101636,17.13445 -6.386297,28.62411 -2.858467,7.06922"
   id="path12-2" /><path
   style="fill:none;fill-opacity:1;stroke:none;stroke-width:2.386;stroke-linejoin:round;stroke-dasharray:none;stroke-opacity:1"
   d="m 44.80563,2.102594 9.72152,6.0180831 5.09222,10.1844479 -5.09222,8.795661 -5.55516,13.887884 -1.38878,32.405063 10.64737,10.184449 -17.59132,11.573236 6.48102,6.943942 11.1103,6.48102 -16.66546,10.18444 -5.09222,3.24051 25.46112,12.4991 -20.3689,23.14647 -1.38879,23.14647 -0.92585,26.84991 17.12839,13.42496 -7.40688,36.57143"
   id="path13" /><path
   style="fill:none;fill-opacity:1;stroke:none;stroke-width:2.386;stroke-linejoin:round;stroke-dasharray:none;stroke-opacity:1"
   d="m 49.43492,3.0284529 10.18445,3.7034358 3.24051,8.3327303 v 11.110308 l -9.72152,7.869801 -0.92586,11.573237 v 18.980108 l 0.92586,14.350814 11.57324,5.555154 -14.35082,3.703435 -6.48101,9.25859 16.20253,10.647384 -14.35081,7.40687 -1.38879,7.40687 17.59132,13.42495 -17.12839,19.90597 -0.92586,48.14467 15.7396,20.36889 -7.8698,29.16456"
   id="path14" /><ellipse
   style="fill:#4f3422;fill-opacity:1;stroke:#4f3422;stroke-width:5.386;stroke-linejoin:round;stroke-dasharray:none;stroke-opacity:1"
   id="path16"
   cx="-131.1422"
   cy="211.95695"
   rx="20.368896"
   ry="17.822784"
   transform="scale(-1,1)" /><ellipse
   style="fill:#4f3422;fill-opacity:1;stroke:#4f3422;stroke-width:5.386;stroke-linejoin:round;stroke-dasharray:none;stroke-opacity:1"
   id="path16-4"
   cx="-208.59103"
   cy="31.089949"
   rx="20.368896"
   ry="17.822784"
   transform="scale(-1,1)" /><ellipse
   style="fill:#4f3422;fill-opacity:1;stroke:#4f3422;stroke-width:2.16666;stroke-linejoin:round;stroke-dasharray:none;stroke-opacity:1"
   id="path16-4-5"
   cx="-127.19854"
   cy="92.25975"
   rx="8.2750931"
   ry="7.0993285"
   transform="scale(-1,1)" /><ellipse
   style="fill:#4f3422;fill-opacity:1;stroke:#4f3422;stroke-width:2.16666;stroke-linejoin:round;stroke-dasharray:none;stroke-opacity:1"
   id="path16-4-5-5"
   cx="-194.62825"
   cy="152.60548"
   rx="8.2750931"
   ry="7.0993285"
   transform="scale(-1,1)" /><ellipse
   style="fill:#4f3422;fill-opacity:1;stroke:#4f3422;stroke-width:2.16666;stroke-linejoin:round;stroke-dasharray:none;stroke-opacity:1"
   id="path16-4-5-5-1"
   cx="-55.407391"
   cy="167.98969"
   rx="8.2750931"
   ry="7.0993285"
   transform="scale(-1,1)" /><path
   style="fill:#4f3422;fill-opacity:1;stroke:none;stroke-width:5.07011;stroke-linejoin:round;stroke-dasharray:none;stroke-opacity:1"
   id="path17"
   d="m 207.48253,106.91689 11.87626,6.55018 12.10474,-6.18615 0.22847,-12.736325 -11.87626,-6.550177 -12.10474,6.186148 z" /><path
   style="fill:#4f3422;fill-opacity:1;stroke:none;stroke-width:5.386;stroke-linejoin:round;stroke-dasharray:none;stroke-opacity:1"
   id="path18"
   d="m 105.62002,41.349009 17.12056,2.246723 10.50599,-13.703475 -6.61455,-15.950199 -17.12056,-2.246723 -10.506,13.703475 z" /><path
   style="fill:#4f3422;fill-opacity:1;stroke:none;stroke-width:5.386;stroke-linejoin:round;stroke-dasharray:none;stroke-opacity:1"
   id="path19"
   d="m 115.21245,131.79196 1.08515,14.66945 13.24669,6.39495 12.16154,-8.27449 -1.08515,-14.66945 -13.24669,-6.39496 z" /><rect
   style="fill:#69462e;fill-opacity:1;stroke-width:2.62273;stroke-linecap:round;stroke-linejoin:round"
   id="rect1"
   width="20.924467"
   height="259.86841"
   x="237.59398"
   y="-1.3499658" /></svg>
