<?xml version="1.0" encoding="UTF-8" standalone="no"?>
<!-- Generator: Adobe Illustrator 27.1.1, SVG Export Plug-In . SVG Version: 6.00 Build 0)  -->

<svg
   version="1.1"
   id="Layer_1"
   x="0px"
   y="0px"
   width="256px"
   height="256px"
   viewBox="0 0 256 256"
   enable-background="new 0 0 256 256"
   xml:space="preserve"
   xmlns="http://www.w3.org/2000/svg"
   xmlns:svg="http://www.w3.org/2000/svg"><defs
   id="defs9" />









<g
   id="layer1"
   transform="matrix(0,0.99152286,-1,0,257.40843,2.171901)"
   style="fill:#69462e;fill-opacity:1"><path
     style="fill:#69462e;fill-opacity:1;stroke:none;stroke-width:3.53551;stroke-linejoin:round;stroke-dasharray:none;stroke-opacity:0.31954"
     d="m 229.69343,257.27487 -10.81507,-34.69042 18.33858,-16.8764 -0.47023,-46.41016 -22.10033,-24.37704 23.04078,-14.53247 -23.04078,-11.71973 22.10033,-12.18853 -21.6301,-11.250944 12.22572,-14.53247 -0.47022,-33.284044 -14.10659,-17.813995 10.81504,-17.3452049 6.11287,-4.219104 L -0.71422871,-0.55927392 -1.1844484,256.33729 Z"
     id="path15" /></g><path
   style="fill:none;fill-opacity:1;stroke:#4f3422;stroke-width:3.786;stroke-linejoin:round;stroke-dasharray:none;stroke-opacity:1"
   d="m 258.33485,229.30762 -6.55303,-7.12531 -15.82222,-8.61429 -16.32019,13.42435 -33.57296,0.46291 -14.45502,-12.49854 -11.19099,21.2938 -12.12357,-22.21961 -11.19098,23.14543 -14.92133,-23.14543 -24.713424,21.7567 H 51.774605 L 34.988125,218.66001 0.01965419,228.84468"
   id="path12" /><path
   style="fill:none;fill-opacity:1;stroke:#000000;stroke-width:5.386;stroke-linejoin:round;stroke-dasharray:none;stroke-opacity:0.31954"
   d="m 259.72094,234.10765 -7.94181,-8.05117 -15.82222,-8.61429 -16.32019,13.42435 -33.57296,0.46291 -14.45503,-12.49854 -11.19098,21.2938 -12.12358,-22.21961 -11.19098,23.14543 -14.92133,-23.14543 -24.713424,21.7567 H 51.771905 l -16.78648,-17.12762 -28.0428104,6.396 -6.92566041,2.86281"
   id="path12-2" /><path
   style="fill:none;fill-opacity:1;stroke:none;stroke-width:2.386;stroke-linejoin:round;stroke-dasharray:none;stroke-opacity:1"
   d="m 254.63085,211.25283 -6.01808,-9.72152 -10.18445,-5.09222 -8.79566,5.09222 -13.88788,5.55516 -32.40506,1.38878 -10.18445,-10.64737 -11.57324,17.59132 -6.94394,-6.48102 -6.48102,-11.1103 -10.18444,16.66546 -3.24051,5.09222 -12.4991,-25.46112 -23.146474,20.3689 -23.146471,1.38879 -26.84991,0.92585 -13.42496,-17.12839 -36.57143081,7.40688"
   id="path13" /><path
   style="fill:none;fill-opacity:1;stroke:none;stroke-width:2.386;stroke-linejoin:round;stroke-dasharray:none;stroke-opacity:1"
   d="m 253.705,206.62354 -3.70344,-10.18445 -8.33273,-3.24051 h -11.11031 l -7.8698,9.72152 -11.57324,0.92586 h -18.9801 l -14.35082,-0.92586 -5.55515,-11.57324 -3.70344,14.35082 -9.25859,6.48101 -10.64738,-16.20253 -7.40687,14.35081 -7.40687,1.38879 -13.42495,-17.59132 -19.90597,17.12839 -48.144675,0.92586 -20.36889,-15.7396 -29.1645608,7.8698"
   id="path14" /><ellipse
   style="fill:#4f3422;fill-opacity:1;stroke:#4f3422;stroke-width:5.386;stroke-linejoin:round;stroke-dasharray:none;stroke-opacity:1"
   id="path16"
   cx="124.91627"
   cy="-44.776489"
   rx="20.368896"
   ry="17.822784"
   transform="rotate(90)" /><ellipse
   style="fill:#4f3422;fill-opacity:1;stroke:#4f3422;stroke-width:5.386;stroke-linejoin:round;stroke-dasharray:none;stroke-opacity:1"
   id="path16-4"
   cx="47.467434"
   cy="-225.64351"
   rx="20.368896"
   ry="17.822784"
   transform="rotate(90)" /><ellipse
   style="fill:#4f3422;fill-opacity:1;stroke:#4f3422;stroke-width:2.16666;stroke-linejoin:round;stroke-dasharray:none;stroke-opacity:1"
   id="path16-4-5"
   cx="128.85991"
   cy="-164.47369"
   rx="8.2750931"
   ry="7.0993285"
   transform="rotate(90)" /><ellipse
   style="fill:#4f3422;fill-opacity:1;stroke:#4f3422;stroke-width:2.16666;stroke-linejoin:round;stroke-dasharray:none;stroke-opacity:1"
   id="path16-4-5-5"
   cx="61.430222"
   cy="-104.12796"
   rx="8.2750931"
   ry="7.0993285"
   transform="rotate(90)" /><ellipse
   style="fill:#4f3422;fill-opacity:1;stroke:#4f3422;stroke-width:2.16666;stroke-linejoin:round;stroke-dasharray:none;stroke-opacity:1"
   id="path16-4-5-5-1"
   cx="200.65106"
   cy="-88.743759"
   rx="8.2750931"
   ry="7.0993285"
   transform="rotate(90)" /><path
   style="fill:#4f3422;fill-opacity:1;stroke:none;stroke-width:5.07011;stroke-linejoin:round;stroke-dasharray:none;stroke-opacity:1"
   id="path17"
   d="m 149.81656,48.575931 -6.55018,-11.87626 6.18615,-12.10474 12.73632,-0.22847 6.55018,11.87626 -6.18615,12.10474 z" /><path
   style="fill:#4f3422;fill-opacity:1;stroke:none;stroke-width:5.386;stroke-linejoin:round;stroke-dasharray:none;stroke-opacity:1"
   id="path18"
   d="m 215.38444,150.43844 -2.24672,-17.12056 13.70347,-10.50599 15.9502,6.61455 2.24672,17.12056 -13.70347,10.506 z" /><path
   style="fill:#4f3422;fill-opacity:1;stroke:none;stroke-width:5.386;stroke-linejoin:round;stroke-dasharray:none;stroke-opacity:1"
   id="path19"
   d="m 124.94149,140.84601 -14.66945,-1.08515 -6.39495,-13.24669 8.27449,-12.16154 14.66945,1.08515 6.39496,13.24669 z" /><rect
   style="fill:#69462e;fill-opacity:1;stroke-width:5.31;stroke-linecap:round;stroke-linejoin:round"
   id="rect1"
   width="330.74161"
   height="35.09911"
   x="-31.724195"
   y="-24.299383" /></svg>
