<?xml version="1.0" encoding="UTF-8" standalone="no"?>
<!-- Generator: Adobe Illustrator 27.1.1, SVG Export Plug-In . SVG Version: 6.00 Build 0)  -->

<svg
   version="1.1"
   id="Layer_1"
   x="0px"
   y="0px"
   width="256"
   height="256"
   viewBox="0 0 256 256"
   enable-background="new 0 0 256 256"
   xml:space="preserve"
   sodipodi:docname="Dirt_wall(fill).svg"
   inkscape:version="1.4 (86a8ad7, 2024-10-11)"
   xmlns:inkscape="http://www.inkscape.org/namespaces/inkscape"
   xmlns:sodipodi="http://sodipodi.sourceforge.net/DTD/sodipodi-0.dtd"
   xmlns="http://www.w3.org/2000/svg"
   xmlns:svg="http://www.w3.org/2000/svg"><sodipodi:namedview
   id="namedview1"
   pagecolor="#ffffff"
   bordercolor="#000000"
   borderopacity="0.25"
   inkscape:showpageshadow="2"
   inkscape:pageopacity="0.0"
   inkscape:pagecheckerboard="0"
   inkscape:deskcolor="#d1d1d1"
   inkscape:zoom="1.1230469"
   inkscape:cx="177.64174"
   inkscape:cy="66.33739"
   inkscape:window-width="1280"
   inkscape:window-height="705"
   inkscape:window-x="-8"
   inkscape:window-y="-8"
   inkscape:window-maximized="1"
   inkscape:current-layer="layer1"
   inkscape:clip-to-page="true" /><defs
   id="defs9" />









<g
   id="layer1"
   transform="matrix(1.0376068,0,0,1.0475381,-3.4947661,-4.3251851)"><rect
     style="fill:#694630;stroke-width:4.98914;stroke-linecap:round;stroke-linejoin:round"
     id="rect1"
     width="246.72159"
     height="244.38252"
     x="3.3681026"
     y="4.1289048" /></g><path
   style="fill:none;fill-opacity:1;stroke:none;stroke-width:2.386;stroke-linejoin:round;stroke-dasharray:none;stroke-opacity:1"
   d="m 210.20541,3.6680114 -9.72152,6.0180831 -5.09222,10.1844475 5.09222,8.795661 5.55516,13.887884 1.38878,32.405063 -10.64737,10.184449 17.59132,11.573236 -6.48102,6.943935 -11.1103,6.48102 16.66546,10.18444 5.09222,3.24051 -25.46112,12.4991 20.3689,23.14647 1.38879,23.14647 0.92585,26.84991 -17.12839,13.42496 7.40688,36.57143"
   id="path13" /><path
   style="fill:none;fill-opacity:1;stroke:none;stroke-width:2.386;stroke-linejoin:round;stroke-dasharray:none;stroke-opacity:1"
   d="m 205.57612,4.5938703 -10.18445,3.7034358 -3.24051,8.3327299 v 11.110308 l 9.72152,7.869801 0.92586,11.573237 V 66.16349 l -0.92586,14.350814 -11.57324,5.555154 14.35082,3.703435 6.48101,9.25859 -16.20253,10.647377 14.35081,7.40687 1.38879,7.40687 -17.59132,13.42495 17.12839,19.90597 0.92586,48.14467 -15.7396,20.36889 7.8698,29.16456"
   id="path14" /><ellipse
   style="fill:#4f3422;fill-opacity:1;stroke:#4f3422;stroke-width:6.60946;stroke-linejoin:round;stroke-dasharray:none;stroke-opacity:1"
   id="path16"
   cx="139.00623"
   cy="213.52238"
   rx="23.318907"
   ry="23.444099" /><ellipse
   style="fill:#4f3422;fill-opacity:1;stroke:#4f3422;stroke-width:6.88328;stroke-linejoin:round;stroke-dasharray:none;stroke-opacity:1"
   id="path16-4"
   cx="99.400879"
   cy="49.573624"
   rx="24.962862"
   ry="23.752403" /><ellipse
   style="fill:#4f3422;fill-opacity:1;stroke:#4f3422;stroke-width:3.05415;stroke-linejoin:round;stroke-dasharray:none;stroke-opacity:1"
   id="path16-4-5"
   cx="175.89595"
   cy="138.34691"
   rx="10.947868"
   ry="10.662539" /><ellipse
   style="fill:#4f3422;fill-opacity:1;stroke:#4f3422;stroke-width:2.16666;stroke-linejoin:round;stroke-dasharray:none;stroke-opacity:1"
   id="path16-4-5-5"
   cx="30.998442"
   cy="184.89091"
   rx="8.2750931"
   ry="7.0993285" /><ellipse
   style="fill:#4f3422;fill-opacity:1;stroke:#4f3422;stroke-width:2.16666;stroke-linejoin:round;stroke-dasharray:none;stroke-opacity:1"
   id="path16-4-5-5-1"
   cx="228.54277"
   cy="197.1586"
   rx="8.2750931"
   ry="7.0993285" /><path
   style="fill:#4f3422;fill-opacity:1;stroke:none;stroke-width:5.07011;stroke-linejoin:round;stroke-dasharray:none;stroke-opacity:1"
   id="path17"
   d="M 35.062425,32.350134 23.186162,38.90031 11.081425,32.714162 10.852951,19.977839 22.729214,13.427662 34.833951,19.61381 Z" /><path
   style="fill:#4f3422;fill-opacity:1;stroke:none;stroke-width:5.386;stroke-linejoin:round;stroke-dasharray:none;stroke-opacity:1"
   id="path18"
   d="m 203.70755,44.695295 -17.12056,2.246723 -10.50599,-13.703475 6.61455,-15.950199 17.12056,-2.246723 10.506,13.703475 z" /><path
   style="fill:#4f3422;fill-opacity:1;stroke:none;stroke-width:5.386;stroke-linejoin:round;stroke-dasharray:none;stroke-opacity:1"
   id="path19"
   d="m 237.74642,89.280852 -1.08515,14.669448 -13.24669,6.39495 -12.16154,-8.27449 1.08515,-14.669448 13.24669,-6.39496 z" /><path
   style="fill:#4f3422;fill-opacity:1;stroke:none;stroke-width:6.25656;stroke-linejoin:round;stroke-dasharray:none;stroke-opacity:1"
   id="path19-4"
   d="m 75.132361,126.69622 -14.813256,9.0303 -15.800452,-7.43721 -0.987205,-16.46751 14.813256,-9.0303 15.800461,7.43721 z" /></svg>
