<?xml version='1.0' encoding='utf-8'?>
<svg xmlns:ns0="http://sodipodi.sourceforge.net/DTD/sodipodi-0.dtd" xmlns:ns1="http://www.inkscape.org/namespaces/inkscape" version="1.1" xmlns="http://www.w3.org/2000/svg" width="1024.0" height="1280.0" viewBox="0 0 1024.0 1280.0"><g transform="translate(0,0)"><defs id="defs9" /><ns0:namedview id="namedview9" pagecolor="#ffffff" bordercolor="#000000" borderopacity="0.24705882" ns1:showpageshadow="2" ns1:pageopacity="0.0" ns1:pagecheckerboard="0" ns1:deskcolor="#d1d1d1" ns1:zoom="1.1660156" ns1:cx="117.06533" ns1:cy="102.48576" ns1:window-width="1280" ns1:window-height="705" ns1:window-x="-8" ns1:window-y="-8" ns1:window-maximized="1" ns1:current-layer="Layer_1" showguides="false" ns1:clip-to-page="true" />









<rect style="fill:#1fad64;fill-opacity:1;stroke-width:5.293;stroke-linecap:round;stroke-linejoin:round" id="rect4" width="256" height="256" x="0.068000004" y="0.041999999" /><g ns1:groupmode="layer" id="layer1" ns1:label="Layer 2" /><path style="fill:none;fill-opacity:1;stroke:none;stroke-width:2.386;stroke-linejoin:round;stroke-dasharray:none;stroke-opacity:1" d="m 211.09584,2.7775769 -9.72152,6.0180831 -5.09222,10.184448 5.09222,8.795661 5.55516,13.887884 1.38878,32.405063 -10.64737,10.184449 17.59132,11.573236 -6.48102,6.943939 -11.1103,6.48102 16.66546,10.18444 5.09222,3.24051 -25.46112,12.4991 20.3689,23.14647 1.38879,23.14647 0.92585,26.84991 -17.12839,13.42496 7.40688,36.57143" id="path13" /><path style="fill:none;fill-opacity:1;stroke:none;stroke-width:2.386;stroke-linejoin:round;stroke-dasharray:none;stroke-opacity:1" d="M 206.46655,3.7034358 196.2821,7.4068716 193.04159,15.739602 V 26.84991 l 9.72152,7.869801 0.92586,11.573237 v 18.980108 l -0.92586,14.350814 -11.57324,5.555154 14.35082,3.703435 6.48101,9.25859 -16.20253,10.647381 14.35081,7.40687 1.38879,7.40687 -17.59132,13.42495 17.12839,19.90597 0.92586,48.14467 -15.7396,20.36889 7.8698,29.16456" id="path14" /><path ns0:type="star" style="fill:#1c9e5b;fill-opacity:1;stroke:#1c9e5b;stroke-width:7.86633;stroke-linecap:round;stroke-linejoin:round;stroke-dasharray:none;stroke-opacity:1" id="path19" ns1:flatsided="true" ns0:sides="3" ns0:cx="22.382343" ns0:cy="23.752691" ns0:r1="28.806288" ns0:r2="14.403143" ns0:arg1="-0.25651661" ns0:arg2="0.79068094" ns1:rounded="0" ns1:randomized="0" d="M 50.246079,16.444171 14.77984,51.537654 2.1211111,3.276249 Z" ns1:transform-center-x="-2.9437035" ns1:transform-center-y="2.4863369" transform="matrix(0.77440381,0,0,0.68039399,50.764332,28.567618)" /><path ns0:type="star" style="fill:#1c9e5b;fill-opacity:1;stroke:#1c9e5b;stroke-width:7.31527;stroke-linecap:round;stroke-linejoin:round;stroke-dasharray:none;stroke-opacity:1" id="path19-1" ns1:flatsided="true" ns0:sides="3" ns0:cx="22.382343" ns0:cy="23.752691" ns0:r1="28.806288" ns0:r2="14.403143" ns0:arg1="-0.25651661" ns0:arg2="0.79068094" ns1:rounded="0" ns1:randomized="0" d="M 50.246079,16.444171 14.77984,51.537654 2.1211111,3.276249 Z" ns1:transform-center-x="-2.6381255" ns1:transform-center-y="-2.211862" transform="matrix(0.77414788,-0.01990782,0.02192582,-0.68118277,199.38266,203.25167)" /><path ns0:type="star" style="fill:#1fad64;fill-opacity:1;stroke:#1fad64;stroke-width:5.386;stroke-linecap:round;stroke-linejoin:round;stroke-dasharray:none;stroke-opacity:1" id="path20" ns1:flatsided="true" ns0:sides="6" ns0:cx="116" ns0:cy="97" ns0:r1="18.973665" ns0:r2="16.431677" ns0:arg1="-1.2490458" ns0:arg2="-0.725447" ns1:rounded="0" ns1:randomized="0" d="m 122,79.000001 12.58846,14.196151 -6,17.999998 L 110,115 97.411544,100.80385 103.41154,82.803848 Z" transform="translate(-83,55)" /><path ns0:type="star" style="fill:#20b669;fill-opacity:1;stroke:#1fad64;stroke-width:5.386;stroke-linecap:round;stroke-linejoin:round;stroke-dasharray:none;stroke-opacity:1" id="path21" ns1:flatsided="true" ns0:sides="6" ns0:cx="135" ns0:cy="61" ns0:r1="25.317978" ns0:r2="21.926012" ns0:arg1="1.4121411" ns0:arg2="1.9357398" ns1:rounded="0" ns1:randomized="0" d="m 139,86 -23.65064,-9.035899 -3.99999,-25 L 131,36 l 23.65064,9.035899 3.99999,25 z" transform="translate(3,83.721943)" /><path ns0:type="star" style="fill:#1fad64;fill-opacity:1;stroke:#1fad64;stroke-width:5.31;stroke-linecap:round;stroke-linejoin:round;stroke-dasharray:none;stroke-opacity:1" id="path22" ns1:flatsided="true" ns0:sides="8" ns0:cx="101" ns0:cy="89" ns0:r1="9.8488579" ns0:r2="9.0991583" ns0:arg1="0.41822433" ns0:arg2="0.81092341" ns1:rounded="0" ns1:randomized="0" d="M 110,93 104.53553,98.192388 97,98 91.807612,92.535534 92,85 97.464466,79.807612 105,80 l 5.19239,5.464466 z" transform="translate(83,-52)" /><path ns0:type="star" style="fill:#1c9e5b;fill-opacity:1;stroke:#1c9e5b;stroke-width:5.31;stroke-linecap:round;stroke-linejoin:round;stroke-dasharray:none;stroke-opacity:1" id="path23" ns1:flatsided="true" ns0:sides="8" ns0:cx="121" ns0:cy="225" ns0:r1="15.811388" ns0:r2="14.607818" ns0:arg1="0.60554466" ns0:arg2="0.99824375" ns1:rounded="0" ns1:randomized="0" d="M 134,234 123.82843,240.55635 112,238 105.44365,227.82843 108,216 118.17157,209.44365 130,212 l 6.55635,10.17157 z" transform="translate(10,-1)" /><path ns0:type="star" style="fill:#1c9e5b;fill-opacity:1;stroke:#1c9e5b;stroke-width:5.31;stroke-linecap:round;stroke-linejoin:round;stroke-dasharray:none;stroke-opacity:1" id="path24" ns1:flatsided="false" ns0:sides="9" ns0:cx="149" ns0:cy="52" ns0:r1="4.1231055" ns0:r2="3.809253" ns0:arg1="0.24497866" ns0:arg2="0.59404451" ns1:rounded="0" ns1:randomized="0" d="m 153,53 -0.84333,1.132104 -0.73528,1.205091 -1.37373,0.325157 -1.33788,0.450527 -1.26134,-0.633934 -1.31447,-0.514843 -0.55876,-1.296401 -0.676,-1.239313 0.40527,-1.352268 0.27877,-1.383893 1.17968,-0.775393 1.1031,-0.880936 1.40209,0.164297 1.41128,0.03422 0.96846,1.02711 1.05911,0.933367 0.0817,1.409327 z" ns1:transform-center-x="0.050395313" ns1:transform-center-y="0.074388787" transform="translate(67,25)" /><path ns0:type="star" style="fill:#1c9e5b;fill-opacity:1;stroke:#1c9e5b;stroke-width:5.31;stroke-linecap:round;stroke-linejoin:round;stroke-dasharray:none;stroke-opacity:1" id="path24-5" ns1:flatsided="false" ns0:sides="9" ns0:cx="149" ns0:cy="52" ns0:r1="4.1231055" ns0:r2="3.809253" ns0:arg1="0.24497866" ns0:arg2="0.59404451" ns1:rounded="0" ns1:randomized="0" d="m 153,53 -0.84333,1.132104 -0.73528,1.205091 -1.37373,0.325157 -1.33788,0.450527 -1.26134,-0.633934 -1.31447,-0.514843 -0.55876,-1.296401 -0.676,-1.239313 0.40527,-1.352268 0.27877,-1.383893 1.17968,-0.775393 1.1031,-0.880936 1.40209,0.164297 1.41128,0.03422 0.96846,1.02711 1.05911,0.933367 0.0817,1.409327 z" ns1:transform-center-x="0.050395313" ns1:transform-center-y="0.074388787" transform="translate(-50.24423,49.61909)" /><path style="fill:#1fad64;fill-opacity:1;stroke-width:3.22014;stroke-linecap:round;stroke-linejoin:round" d="m 26.019162,172.08238 c -0.915211,-0.638 -12.339248,-13.51251 -13.35605,-15.05182 -0.728221,-1.10244 -0.468989,-2.31067 2.227213,-10.38057 1.678248,-5.0231 3.380776,-9.57593 3.783396,-10.1174 0.695681,-0.93559 16.801709,-4.63408 20.180293,-4.63408 0.986579,0 3.248552,2.10261 8.092191,7.52206 3.697564,4.13714 6.722844,8.02561 6.722844,8.64104 0,0.61544 -1.393471,5.29993 -3.096603,10.40999 -2.416547,7.25058 -3.382103,9.40982 -4.396617,9.832 -0.715007,0.29754 -4.847629,1.23881 -9.183603,2.09172 -4.335974,0.8529 -8.429376,1.68552 -9.096449,1.85025 -0.667073,0.16474 -1.51155,0.0913 -1.876615,-0.16319 z" id="path2" /><ellipse style="fill:#20b669;fill-opacity:1;stroke:none;stroke-width:3.92851;stroke-linecap:square;stroke-opacity:0.390805" id="path1" cx="34.733669" cy="169.38025" rx="20.154104" ry="20.154102" /><path ns0:type="star" style="fill:#20b669;fill-opacity:1;stroke:none;stroke-width:5.339;stroke-linecap:square;stroke-opacity:0.390805" id="path3" ns1:flatsided="true" ns0:sides="8" ns0:cx="132.93132" ns0:cy="133.78894" ns0:r1="23.329824" ns0:r2="21.553947" ns0:arg1="0.62879629" ns0:arg2="1.0214954" ns1:rounded="0" ns1:randomized="0" d="m 151.79899,147.51088 -15.22909,9.3224 -17.36052,-4.17667 -9.3224,-15.22909 4.17667,-17.36052 15.22909,-9.3224 17.36052,4.17667 9.3224,15.22909 z" transform="matrix(0.9255677,0,0,0.86974348,48.487348,-83.343638)" /></g><g transform="translate(512.0,0.0)"><ns0:namedview id="namedview1" pagecolor="#ffffff" bordercolor="#000000" borderopacity="0.25" ns1:showpageshadow="2" ns1:pageopacity="0.0" ns1:pagecheckerboard="0" ns1:deskcolor="#d1d1d1" ns1:zoom="1.1230469" ns1:cx="178.53217" ns1:cy="65.446955" ns1:window-width="1280" ns1:window-height="705" ns1:window-x="-8" ns1:window-y="-8" ns1:window-maximized="1" ns1:current-layer="Layer_1" ns1:clip-to-page="true" /><defs id="defs9" />









<g id="layer1" transform="matrix(0.98290596,0,0,0.97623083,3.5312965,3.4982445)"><rect style="fill:#694630;stroke-width:5.31;stroke-linecap:round;stroke-linejoin:round" id="rect1" width="260.45218" height="262.23306" x="-1.7808696" y="-2.6713042" /></g><path style="fill:none;fill-opacity:1;stroke:none;stroke-width:2.386;stroke-linejoin:round;stroke-dasharray:none;stroke-opacity:1" d="m 211.09584,2.7775769 -9.72152,6.0180831 -5.09222,10.184448 5.09222,8.795661 5.55516,13.887884 1.38878,32.405063 -10.64737,10.184449 17.59132,11.573236 -6.48102,6.943939 -11.1103,6.48102 16.66546,10.18444 5.09222,3.24051 -25.46112,12.4991 20.3689,23.14647 1.38879,23.14647 0.92585,26.84991 -17.12839,13.42496 7.40688,36.57143" id="path13" /><path style="fill:none;fill-opacity:1;stroke:none;stroke-width:2.386;stroke-linejoin:round;stroke-dasharray:none;stroke-opacity:1" d="M 206.46655,3.7034358 196.2821,7.4068716 193.04159,15.739602 V 26.84991 l 9.72152,7.869801 0.92586,11.573237 v 18.980108 l -0.92586,14.350814 -11.57324,5.555154 14.35082,3.703435 6.48101,9.25859 -16.20253,10.647381 14.35081,7.40687 1.38879,7.40687 -17.59132,13.42495 17.12839,19.90597 0.92586,48.14467 -15.7396,20.36889 7.8698,29.16456" id="path14" /><ellipse style="fill:#4f3422;fill-opacity:1;stroke:#4f3422;stroke-width:6.60946;stroke-linejoin:round;stroke-dasharray:none;stroke-opacity:1" id="path16" cx="139.89667" cy="212.63194" rx="23.318907" ry="23.444099" /><ellipse style="fill:#4f3422;fill-opacity:1;stroke:#4f3422;stroke-width:6.88328;stroke-linejoin:round;stroke-dasharray:none;stroke-opacity:1" id="path16-4" cx="100.29131" cy="48.683189" rx="24.962862" ry="23.752403" /><ellipse style="fill:#4f3422;fill-opacity:1;stroke:#4f3422;stroke-width:3.05415;stroke-linejoin:round;stroke-dasharray:none;stroke-opacity:1" id="path16-4-5" cx="176.78639" cy="137.45647" rx="10.947868" ry="10.662539" /><ellipse style="fill:#4f3422;fill-opacity:1;stroke:#4f3422;stroke-width:2.16666;stroke-linejoin:round;stroke-dasharray:none;stroke-opacity:1" id="path16-4-5-5" cx="31.888876" cy="184.00047" rx="8.2750931" ry="7.0993285" /><ellipse style="fill:#4f3422;fill-opacity:1;stroke:#4f3422;stroke-width:2.16666;stroke-linejoin:round;stroke-dasharray:none;stroke-opacity:1" id="path16-4-5-5-1" cx="229.43321" cy="196.26816" rx="8.2750931" ry="7.0993285" /><path style="fill:#4f3422;fill-opacity:1;stroke:none;stroke-width:5.07011;stroke-linejoin:round;stroke-dasharray:none;stroke-opacity:1" id="path17" d="M 35.952859,31.4597 24.076596,38.009876 11.971859,31.823728 11.743385,19.087405 23.619648,12.537228 35.724385,18.723376 Z" /><path style="fill:#4f3422;fill-opacity:1;stroke:none;stroke-width:5.386;stroke-linejoin:round;stroke-dasharray:none;stroke-opacity:1" id="path18" d="m 204.59798,43.804861 -17.12056,2.246723 -10.50599,-13.703475 6.61455,-15.950199 17.12056,-2.246723 10.506,13.703475 z" /><path style="fill:#4f3422;fill-opacity:1;stroke:none;stroke-width:5.386;stroke-linejoin:round;stroke-dasharray:none;stroke-opacity:1" id="path19" d="m 238.63685,88.390418 -1.08515,14.669452 -13.24669,6.39495 -12.16154,-8.27449 1.08515,-14.669452 13.24669,-6.39496 z" /><path style="fill:#4f3422;fill-opacity:1;stroke:none;stroke-width:6.25656;stroke-linejoin:round;stroke-dasharray:none;stroke-opacity:1" id="path19-4" d="m 76.022795,125.80579 -14.813256,9.0303 -15.800452,-7.43721 -0.987205,-16.46751 14.813256,-9.0303 15.800461,7.43721 z" /></g><g transform="translate(0.0,256.0)"><ns0:namedview id="namedview1" pagecolor="#ffffff" bordercolor="#000000" borderopacity="0.25" ns1:showpageshadow="2" ns1:pageopacity="0.0" ns1:pagecheckerboard="0" ns1:deskcolor="#d1d1d1" ns1:zoom="1.1660156" ns1:cx="176.24121" ns1:cy="159.9464" ns1:window-width="1280" ns1:window-height="705" ns1:window-x="-8" ns1:window-y="-8" ns1:window-maximized="1" ns1:current-layer="Layer_1" showguides="false" ns1:clip-to-page="true" /><defs id="defs9" />









<path style="fill:none;fill-opacity:1;stroke:#000000;stroke-width:7.243;stroke-linecap:square;stroke-linejoin:miter;stroke-dasharray:none;stroke-opacity:0.390805" d="m 241.34569,2.7944353 -0.57457,19.2890077 10.05485,20.152694 -0.57457,40.305391 -12.35307,13.243197 11.20397,10.652155 -11.20397,12.66739 12.92764,34.54746 -13.78948,38.00224 10.91667,8.92476 0.86185,27.92587 -8.04389,7.1974 0.2873,17.84953" id="path3-2" /><path style="fill:#69462e;fill-opacity:1;stroke:#69462e;stroke-width:5.528;stroke-linecap:square;stroke-linejoin:miter;stroke-dasharray:none;stroke-opacity:1" d="m 236.50768,248.33306 -0.30322,-14.2511 6.97394,-6.97395 -1.21286,-24.56041 -9.09644,-10.61253 11.82538,-38.5083 -10.91574,-35.17293 9.39966,-12.1286 -10.61252,-10.006095 11.82538,-15.160748 0.30322,-39.114731 -9.39966,-21.225048 0.90964,-13.0382438 -33.35365,-2.1225048 11.21896,244.6944806 z" id="path4" /><g ns1:groupmode="layer" id="layer2" ns1:label="Layer 12" /><rect style="fill:none;fill-opacity:1;stroke-width:5.31;stroke-linecap:round;stroke-linejoin:round" id="rect1" width="251.062" height="257.73273" x="-10.915739" y="-1.8192898" /><rect style="fill:#69462e;fill-opacity:1;stroke-width:5.4311;stroke-linecap:round;stroke-linejoin:round" id="rect2" width="232.84422" height="257.71524" x="-9.1636103e-08" y="-0.764" /><path style="fill:none;fill-opacity:1;stroke:#4f3422;stroke-width:5.339;stroke-linecap:square;stroke-linejoin:miter;stroke-dasharray:none;stroke-opacity:1" d="m 239.34561,2.4174221 -0.50867,19.3369219 8.90153,20.202754 -0.50867,40.40551 -10.93614,13.276095 9.91884,10.678607 -9.91884,12.69887 11.44481,34.63328 -12.2078,38.09663 9.6645,8.94693 0.763,27.99525 -7.12123,7.21527 0.25433,17.89387" id="path3" /><rect style="fill:none;fill-opacity:1;stroke:#69462e;stroke-width:5.61651;stroke-linecap:square;stroke-linejoin:miter;stroke-dasharray:none;stroke-opacity:1" id="rect3" width="16.536345" height="4.4077458" x="218.66223" y="249.59015" /><rect style="fill:none;fill-opacity:1;stroke:#69462e;stroke-width:5.2309;stroke-linecap:square;stroke-linejoin:miter;stroke-dasharray:none;stroke-opacity:1" id="rect3-1" width="16.064274" height="3.9356744" x="218.54546" y="2.41745" /><ellipse style="fill:#4f3422;fill-opacity:1;stroke:#69462e;stroke-width:6.27612;stroke-linecap:square;stroke-linejoin:miter;stroke-dasharray:none;stroke-opacity:1" id="path5" cx="191.67839" cy="204.11391" rx="28.356264" ry="26.21221" /><ellipse style="fill:#4f3422;fill-opacity:1;stroke:#69462e;stroke-width:6.27612;stroke-linecap:square;stroke-linejoin:miter;stroke-dasharray:none;stroke-opacity:1" id="path5-8" cx="67.281593" cy="63.554619" rx="28.356264" ry="26.21221" /><path ns0:type="star" style="fill:#4f3422;fill-opacity:1;stroke:#69462e;stroke-width:5.528;stroke-linecap:square;stroke-linejoin:miter;stroke-dasharray:none;stroke-opacity:1" id="path6" ns1:flatsided="true" ns0:sides="8" ns0:cx="58.318256" ns0:cy="129.50084" ns0:r1="27.255636" ns0:r2="25.180923" ns0:arg1="-0.42141921" ns0:arg2="-0.028720125" ns1:rounded="0" ns1:randomized="0" d="m 83.189279,118.35176 0.599035,20.85196 -14.320979,15.16814 -20.851958,0.59904 -15.168143,-14.32098 -0.599035,-20.85196 14.320978,-15.16814 20.851958,-0.59904 z" transform="matrix(0.77501983,0,0,0.7549521,-7.0336502,90.052162)" /><path ns0:type="star" style="fill:#4f3422;fill-opacity:1;stroke:#69462e;stroke-width:5.528;stroke-linecap:square;stroke-linejoin:miter;stroke-dasharray:none;stroke-opacity:1" id="path7" ns1:flatsided="true" ns0:sides="6" ns0:cx="156.0871" ns0:cy="48.884422" ns0:r1="21.440536" ns0:r2="18.568048" ns0:arg1="0.28379411" ns0:arg2="0.80739288" ns1:rounded="0" ns1:randomized="0" d="M 176.67001,54.887773 161.1795,69.711425 140.59659,63.708074 135.50418,42.881072 150.99469,28.05742 171.57761,34.06077 Z" transform="translate(28.301508,-18.01005)" /><path ns0:type="star" style="fill:#4f3422;fill-opacity:1;stroke:#69462e;stroke-width:5.528;stroke-linecap:square;stroke-linejoin:miter;stroke-dasharray:none;stroke-opacity:1" id="path7-7" ns1:flatsided="true" ns0:sides="6" ns0:cx="156.0871" ns0:cy="48.884422" ns0:r1="21.440536" ns0:r2="18.568048" ns0:arg1="0.28379411" ns0:arg2="0.80739288" ns1:rounded="0" ns1:randomized="0" d="M 176.67001,54.887773 161.1795,69.711425 140.59659,63.708074 135.50418,42.881072 150.99469,28.05742 171.57761,34.06077 Z" transform="rotate(-77.238903,217.93552,65.630452)" /><ellipse style="fill:#4f3422;fill-opacity:1;stroke:#69462e;stroke-width:5.528;stroke-linecap:square;stroke-linejoin:miter;stroke-dasharray:none;stroke-opacity:1" id="path8" cx="134.64656" cy="129.92964" rx="7.7185931" ry="8.1474037" /><ellipse style="fill:#4f3422;fill-opacity:1;stroke:#69462e;stroke-width:5.528;stroke-linecap:square;stroke-linejoin:miter;stroke-dasharray:none;stroke-opacity:1" id="path9" cx="42.452263" cy="22.298157" rx="9.8626461" ry="9.433836" /><ellipse style="fill:#4f3422;fill-opacity:1;stroke:#69462e;stroke-width:5.528;stroke-linecap:square;stroke-linejoin:miter;stroke-dasharray:none;stroke-opacity:1" id="path10" cx="97.340034" cy="234.13065" rx="9.0050249" ry="9.433836" /></g></svg>