<?xml version='1.0' encoding='utf-8'?>
<svg xmlns:ns0="http://sodipodi.sourceforge.net/DTD/sodipodi-0.dtd" xmlns:ns1="http://www.inkscape.org/namespaces/inkscape" version="1.1" xmlns="http://www.w3.org/2000/svg" width="1024.0" height="1024.0" viewBox="0 0 1024.0 1024.0"><g transform="translate(0,0)"><ns0:namedview id="namedview1" pagecolor="#ffffff" bordercolor="#000000" borderopacity="0.25" ns1:showpageshadow="2" ns1:pageopacity="0.0" ns1:pagecheckerboard="0" ns1:deskcolor="#d1d1d1" ns1:zoom="1.1660156" ns1:cx="176.24121" ns1:cy="159.9464" ns1:window-width="1280" ns1:window-height="705" ns1:window-x="-8" ns1:window-y="-8" ns1:window-maximized="1" ns1:current-layer="Layer_1" showguides="false" ns1:clip-to-page="true" /><defs id="defs9" />









<path style="fill:none;fill-opacity:1;stroke:#000000;stroke-width:7.243;stroke-linecap:square;stroke-linejoin:miter;stroke-dasharray:none;stroke-opacity:0.390805" d="m 241.34569,2.7944353 -0.57457,19.2890077 10.05485,20.152694 -0.57457,40.305391 -12.35307,13.243197 11.20397,10.652155 -11.20397,12.66739 12.92764,34.54746 -13.78948,38.00224 10.91667,8.92476 0.86185,27.92587 -8.04389,7.1974 0.2873,17.84953" id="path3-2" /><path style="fill:#69462e;fill-opacity:1;stroke:#69462e;stroke-width:5.528;stroke-linecap:square;stroke-linejoin:miter;stroke-dasharray:none;stroke-opacity:1" d="m 236.50768,248.33306 -0.30322,-14.2511 6.97394,-6.97395 -1.21286,-24.56041 -9.09644,-10.61253 11.82538,-38.5083 -10.91574,-35.17293 9.39966,-12.1286 -10.61252,-10.006095 11.82538,-15.160748 0.30322,-39.114731 -9.39966,-21.225048 0.90964,-13.0382438 -33.35365,-2.1225048 11.21896,244.6944806 z" id="path4" /><g ns1:groupmode="layer" id="layer2" ns1:label="Layer 12" /><rect style="fill:none;fill-opacity:1;stroke-width:5.31;stroke-linecap:round;stroke-linejoin:round" id="rect1" width="251.062" height="257.73273" x="-10.915739" y="-1.8192898" /><rect style="fill:#69462e;fill-opacity:1;stroke-width:5.4311;stroke-linecap:round;stroke-linejoin:round" id="rect2" width="232.84422" height="257.71524" x="-9.1636103e-08" y="-0.764" /><path style="fill:none;fill-opacity:1;stroke:#4f3422;stroke-width:5.339;stroke-linecap:square;stroke-linejoin:miter;stroke-dasharray:none;stroke-opacity:1" d="m 239.34561,2.4174221 -0.50867,19.3369219 8.90153,20.202754 -0.50867,40.40551 -10.93614,13.276095 9.91884,10.678607 -9.91884,12.69887 11.44481,34.63328 -12.2078,38.09663 9.6645,8.94693 0.763,27.99525 -7.12123,7.21527 0.25433,17.89387" id="path3" /><rect style="fill:none;fill-opacity:1;stroke:#69462e;stroke-width:5.61651;stroke-linecap:square;stroke-linejoin:miter;stroke-dasharray:none;stroke-opacity:1" id="rect3" width="16.536345" height="4.4077458" x="218.66223" y="249.59015" /><rect style="fill:none;fill-opacity:1;stroke:#69462e;stroke-width:5.2309;stroke-linecap:square;stroke-linejoin:miter;stroke-dasharray:none;stroke-opacity:1" id="rect3-1" width="16.064274" height="3.9356744" x="218.54546" y="2.41745" /><ellipse style="fill:#4f3422;fill-opacity:1;stroke:#69462e;stroke-width:6.27612;stroke-linecap:square;stroke-linejoin:miter;stroke-dasharray:none;stroke-opacity:1" id="path5" cx="191.67839" cy="204.11391" rx="28.356264" ry="26.21221" /><ellipse style="fill:#4f3422;fill-opacity:1;stroke:#69462e;stroke-width:6.27612;stroke-linecap:square;stroke-linejoin:miter;stroke-dasharray:none;stroke-opacity:1" id="path5-8" cx="67.281593" cy="63.554619" rx="28.356264" ry="26.21221" /><path ns0:type="star" style="fill:#4f3422;fill-opacity:1;stroke:#69462e;stroke-width:5.528;stroke-linecap:square;stroke-linejoin:miter;stroke-dasharray:none;stroke-opacity:1" id="path6" ns1:flatsided="true" ns0:sides="8" ns0:cx="58.318256" ns0:cy="129.50084" ns0:r1="27.255636" ns0:r2="25.180923" ns0:arg1="-0.42141921" ns0:arg2="-0.028720125" ns1:rounded="0" ns1:randomized="0" d="m 83.189279,118.35176 0.599035,20.85196 -14.320979,15.16814 -20.851958,0.59904 -15.168143,-14.32098 -0.599035,-20.85196 14.320978,-15.16814 20.851958,-0.59904 z" transform="matrix(0.77501983,0,0,0.7549521,-7.0336502,90.052162)" /><path ns0:type="star" style="fill:#4f3422;fill-opacity:1;stroke:#69462e;stroke-width:5.528;stroke-linecap:square;stroke-linejoin:miter;stroke-dasharray:none;stroke-opacity:1" id="path7" ns1:flatsided="true" ns0:sides="6" ns0:cx="156.0871" ns0:cy="48.884422" ns0:r1="21.440536" ns0:r2="18.568048" ns0:arg1="0.28379411" ns0:arg2="0.80739288" ns1:rounded="0" ns1:randomized="0" d="M 176.67001,54.887773 161.1795,69.711425 140.59659,63.708074 135.50418,42.881072 150.99469,28.05742 171.57761,34.06077 Z" transform="translate(28.301508,-18.01005)" /><path ns0:type="star" style="fill:#4f3422;fill-opacity:1;stroke:#69462e;stroke-width:5.528;stroke-linecap:square;stroke-linejoin:miter;stroke-dasharray:none;stroke-opacity:1" id="path7-7" ns1:flatsided="true" ns0:sides="6" ns0:cx="156.0871" ns0:cy="48.884422" ns0:r1="21.440536" ns0:r2="18.568048" ns0:arg1="0.28379411" ns0:arg2="0.80739288" ns1:rounded="0" ns1:randomized="0" d="M 176.67001,54.887773 161.1795,69.711425 140.59659,63.708074 135.50418,42.881072 150.99469,28.05742 171.57761,34.06077 Z" transform="rotate(-77.238903,217.93552,65.630452)" /><ellipse style="fill:#4f3422;fill-opacity:1;stroke:#69462e;stroke-width:5.528;stroke-linecap:square;stroke-linejoin:miter;stroke-dasharray:none;stroke-opacity:1" id="path8" cx="134.64656" cy="129.92964" rx="7.7185931" ry="8.1474037" /><ellipse style="fill:#4f3422;fill-opacity:1;stroke:#69462e;stroke-width:5.528;stroke-linecap:square;stroke-linejoin:miter;stroke-dasharray:none;stroke-opacity:1" id="path9" cx="42.452263" cy="22.298157" rx="9.8626461" ry="9.433836" /><ellipse style="fill:#4f3422;fill-opacity:1;stroke:#69462e;stroke-width:5.528;stroke-linecap:square;stroke-linejoin:miter;stroke-dasharray:none;stroke-opacity:1" id="path10" cx="97.340034" cy="234.13065" rx="9.0050249" ry="9.433836" /></g><g transform="translate(512.0,0.0)"><ns0:namedview id="namedview1" pagecolor="#ffffff" bordercolor="#000000" borderopacity="0.25" ns1:showpageshadow="2" ns1:pageopacity="0.0" ns1:pagecheckerboard="0" ns1:deskcolor="#d1d1d1" ns1:zoom="1.1230469" ns1:cx="177.64174" ns1:cy="66.33739" ns1:window-width="1280" ns1:window-height="705" ns1:window-x="-8" ns1:window-y="-8" ns1:window-maximized="1" ns1:current-layer="layer1" ns1:clip-to-page="true" /><defs id="defs9" />









<g id="layer1" transform="matrix(1.0376068,0,0,1.0475381,-3.4947661,-4.3251851)"><rect style="fill:#694630;stroke-width:4.98914;stroke-linecap:round;stroke-linejoin:round" id="rect1" width="246.72159" height="244.38252" x="3.3681026" y="4.1289048" /></g><path style="fill:none;fill-opacity:1;stroke:none;stroke-width:2.386;stroke-linejoin:round;stroke-dasharray:none;stroke-opacity:1" d="m 210.20541,3.6680114 -9.72152,6.0180831 -5.09222,10.1844475 5.09222,8.795661 5.55516,13.887884 1.38878,32.405063 -10.64737,10.184449 17.59132,11.573236 -6.48102,6.943935 -11.1103,6.48102 16.66546,10.18444 5.09222,3.24051 -25.46112,12.4991 20.3689,23.14647 1.38879,23.14647 0.92585,26.84991 -17.12839,13.42496 7.40688,36.57143" id="path13" /><path style="fill:none;fill-opacity:1;stroke:none;stroke-width:2.386;stroke-linejoin:round;stroke-dasharray:none;stroke-opacity:1" d="m 205.57612,4.5938703 -10.18445,3.7034358 -3.24051,8.3327299 v 11.110308 l 9.72152,7.869801 0.92586,11.573237 V 66.16349 l -0.92586,14.350814 -11.57324,5.555154 14.35082,3.703435 6.48101,9.25859 -16.20253,10.647377 14.35081,7.40687 1.38879,7.40687 -17.59132,13.42495 17.12839,19.90597 0.92586,48.14467 -15.7396,20.36889 7.8698,29.16456" id="path14" /><ellipse style="fill:#4f3422;fill-opacity:1;stroke:#4f3422;stroke-width:6.60946;stroke-linejoin:round;stroke-dasharray:none;stroke-opacity:1" id="path16" cx="139.00623" cy="213.52238" rx="23.318907" ry="23.444099" /><ellipse style="fill:#4f3422;fill-opacity:1;stroke:#4f3422;stroke-width:6.88328;stroke-linejoin:round;stroke-dasharray:none;stroke-opacity:1" id="path16-4" cx="99.400879" cy="49.573624" rx="24.962862" ry="23.752403" /><ellipse style="fill:#4f3422;fill-opacity:1;stroke:#4f3422;stroke-width:3.05415;stroke-linejoin:round;stroke-dasharray:none;stroke-opacity:1" id="path16-4-5" cx="175.89595" cy="138.34691" rx="10.947868" ry="10.662539" /><ellipse style="fill:#4f3422;fill-opacity:1;stroke:#4f3422;stroke-width:2.16666;stroke-linejoin:round;stroke-dasharray:none;stroke-opacity:1" id="path16-4-5-5" cx="30.998442" cy="184.89091" rx="8.2750931" ry="7.0993285" /><ellipse style="fill:#4f3422;fill-opacity:1;stroke:#4f3422;stroke-width:2.16666;stroke-linejoin:round;stroke-dasharray:none;stroke-opacity:1" id="path16-4-5-5-1" cx="228.54277" cy="197.1586" rx="8.2750931" ry="7.0993285" /><path style="fill:#4f3422;fill-opacity:1;stroke:none;stroke-width:5.07011;stroke-linejoin:round;stroke-dasharray:none;stroke-opacity:1" id="path17" d="M 35.062425,32.350134 23.186162,38.90031 11.081425,32.714162 10.852951,19.977839 22.729214,13.427662 34.833951,19.61381 Z" /><path style="fill:#4f3422;fill-opacity:1;stroke:none;stroke-width:5.386;stroke-linejoin:round;stroke-dasharray:none;stroke-opacity:1" id="path18" d="m 203.70755,44.695295 -17.12056,2.246723 -10.50599,-13.703475 6.61455,-15.950199 17.12056,-2.246723 10.506,13.703475 z" /><path style="fill:#4f3422;fill-opacity:1;stroke:none;stroke-width:5.386;stroke-linejoin:round;stroke-dasharray:none;stroke-opacity:1" id="path19" d="m 237.74642,89.280852 -1.08515,14.669448 -13.24669,6.39495 -12.16154,-8.27449 1.08515,-14.669448 13.24669,-6.39496 z" /><path style="fill:#4f3422;fill-opacity:1;stroke:none;stroke-width:6.25656;stroke-linejoin:round;stroke-dasharray:none;stroke-opacity:1" id="path19-4" d="m 75.132361,126.69622 -14.813256,9.0303 -15.800452,-7.43721 -0.987205,-16.46751 14.813256,-9.0303 15.800461,7.43721 z" /></g></svg>