<?xml version="1.0" encoding="UTF-8" standalone="no"?>
<!-- Created with Inkscape (http://www.inkscape.org/) -->

<svg
   width="148.51273mm"
   height="148.37975mm"
   viewBox="0 0 148.51273 148.37974"
   version="1.1"
   id="svg1"
   inkscape:version="1.4 (86a8ad7, 2024-10-11)"
   sodipodi:docname="Speedy Monster.svg"
   xmlns:inkscape="http://www.inkscape.org/namespaces/inkscape"
   xmlns:sodipodi="http://sodipodi.sourceforge.net/DTD/sodipodi-0.dtd"
   xmlns="http://www.w3.org/2000/svg"
   xmlns:svg="http://www.w3.org/2000/svg">
  <sodipodi:namedview
     id="namedview1"
     pagecolor="#ffffff"
     bordercolor="#000000"
     borderopacity="0.25"
     inkscape:showpageshadow="2"
     inkscape:pageopacity="0.0"
     inkscape:pagecheckerboard="0"
     inkscape:deskcolor="#d1d1d1"
     inkscape:document-units="mm"
     inkscape:zoom="1.1005702"
     inkscape:cx="257.59374"
     inkscape:cy="285.76095"
     inkscape:window-width="1280"
     inkscape:window-height="705"
     inkscape:window-x="-8"
     inkscape:window-y="-8"
     inkscape:window-maximized="1"
     inkscape:current-layer="layer1" />
  <defs
     id="defs1" />
  <g
     inkscape:label="Camada 1"
     inkscape:groupmode="layer"
     id="layer1"
     transform="translate(-132.46185,-178.02016)">
    <path
       style="fill:#76a5d5;fill-opacity:0.988235;stroke:#4c7eb8;stroke-width:10;stroke-linecap:round;stroke-linejoin:round;stroke-dasharray:none;stroke-opacity:1;paint-order:markers stroke fill"
       d="m 169.05701,254.62678 -8.62268,-11.09402 -4.07937,-11.93182 -2.21536,-18.38269 1.80302,-12.33971 4.85879,-8.8544 4.09821,-5.67132 6.4996,-3.09476 -3.47856,9.16745 -1.29346,7.1746 1.0102,7.84065 3.83616,22.07695 14.69819,19.83907"
       id="path3-8-1-1"
       sodipodi:nodetypes="ccccccccccccc" />
    <path
       style="fill:#76a5d5;fill-opacity:0.988235;stroke:#4c7eb8;stroke-width:10;stroke-linecap:round;stroke-linejoin:round;stroke-dasharray:none;stroke-opacity:1;paint-order:markers stroke fill"
       d="m 191.15213,254.38839 -8.62268,-11.09402 -4.07937,-11.93182 -2.21536,-18.38269 1.80302,-12.33971 4.85879,-8.8544 4.09821,-5.67132 6.4996,-3.09476 -3.47856,9.16745 -1.29346,7.1746 1.0102,7.84065 3.83616,22.07695 14.69819,19.83907"
       id="path3-8-1-1-7"
       sodipodi:nodetypes="ccccccccccccc" />
    <path
       style="fill:#76a5d5;fill-opacity:0.988235;stroke:#4c7eb8;stroke-width:10;stroke-linecap:round;stroke-linejoin:round;stroke-dasharray:none;stroke-opacity:1;paint-order:markers stroke fill"
       d="m 244.47872,254.49641 8.62268,-11.09402 4.07937,-11.93182 2.21536,-18.38269 -1.80302,-12.33971 -4.85879,-8.8544 -4.09821,-5.67132 -6.4996,-3.09476 3.47856,9.16745 1.29346,7.1746 -1.0102,7.84065 -3.83616,22.07695 -14.69819,19.83907"
       id="path3-8-1-1-9"
       sodipodi:nodetypes="ccccccccccccc" />
    <path
       style="fill:#76a5d5;fill-opacity:0.988235;stroke:#4c7eb8;stroke-width:10;stroke-linecap:round;stroke-linejoin:round;stroke-dasharray:none;stroke-opacity:1;paint-order:markers stroke fill"
       d="m 221.90278,254.73884 8.62268,-11.09402 4.07937,-11.93182 2.21536,-18.38269 -1.80302,-12.33971 -4.85879,-8.8544 -4.09821,-5.67132 -6.4996,-3.09476 3.47856,9.16745 1.29346,7.1746 -1.0102,7.84065 -3.83616,22.07695 -14.69819,19.83907"
       id="path3-8-1-1-7-8"
       sodipodi:nodetypes="ccccccccccccc" />
    <path
       style="fill:#95b3df;fill-opacity:0.979624;stroke:#4c7eb8;stroke-width:10;stroke-linecap:round;stroke-linejoin:round;stroke-dasharray:none;stroke-opacity:1;paint-order:markers stroke fill"
       d="m 177.23246,233.99945 -6.80716,12.29189 -2.18898,12.41845 0.6483,18.50435 3.68588,11.91359 6.16713,7.99842 4.9244,4.97087 6.89935,2.05455 -4.85175,-8.52074 -2.38526,-6.88901 -0.212,-7.90262 0.38292,-22.40449 11.4602,-21.86983"
       id="path3-8-1"
       sodipodi:nodetypes="ccccccccccccc" />
    <path
       style="fill:#95b3df;fill-opacity:0.979624;stroke:#4c7eb8;stroke-width:10;stroke-linecap:round;stroke-linejoin:round;stroke-dasharray:none;stroke-opacity:1;paint-order:markers stroke fill"
       d="m 236.29025,234.39376 6.80716,12.29189 2.18898,12.41845 -0.6483,18.50435 -3.68588,11.91359 -6.16713,7.99842 -4.9244,4.97087 -6.89935,2.05455 4.85175,-8.52074 2.38526,-6.88901 0.212,-7.90262 -0.38292,-22.40449 -11.4602,-21.86983"
       id="path3-8-1-2"
       sodipodi:nodetypes="ccccccccccccc" />
    <ellipse
       style="fill:#76a5d5;fill-opacity:0.989276;stroke:#4c7eb8;stroke-width:14.0002;stroke-linecap:round;stroke-linejoin:round;stroke-dasharray:none;stroke-opacity:1;paint-order:markers stroke fill"
       id="path2"
       transform="matrix(0.14926036,-0.98879793,0.98938256,0.14533464,0,0)"
       cy="239.54039"
       cx="-207.53885"
       rx="42.457333"
       ry="45.750179" />
    <ellipse
       style="fill:#76a5d5;fill-opacity:0.989276;stroke:#4c7eb8;stroke-width:8;stroke-linecap:round;stroke-linejoin:round;stroke-dasharray:none;stroke-opacity:1;paint-order:markers stroke fill"
       id="path2-7"
       transform="matrix(0.14690662,-0.98915037,0.98903754,0.14766429,0,0)"
       cy="195.72989"
       cx="-281.67587"
       rx="14.856647"
       ry="15.761927" />
    <ellipse
       style="fill:#76a5d5;fill-opacity:0.989276;stroke:#4c7eb8;stroke-width:8;stroke-linecap:round;stroke-linejoin:round;stroke-dasharray:none;stroke-opacity:1;paint-order:markers stroke fill"
       id="path2-7-9"
       transform="matrix(0.14690662,-0.98915037,0.98903754,0.14766429,0,0)"
       cy="303.5278"
       cx="-265.25778"
       rx="14.856647"
       ry="15.761927" />
    <path
       style="fill:#95b3df;fill-opacity:0.979624;stroke:none;stroke-width:7.99999;stroke-linecap:round;stroke-linejoin:round;stroke-dasharray:none;stroke-opacity:1;paint-order:markers stroke fill"
       d="m 162.03272,253.00771 8.88384,14.11518 9.92208,8.25406 7.16008,3.77011 8.04088,2.48944 10.93216,1.14179 13.8938,-2.22087 8.58732,-3.53601 10.29611,-6.94953 6.49326,-9.07167 4.02033,-8.03395 -16.88994,13.32481 -16.20798,8.01304 -21.38332,0.0881 -17.3288,-8.10114 z"
       id="path6"
       sodipodi:nodetypes="cccccccccccccccc" />
    <path
       style="fill:#95b3df;fill-opacity:0.979624;stroke:none;stroke-width:7.99999;stroke-linecap:round;stroke-linejoin:round;stroke-dasharray:none;stroke-opacity:1;paint-order:markers stroke fill"
       d="m 244.63672,274.71868 -0.70727,-5.3009 -1.76816,-5.11811 -14.85256,12.06412 3.00587,8.04275 0.17681,6.94601 z"
       id="path7-3" />
    <ellipse
       style="fill:#000000;fill-opacity:1;stroke:none;stroke-width:8.00001;stroke-linecap:round;stroke-linejoin:round;stroke-dasharray:none;stroke-opacity:1;paint-order:markers stroke fill"
       id="path3-6"
       cx="227.34666"
       cy="263.57187"
       rx="12.717561"
       ry="11.983977" />
    <ellipse
       style="fill:#ffffff;fill-opacity:1;stroke:none;stroke-width:7.99999;stroke-linecap:round;stroke-linejoin:round;stroke-dasharray:none;stroke-opacity:1;paint-order:markers stroke fill"
       id="path4-1"
       cx="227.29689"
       cy="267.80133"
       rx="6.9971981"
       ry="7.1154156" />
    <ellipse
       style="fill:#000000;fill-opacity:1;stroke:none;stroke-width:8.00001;stroke-linecap:round;stroke-linejoin:round;stroke-dasharray:none;stroke-opacity:1;paint-order:markers stroke fill"
       id="path3-6-3"
       cx="186.8266"
       cy="262.81375"
       rx="12.717561"
       ry="11.983977" />
    <ellipse
       style="fill:#ffffff;fill-opacity:1;stroke:none;stroke-width:7.99999;stroke-linecap:round;stroke-linejoin:round;stroke-dasharray:none;stroke-opacity:1;paint-order:markers stroke fill"
       id="path4-1-4"
       cx="186.77682"
       cy="267.04321"
       rx="6.9971981"
       ry="7.1154156" />
    <circle
       style="fill:#ffffff;fill-opacity:0.180593;stroke:none;stroke-width:7.99999;stroke-linecap:round;stroke-linejoin:round;stroke-dasharray:none;stroke-opacity:1;paint-order:markers stroke fill"
       id="path5"
       cx="192.44301"
       cy="232.93987"
       r="12.396522"
       inkscape:transform-center-x="1.5495652"
       inkscape:transform-center-y="7.7478261" />
    <circle
       style="fill:#ffffff;fill-opacity:0.180593;stroke:none;stroke-width:7.99999;stroke-linecap:round;stroke-linejoin:round;stroke-dasharray:none;stroke-opacity:1;paint-order:markers stroke fill"
       id="path5-7"
       cx="220.10663"
       cy="232.823"
       r="12.396522"
       inkscape:transform-center-x="1.5495652"
       inkscape:transform-center-y="7.7478261" />
    <circle
       style="fill:#ffffff;fill-opacity:0.180593;stroke:none;stroke-width:8;stroke-linecap:round;stroke-linejoin:round;stroke-dasharray:none;stroke-opacity:1;paint-order:markers stroke fill"
       id="path5-7-2"
       cx="214.39388"
       cy="213.33992"
       inkscape:transform-center-x="1.0007754"
       inkscape:transform-center-y="5.0038051"
       r="8.0060863" />
    <circle
       style="fill:#ffffff;fill-opacity:0.180593;stroke:none;stroke-width:8;stroke-linecap:round;stroke-linejoin:round;stroke-dasharray:none;stroke-opacity:1;paint-order:markers stroke fill"
       id="path5-7-2-1"
       cx="196.35599"
       cy="212.47269"
       inkscape:transform-center-x="1.0007754"
       inkscape:transform-center-y="5.0038051"
       r="8.0060863" />
    <path
       style="fill:#95b3df;fill-opacity:0.979624;stroke:none;stroke-width:7.99999;stroke-linecap:round;stroke-linejoin:round;stroke-dasharray:none;stroke-opacity:1;paint-order:markers stroke fill"
       d="m 168.88599,275.95514 0.68562,-4.7812 1.71403,-4.61634 14.39789,10.88137 -2.91385,7.25424 -0.1714,6.26503 z"
       id="path7" />
    <path
       style="fill:#76a5d5;fill-opacity:0.988235;stroke:none;stroke-width:10;stroke-linecap:round;stroke-linejoin:round;stroke-dasharray:none;stroke-opacity:1;paint-order:markers stroke fill"
       d="m 154.80411,222.60291 6.7997,15.6393 11.55949,-26.85881 -4.07982,-3.73983 -3.39985,-3.73984 z"
       id="path8" />
    <path
       style="fill:#76a5d5;fill-opacity:0.988235;stroke:none;stroke-width:10;stroke-linecap:round;stroke-linejoin:round;stroke-dasharray:none;stroke-opacity:1;paint-order:markers stroke fill"
       d="m 258.21451,226.82072 -6.7997,15.6393 -11.55949,-26.85881 -0.007,-3.73983 7.48675,-3.73984 z"
       id="path8-2"
       sodipodi:nodetypes="cccccc" />
    <path
       style="fill:#76a5d5;fill-opacity:0.988235;stroke:none;stroke-width:10;stroke-linecap:round;stroke-linejoin:round;stroke-dasharray:none;stroke-opacity:1;paint-order:markers stroke fill"
       d="m 181.42251,194.52498 -3.39985,7.81965 0.33998,6.11973 15.29933,-5.77974 -2.3799,-7.47967 -0.33998,-7.47967 z"
       id="path9"
       sodipodi:nodetypes="ccccccc" />
    <path
       style="fill:#76a5d5;fill-opacity:0.988235;stroke:none;stroke-width:10;stroke-linecap:round;stroke-linejoin:round;stroke-dasharray:none;stroke-opacity:1;paint-order:markers stroke fill"
       d="m 232.45642,196.67879 3.39985,7.81965 -0.33998,6.11973 -15.29933,-5.77974 2.3799,-7.47967 0.33998,-7.47967 z"
       id="path9-2"
       sodipodi:nodetypes="ccccccc" />
  </g>
</svg>
