<?xml version="1.0" encoding="UTF-8" standalone="no"?>
<!-- Created with Inkscape (http://www.inkscape.org/) -->

<svg
   width="2254.7078"
   height="2433.2227"
   viewBox="0 0 596.55809 643.79016"
   version="1.1"
   id="svg1"
   inkscape:version="1.4 (86a8ad7, 2024-10-11)"
   sodipodi:docname="Stoned_Demon.svg"
   xmlns:inkscape="http://www.inkscape.org/namespaces/inkscape"
   xmlns:sodipodi="http://sodipodi.sourceforge.net/DTD/sodipodi-0.dtd"
   xmlns="http://www.w3.org/2000/svg"
   xmlns:svg="http://www.w3.org/2000/svg">
  <sodipodi:namedview
     id="namedview1"
     pagecolor="#ffffff"
     bordercolor="#000000"
     borderopacity="0.25"
     inkscape:showpageshadow="2"
     inkscape:pageopacity="0.0"
     inkscape:pagecheckerboard="0"
     inkscape:deskcolor="#d1d1d1"
     inkscape:document-units="mm"
     inkscape:zoom="0.12806011"
     inkscape:cx="542.71387"
     inkscape:cy="1222.0823"
     inkscape:window-width="1280"
     inkscape:window-height="705"
     inkscape:window-x="-8"
     inkscape:window-y="-8"
     inkscape:window-maximized="1"
     inkscape:current-layer="layer1" />
  <defs
     id="defs1" />
  <g
     inkscape:label="Camada 1"
     inkscape:groupmode="layer"
     id="layer1"
     transform="translate(-44.781072,-31.641857)">
    <path
       style="fill:#8a8a8a;fill-opacity:1;stroke:#666666;stroke-width:35;stroke-linecap:round;stroke-linejoin:round;stroke-dasharray:none;stroke-opacity:1;paint-order:markers stroke fill"
       d="M 112.3653,144.12626 92.318,99.779704 115.13212,51.695311 134.76077,121.83052"
       id="path10" />
    <path
       style="fill:#8a8a8a;fill-opacity:1;stroke:#666666;stroke-width:35;stroke-linecap:round;stroke-linejoin:round;stroke-dasharray:none;stroke-opacity:1;paint-order:markers stroke fill"
       d="M 239.44272,141.56958 259.49002,97.223025 236.6759,49.138632 217.04725,119.27384"
       id="path10-2" />
    <path
       style="fill:#999999;stroke:#666666;stroke-width:75.0001;stroke-linecap:round;stroke-linejoin:round;stroke-dasharray:none;stroke-opacity:1;paint-order:markers stroke fill"
       d="m 200.07229,410.6671 32.82782,45.45391 -7.72418,55.78435 -56.00042,26.85912 c 0,0 -57.93147,18.59479 -63.72461,30.99131 -5.793145,12.39652 -23.172585,68.18087 -23.172585,68.18087 l 63.724605,-39.25567 77.24195,-4.13216 65.65567,-74.37913 73.37987,-22.72697 15.44837,-55.78433"
       id="path2" />
    <path
       style="fill:#999999;stroke:#666666;stroke-width:75.0001;stroke-linecap:round;stroke-linejoin:round;stroke-dasharray:none;stroke-opacity:1;paint-order:markers stroke fill"
       d="m 486.04797,410.66192 -32.82783,45.45391 7.72418,55.78435 56.00043,26.85912 c 0,0 57.93147,18.59479 63.72461,30.99131 5.79315,12.39652 23.17259,68.18087 23.17259,68.18087 l -63.72461,-39.25567 -77.24196,-4.13216 -65.65566,-74.37913 -73.37987,-22.72697 -15.44837,-55.78433"
       id="path2-9" />
    <ellipse
       style="fill:#999999;stroke:#666666;stroke-width:75;stroke-linecap:round;stroke-linejoin:round;stroke-dasharray:none;stroke-opacity:1;paint-order:markers stroke fill"
       id="path1"
       cx="346.73718"
       cy="376.57666"
       rx="152.8893"
       ry="143.59305" />
    <path
       style="fill:none;fill-opacity:1;stroke:#666666;stroke-width:24;stroke-linecap:round;stroke-linejoin:round;stroke-dasharray:none;stroke-opacity:1;paint-order:markers stroke fill"
       d="m 88.476501,567.68969 57.099129,2.06611 21.41218,47.51998"
       id="path3" />
    <path
       style="fill:none;fill-opacity:1;stroke:#666666;stroke-width:24;stroke-linecap:round;stroke-linejoin:round;stroke-dasharray:none;stroke-opacity:1;paint-order:markers stroke fill"
       d="m 439.7113,604.87928 43.3878,-45.45394 111.5687,8.26437"
       id="path4" />
    <path
       style="fill:none;fill-opacity:1;stroke:#666666;stroke-width:24;stroke-linecap:round;stroke-linejoin:round;stroke-dasharray:none;stroke-opacity:1;paint-order:markers stroke fill"
       d="m 269.99691,516.03754 23.02211,-51.6522 -44.1257,-35.12346 70.9848,-43.38783 -134.29557,-28.92523"
       id="path5" />
    <path
       style="fill:none;fill-opacity:1;stroke:#666666;stroke-width:24;stroke-linecap:round;stroke-linejoin:round;stroke-dasharray:none;stroke-opacity:1;paint-order:markers stroke fill"
       d="m 319.87824,385.87405 76.50781,74.37914 47.08175,-86.77566 70.62263,37.18956"
       id="path6" />
    <path
       style="fill:none;fill-opacity:1;stroke:#666666;stroke-width:24;stroke-linecap:round;stroke-linejoin:round;stroke-dasharray:none;stroke-opacity:1;paint-order:markers stroke fill"
       d="m 321.94433,385.87405 45.45391,-59.91651 74.37913,-22.72697 -4.13218,-59.91652"
       id="path7" />
    <ellipse
       style="fill:#8a8a8a;fill-opacity:1;stroke:#666666;stroke-width:55;stroke-linecap:round;stroke-linejoin:round;stroke-dasharray:none;stroke-opacity:1;paint-order:markers stroke fill"
       id="path9"
       cx="176.55542"
       cy="152.85811"
       rx="56.227596"
       ry="50.484554" />
    <path
       style="fill:none;fill-opacity:1;stroke:#666666;stroke-width:15;stroke-linecap:round;stroke-linejoin:round;stroke-dasharray:none;stroke-opacity:1;paint-order:markers stroke fill"
       d="m 135.07604,201.57127 22.12233,-40.74192 53.46231,12.39971 31.33997,-33.65637 -64.52347,-10.62832 -22.12234,-28.34222"
       id="path11" />
    <path
       style="fill:none;fill-opacity:1;stroke:#666666;stroke-width:15;stroke-linecap:round;stroke-linejoin:round;stroke-dasharray:none;stroke-opacity:1;paint-order:markers stroke fill"
       d="m 170.10307,208.65683 -3.68706,-44.28471 -47.93172,-38.97054"
       id="path12" />
    <path
       style="fill:#8a8a8a;fill-opacity:1;stroke:#666666;stroke-width:35;stroke-linecap:round;stroke-linejoin:round;stroke-dasharray:none;stroke-opacity:1;paint-order:markers stroke fill"
       d="M 460.4253,144.21198 440.37801,99.865431 463.19212,51.781037 482.82076,121.91624"
       id="path10-20" />
    <path
       style="fill:#8a8a8a;fill-opacity:1;stroke:#666666;stroke-width:35;stroke-linecap:round;stroke-linejoin:round;stroke-dasharray:none;stroke-opacity:1;paint-order:markers stroke fill"
       d="M 587.5027,141.65531 607.55001,97.308755 584.73589,49.22436 565.10724,119.35957"
       id="path10-2-0" />
    <ellipse
       style="fill:#8a8a8a;fill-opacity:1;stroke:#666666;stroke-width:55;stroke-linecap:round;stroke-linejoin:round;stroke-dasharray:none;stroke-opacity:1;paint-order:markers stroke fill"
       id="path9-1"
       cx="524.61536"
       cy="152.94383"
       rx="56.227596"
       ry="50.484554" />
    <path
       style="fill:none;fill-opacity:1;stroke:#666666;stroke-width:15;stroke-linecap:round;stroke-linejoin:round;stroke-dasharray:none;stroke-opacity:1;paint-order:markers stroke fill"
       d="m 483.13604,201.65699 22.12232,-40.74192 53.4623,12.39971 31.33997,-33.65637 -64.52346,-10.62832 -22.12234,-28.34221"
       id="path11-4" />
    <path
       style="fill:none;fill-opacity:1;stroke:#666666;stroke-width:15;stroke-linecap:round;stroke-linejoin:round;stroke-dasharray:none;stroke-opacity:1;paint-order:markers stroke fill"
       d="M 518.16306,208.74254 514.476,164.45784 466.54427,125.48731"
       id="path12-6" />
    <path
       style="fill:none;fill-opacity:1;stroke:#666666;stroke-width:25;stroke-linecap:round;stroke-linejoin:round;stroke-dasharray:none;stroke-opacity:1;paint-order:markers stroke fill"
       d="m 319.87825,371.41145 -22.72697,-109.50262 -78.5113,16.5287"
       id="path13" />
  </g>
</svg>
