<?xml version="1.0" encoding="UTF-8" standalone="no"?>
<!-- Created with Inkscape (http://www.inkscape.org/) -->

<svg
   width="136.75053mm"
   height="136.90097mm"
   viewBox="0 0 136.75053 136.90097"
   version="1.1"
   id="svg1"
   inkscape:version="1.4 (86a8ad7, 2024-10-11)"
   sodipodi:docname="Stone_Paladin.svg"
   xmlns:inkscape="http://www.inkscape.org/namespaces/inkscape"
   xmlns:sodipodi="http://sodipodi.sourceforge.net/DTD/sodipodi-0.dtd"
   xmlns="http://www.w3.org/2000/svg"
   xmlns:svg="http://www.w3.org/2000/svg">
  <sodipodi:namedview
     id="namedview1"
     pagecolor="#ffffff"
     bordercolor="#000000"
     borderopacity="0.25"
     inkscape:showpageshadow="2"
     inkscape:pageopacity="0.0"
     inkscape:pagecheckerboard="0"
     inkscape:deskcolor="#d1d1d1"
     inkscape:document-units="mm"
     inkscape:zoom="0.68529465"
     inkscape:cx="169.99987"
     inkscape:cy="327.59631"
     inkscape:window-width="1280"
     inkscape:window-height="705"
     inkscape:window-x="-8"
     inkscape:window-y="-8"
     inkscape:window-maximized="1"
     inkscape:current-layer="layer1" />
  <defs
     id="defs1" />
  <g
     inkscape:label="Camada 1"
     inkscape:groupmode="layer"
     id="layer1"
     transform="translate(-10.240875,-15.013189)">
    <path
       style="fill:#828282;fill-opacity:1;stroke:#6c6c6c;stroke-width:8;stroke-linecap:round;stroke-linejoin:round;stroke-dasharray:none;stroke-opacity:1;paint-order:markers stroke fill"
       d="m 32.98891,103.28927 -9.256786,20.67342 20.090729,-16.13642"
       id="path22" />
    <path
       style="fill:#828282;fill-opacity:1;stroke:#6c6c6c;stroke-width:8;stroke-linecap:round;stroke-linejoin:round;stroke-dasharray:none;stroke-opacity:1;paint-order:markers stroke fill"
       d="m 122.66238,105.38983 9.25678,20.67342 -20.09073,-16.13642"
       id="path22-2" />
    <path
       style="fill:#828282;fill-opacity:1;stroke:#6c6c6c;stroke-width:8;stroke-linecap:round;stroke-linejoin:round;stroke-dasharray:none;stroke-opacity:1;paint-order:markers stroke fill"
       d="m 37.423139,45.393438 -9.010608,-20.29133 19.55643,15.83818"
       id="path22-3" />
    <path
       style="fill:#828282;fill-opacity:1;stroke:#6c6c6c;stroke-width:8;stroke-linecap:round;stroke-linejoin:round;stroke-dasharray:none;stroke-opacity:1;paint-order:markers stroke fill"
       d="m 118.32287,45.605398 9.0106,-20.29132 -19.55643,15.83818"
       id="path22-2-3" />
    <path
       style="fill:#828282;fill-opacity:1;stroke:#6c6c6c;stroke-width:8;stroke-linecap:round;stroke-linejoin:round;stroke-dasharray:none;stroke-opacity:1;paint-order:markers stroke fill"
       d="m 51.273016,28.987298 -6.021296,-9.97487 13.06849,7.78578"
       id="path22-3-3" />
    <path
       style="fill:#828282;fill-opacity:1;stroke:#6c6c6c;stroke-width:8;stroke-linecap:round;stroke-linejoin:round;stroke-dasharray:none;stroke-opacity:1;paint-order:markers stroke fill"
       d="m 105.33387,29.091498 6.0213,-9.97487 -13.068492,7.78578"
       id="path22-2-3-8" />
    <path
       style="fill:#828282;fill-opacity:1;stroke:#6c6c6c;stroke-width:8;stroke-linecap:round;stroke-linejoin:round;stroke-dasharray:none;stroke-opacity:1;paint-order:markers stroke fill"
       d="m 83.460208,125.96289 -5.582339,21.95258 -5.726945,-25.12416"
       id="path22-2-4" />
    <ellipse
       style="fill:#929292;fill-opacity:1;stroke:#818181;stroke-width:20;stroke-linecap:round;stroke-linejoin:round;stroke-dasharray:none;stroke-opacity:1;paint-order:markers stroke fill"
       id="path1"
       cx="78.241302"
       cy="76.115234"
       rx="45.275219"
       ry="45.585651" />
    <path
       style="fill:none;fill-opacity:1;stroke:#6e6e6e;stroke-width:4.99999;stroke-linecap:round;stroke-linejoin:round;stroke-dasharray:none;stroke-opacity:1;paint-order:markers stroke fill"
       d="M 49.805219,67.951312 39.766957,89.572183 71.812176,100.38261 59.843479,123.16174"
       id="path16" />
    <path
       style="fill:none;fill-opacity:1;stroke:#6e6e6e;stroke-width:4.99999;stroke-linecap:round;stroke-linejoin:round;stroke-dasharray:none;stroke-opacity:1;paint-order:markers stroke fill"
       d="M 92.660871,122.00348 100.7687,98.452185 80.692174,97.293924 85.325219,86.483488"
       id="path20" />
    <path
       style="fill:none;fill-opacity:1;stroke:#6e6e6e;stroke-width:4.99999;stroke-linecap:round;stroke-linejoin:round;stroke-dasharray:none;stroke-opacity:1;paint-order:markers stroke fill"
       d="m 80.692174,55.210438 8.493914,-11.58261 12.354782,5.40522 8.88,-10.81043"
       id="path17" />
    <path
       style="fill:none;fill-opacity:1;stroke:#6e6e6e;stroke-width:4.99999;stroke-linecap:round;stroke-linejoin:round;stroke-dasharray:none;stroke-opacity:1;paint-order:markers stroke fill"
       d="m 66.793046,29.342618 9.652172,12.74087 0.386087,9.65217 -12.354782,16.98783 -0.386088,11.968694 -29.342608,12.354785"
       id="path21" />
    <path
       style="fill:none;fill-opacity:1;stroke:#6e6e6e;stroke-width:4.99999;stroke-linecap:round;stroke-linejoin:round;stroke-dasharray:none;stroke-opacity:1;paint-order:markers stroke fill"
       d="m 68.723483,57.140878 -12.106269,-10.42435 -15.620989,5.40522 -6.248395,-6.1774"
       id="path19" />
    <ellipse
       style="fill:none;fill-opacity:1;stroke:#757575;stroke-width:10;stroke-linecap:round;stroke-linejoin:round;stroke-dasharray:none;stroke-opacity:1;paint-order:markers stroke fill"
       id="path7"
       cx="78.279129"
       cy="75.866104"
       rx="49.708694"
       ry="50.770435" />
    <path
       style="fill:none;fill-opacity:1;stroke:#626262;stroke-width:4.99999;stroke-linecap:round;stroke-linejoin:round;stroke-dasharray:none;stroke-opacity:1;paint-order:markers stroke fill"
       d="m 12.74087,99.610443 8.88,-40.153045 6.177392,1.54435 c 0,0 36.678261,7.335652 42.855652,-6.94957 6.177391,-14.28522 8.879999,-10.42435 8.879999,-10.42435"
       id="path12" />
    <path
       style="fill:none;fill-opacity:1;stroke:#626262;stroke-width:4.99999;stroke-linecap:round;stroke-linejoin:round;stroke-dasharray:none;stroke-opacity:1;paint-order:markers stroke fill"
       d="m 144.49141,99.512906 -8.88,-40.153048 -6.17739,1.54435 c 0,0 -36.678262,7.335655 -42.855652,-6.94956 -6.17739,-14.28522 -8.88,-10.42435 -8.88,-10.42435"
       id="path12-7" />
    <path
       style="fill:#626262;fill-opacity:1;stroke:none;stroke-width:4.99999;stroke-linecap:round;stroke-linejoin:round;stroke-dasharray:none;stroke-opacity:1;paint-order:markers stroke fill"
       d="m 14.671305,88.733126 4.299879,-19.608354 3.90898,-8.235514 16.417718,1.96084 23.062983,-2.353 10.945146,-8.23551 3.90898,-9.01985 9.77245,9.01985 3.518081,8.62767 21.499398,2.74517 23.06298,-4.706 5.08168,25.098693 v 9.019843 L 127.64084,75.791613 120.21377,69.909105 105.35965,68.732604 95.1963,69.909105 77.60589,56.967588 64.315355,69.51694 H 48.288536 L 31.089022,71.085608 18.189387,89.909627 Z"
       id="path14" />
    <path
       style="fill:none;fill-opacity:1;stroke:#626262;stroke-width:4.99999;stroke-linecap:round;stroke-linejoin:round;stroke-dasharray:none;stroke-opacity:1;paint-order:markers stroke fill"
       d="m 13.899131,99.224358 c 0,0 15.443478,-22.006957 15.443478,-23.937391 0,-1.930437 12.74087,-8.493919 26.253913,-5.019133 13.513043,3.474784 22.006957,-13.513046 22.006957,-13.513046"
       id="path13" />
    <path
       style="fill:none;fill-opacity:1;stroke:#6e6e6e;stroke-width:4.99999;stroke-linecap:round;stroke-linejoin:round;stroke-dasharray:none;stroke-opacity:1;paint-order:markers stroke fill"
       d="M 90.730437,67.951312 76.831305,80.306097 101.54087,88.413922 121.23131,71.426096"
       id="path18" />
    <path
       style="fill:none;fill-opacity:1;stroke:#626262;stroke-width:4.99999;stroke-linecap:round;stroke-linejoin:round;stroke-dasharray:none;stroke-opacity:1;paint-order:markers stroke fill"
       d="m 143.73971,99.470343 c 0,0 -15.72427,-22.00695 -15.72427,-23.937387 0,-1.930437 -12.97252,-8.493913 -26.73126,-5.019133 C 87.525445,73.988607 78.877097,57.000778 78.877097,57.000778"
       id="path13-2" />
  </g>
</svg>
