<?xml version="1.0" encoding="UTF-8" standalone="no"?>
<!-- Created with Inkscape (http://www.inkscape.org/) -->

<svg
   width="768mm"
   height="256mm"
   viewBox="0 0 767.99999 256"
   version="1.1"
   id="svg1"
   xml:space="preserve"
   inkscape:version="1.4 (86a8ad7, 2024-10-11)"
   sodipodi:docname="Tile_Map.svg"
   xmlns:inkscape="http://www.inkscape.org/namespaces/inkscape"
   xmlns:sodipodi="http://sodipodi.sourceforge.net/DTD/sodipodi-0.dtd"
   xmlns="http://www.w3.org/2000/svg"
   xmlns:svg="http://www.w3.org/2000/svg"><sodipodi:namedview
     id="namedview1"
     pagecolor="#ffffff"
     bordercolor="#000000"
     borderopacity="0.25"
     inkscape:showpageshadow="2"
     inkscape:pageopacity="0.0"
     inkscape:pagecheckerboard="0"
     inkscape:deskcolor="#d1d1d1"
     inkscape:document-units="px"
     inkscape:zoom="2.3987846"
     inkscape:cx="890.2425"
     inkscape:cy="431.26007"
     inkscape:window-width="1280"
     inkscape:window-height="657"
     inkscape:window-x="-8"
     inkscape:window-y="-8"
     inkscape:window-maximized="1"
     inkscape:current-layer="layer1"
     showguides="true"
     showgrid="false"><inkscape:grid
       id="grid1"
       units="px"
       originx="0"
       originy="0"
       spacingx="0.26458332"
       spacingy="0.26458333"
       empcolor="#0099e5"
       empopacity="0.30196078"
       color="#0099e5"
       opacity="0.14901961"
       empspacing="5"
       enabled="true"
       visible="false" /><sodipodi:guide
       position="239.66608,335.54434"
       orientation="0,-1"
       id="guide1"
       inkscape:locked="false" /></sodipodi:namedview><defs
     id="defs1" /><g
     inkscape:label="Camada 1"
     inkscape:groupmode="layer"
     id="layer1"
     transform="translate(-0.38326391,0.68212705)"><g
       id="g1"
       transform="matrix(0.99852062,0,0,1.0144147,1.1028557,-2.9076196)"><g
         id="layer1-2"
         inkscape:label="Layer 2" /><path
         style="fill:none;fill-opacity:1;stroke:none;stroke-width:2.386;stroke-linejoin:round;stroke-dasharray:none;stroke-opacity:1"
         d="m 211.09584,2.7775769 -9.72152,6.0180831 -5.09222,10.184448 5.09222,8.795661 5.55516,13.887884 1.38878,32.405063 -10.64737,10.184449 17.59132,11.573236 -6.48102,6.943939 -11.1103,6.48102 16.66546,10.18444 5.09222,3.24051 -25.46112,12.4991 20.3689,23.14647 1.38879,23.14647 0.92585,26.84991 -17.12839,13.42496 7.40688,36.57143"
         id="path13" /><path
         style="fill:none;fill-opacity:1;stroke:none;stroke-width:2.386;stroke-linejoin:round;stroke-dasharray:none;stroke-opacity:1"
         d="M 206.46655,3.7034358 196.2821,7.4068716 193.04159,15.739602 V 26.84991 l 9.72152,7.869801 0.92586,11.573237 v 18.980108 l -0.92586,14.350814 -11.57324,5.555154 14.35082,3.703435 6.48101,9.25859 -16.20253,10.647381 14.35081,7.40687 1.38879,7.40687 -17.59132,13.42495 17.12839,19.90597 0.92586,48.14467 -15.7396,20.36889 7.8698,29.16456"
         id="path14" /><rect
         style="fill:#1ea761;fill-opacity:1;stroke:none;stroke-width:5.46056;stroke-linejoin:round;stroke-dasharray:none;stroke-opacity:1"
         id="rect19"
         width="257.34143"
         height="257.62534"
         x="-1.086435"
         y="-0.45678252" /><path
         sodipodi:type="star"
         style="fill:#1c9e5b;fill-opacity:1;stroke:#1c9e5b;stroke-width:7.86633;stroke-linecap:round;stroke-linejoin:round;stroke-dasharray:none;stroke-opacity:1"
         id="path19"
         inkscape:flatsided="true"
         sodipodi:sides="3"
         sodipodi:cx="22.382343"
         sodipodi:cy="23.752691"
         sodipodi:r1="28.806288"
         sodipodi:r2="14.403143"
         sodipodi:arg1="-0.25651661"
         sodipodi:arg2="0.79068094"
         inkscape:rounded="0"
         inkscape:randomized="0"
         d="M 50.246079,16.444171 14.77984,51.537654 2.1211111,3.276249 Z"
         inkscape:transform-center-x="-2.9437035"
         inkscape:transform-center-y="2.4863369"
         transform="matrix(0.77440381,0,0,0.68039399,50.764332,28.567618)" /><path
         sodipodi:type="star"
         style="fill:#1c9e5b;fill-opacity:1;stroke:#1c9e5b;stroke-width:7.31527;stroke-linecap:round;stroke-linejoin:round;stroke-dasharray:none;stroke-opacity:1"
         id="path19-1"
         inkscape:flatsided="true"
         sodipodi:sides="3"
         sodipodi:cx="22.382343"
         sodipodi:cy="23.752691"
         sodipodi:r1="28.806288"
         sodipodi:r2="14.403143"
         sodipodi:arg1="-0.25651661"
         sodipodi:arg2="0.79068094"
         inkscape:rounded="0"
         inkscape:randomized="0"
         d="M 50.246079,16.444171 14.77984,51.537654 2.1211111,3.276249 Z"
         inkscape:transform-center-x="-2.6381255"
         inkscape:transform-center-y="-2.211862"
         transform="matrix(0.77414788,-0.01990782,0.02192582,-0.68118277,199.38266,203.25167)" /><path
         sodipodi:type="star"
         style="fill:#1fad64;fill-opacity:1;stroke:#1fad64;stroke-width:5.386;stroke-linecap:round;stroke-linejoin:round;stroke-dasharray:none;stroke-opacity:1"
         id="path20"
         inkscape:flatsided="true"
         sodipodi:sides="6"
         sodipodi:cx="116"
         sodipodi:cy="97"
         sodipodi:r1="18.973665"
         sodipodi:r2="16.431677"
         sodipodi:arg1="-1.2490458"
         sodipodi:arg2="-0.725447"
         inkscape:rounded="0"
         inkscape:randomized="0"
         d="m 122,79.000001 12.58846,14.196151 -6,17.999998 L 110,115 97.411544,100.80385 103.41154,82.803848 Z"
         transform="translate(-83,55)" /><path
         sodipodi:type="star"
         style="fill:#1fad64;fill-opacity:1;stroke:#1fad64;stroke-width:5.386;stroke-linecap:round;stroke-linejoin:round;stroke-dasharray:none;stroke-opacity:1"
         id="path21"
         inkscape:flatsided="true"
         sodipodi:sides="6"
         sodipodi:cx="135"
         sodipodi:cy="61"
         sodipodi:r1="25.317978"
         sodipodi:r2="21.926012"
         sodipodi:arg1="1.4121411"
         sodipodi:arg2="1.9357398"
         inkscape:rounded="0"
         inkscape:randomized="0"
         d="m 139,86 -23.65064,-9.035899 -3.99999,-25 L 131,36 l 23.65064,9.035899 3.99999,25 z"
         transform="translate(3,70)" /><path
         sodipodi:type="star"
         style="fill:#1fad64;fill-opacity:1;stroke:#1fad64;stroke-width:5.31;stroke-linecap:round;stroke-linejoin:round;stroke-dasharray:none;stroke-opacity:1"
         id="path22"
         inkscape:flatsided="true"
         sodipodi:sides="8"
         sodipodi:cx="101"
         sodipodi:cy="89"
         sodipodi:r1="9.8488579"
         sodipodi:r2="9.0991583"
         sodipodi:arg1="0.41822433"
         sodipodi:arg2="0.81092341"
         inkscape:rounded="0"
         inkscape:randomized="0"
         d="M 110,93 104.53553,98.192388 97,98 91.807612,92.535534 92,85 97.464466,79.807612 105,80 l 5.19239,5.464466 z"
         transform="translate(83,-52)" /><path
         sodipodi:type="star"
         style="fill:#1c9e5b;fill-opacity:1;stroke:#1c9e5b;stroke-width:5.31;stroke-linecap:round;stroke-linejoin:round;stroke-dasharray:none;stroke-opacity:1"
         id="path23"
         inkscape:flatsided="true"
         sodipodi:sides="8"
         sodipodi:cx="121"
         sodipodi:cy="225"
         sodipodi:r1="15.811388"
         sodipodi:r2="14.607818"
         sodipodi:arg1="0.60554466"
         sodipodi:arg2="0.99824375"
         inkscape:rounded="0"
         inkscape:randomized="0"
         d="M 134,234 123.82843,240.55635 112,238 105.44365,227.82843 108,216 118.17157,209.44365 130,212 l 6.55635,10.17157 z"
         transform="translate(10,-1)" /><path
         sodipodi:type="star"
         style="fill:#1c9e5b;fill-opacity:1;stroke:#1c9e5b;stroke-width:5.31;stroke-linecap:round;stroke-linejoin:round;stroke-dasharray:none;stroke-opacity:1"
         id="path24"
         inkscape:flatsided="false"
         sodipodi:sides="9"
         sodipodi:cx="149"
         sodipodi:cy="52"
         sodipodi:r1="4.1231055"
         sodipodi:r2="3.809253"
         sodipodi:arg1="0.24497866"
         sodipodi:arg2="0.59404451"
         inkscape:rounded="0"
         inkscape:randomized="0"
         d="m 153,53 -0.84333,1.132104 -0.73528,1.205091 -1.37373,0.325157 -1.33788,0.450527 -1.26134,-0.633934 -1.31447,-0.514843 -0.55876,-1.296401 -0.676,-1.239313 0.40527,-1.352268 0.27877,-1.383893 1.17968,-0.775393 1.1031,-0.880936 1.40209,0.164297 1.41128,0.03422 0.96846,1.02711 1.05911,0.933367 0.0817,1.409327 z"
         inkscape:transform-center-x="0.050395313"
         inkscape:transform-center-y="0.074388787"
         transform="translate(67,25)" /><path
         sodipodi:type="star"
         style="fill:#1c9e5b;fill-opacity:1;stroke:#1c9e5b;stroke-width:5.31;stroke-linecap:round;stroke-linejoin:round;stroke-dasharray:none;stroke-opacity:1"
         id="path24-5"
         inkscape:flatsided="false"
         sodipodi:sides="9"
         sodipodi:cx="149"
         sodipodi:cy="52"
         sodipodi:r1="4.1231055"
         sodipodi:r2="3.809253"
         sodipodi:arg1="0.24497866"
         sodipodi:arg2="0.59404451"
         inkscape:rounded="0"
         inkscape:randomized="0"
         d="m 153,53 -0.84333,1.132104 -0.73528,1.205091 -1.37373,0.325157 -1.33788,0.450527 -1.26134,-0.633934 -1.31447,-0.514843 -0.55876,-1.296401 -0.676,-1.239313 0.40527,-1.352268 0.27877,-1.383893 1.17968,-0.775393 1.1031,-0.880936 1.40209,0.164297 1.41128,0.03422 0.96846,1.02711 1.05911,0.933367 0.0817,1.409327 z"
         inkscape:transform-center-x="0.050395313"
         inkscape:transform-center-y="0.074388787"
         transform="translate(-50.24423,49.61909)" /></g><g
       id="g2"
       transform="matrix(0.99820308,0,0,0.99361043,258.02558,0.34607878)"><g
         id="layer1-1"><path
           style="fill:#69462e;fill-opacity:1;stroke:none;stroke-width:3.53551;stroke-linejoin:round;stroke-dasharray:none;stroke-opacity:0.31954"
           d="m 229.69343,257.27487 -10.81507,-34.69042 18.33858,-16.8764 -0.47023,-46.41016 -22.10033,-24.37704 23.04078,-14.53247 -23.04078,-11.71973 22.10033,-12.18853 -21.6301,-11.250944 12.22572,-14.53247 -0.47022,-33.284044 -14.10659,-17.813995 10.81504,-17.3452049 6.11287,-4.219104 L -0.71422871,-0.55927392 -1.1844484,256.33729 Z"
           id="path15" /></g><path
         style="fill:none;fill-opacity:1;stroke:#4f3422;stroke-width:3.786;stroke-linejoin:round;stroke-dasharray:none;stroke-opacity:1"
         d="m 229.15063,-0.92641855 -7.12531,6.55302915 -8.61429,15.8222204 13.42435,16.320189 0.46291,33.57296 -12.49854,14.455025 21.2938,11.190986 -22.21961,12.123569 23.14543,11.19098 -23.14543,14.92133 21.7567,24.71342 v 45.69653 l -17.12762,16.78648 10.18467,34.96847"
         id="path12" /><path
         style="fill:none;fill-opacity:1;stroke:#000000;stroke-width:5.386;stroke-linejoin:round;stroke-dasharray:none;stroke-opacity:0.31954"
         d="m 233.95066,-2.312512 -8.05117,7.9418175 -8.61429,15.8222195 13.42435,16.320189 0.46291,33.57296 -12.49854,14.455025 21.2938,11.190986 -22.21961,12.123575 23.14543,11.19098 -23.14543,14.92133 21.7567,24.71342 v 45.69653 l -17.12762,16.78648 6.396,28.04281 2.86281,6.92566"
         id="path12-2" /><path
         style="fill:none;fill-opacity:1;stroke:none;stroke-width:2.386;stroke-linejoin:round;stroke-dasharray:none;stroke-opacity:1"
         d="m 211.09584,2.7775769 -9.72152,6.0180831 -5.09222,10.184448 5.09222,8.795661 5.55516,13.887884 1.38878,32.405063 -10.64737,10.184449 17.59132,11.573236 -6.48102,6.943939 -11.1103,6.48102 16.66546,10.18444 5.09222,3.24051 -25.46112,12.4991 20.3689,23.14647 1.38879,23.14647 0.92585,26.84991 -17.12839,13.42496 7.40688,36.57143"
         id="path13-6" /><path
         style="fill:none;fill-opacity:1;stroke:none;stroke-width:2.386;stroke-linejoin:round;stroke-dasharray:none;stroke-opacity:1"
         d="M 206.46655,3.7034358 196.2821,7.4068716 193.04159,15.739602 V 26.84991 l 9.72152,7.869801 0.92586,11.573237 v 18.980108 l -0.92586,14.350814 -11.57324,5.555154 14.35082,3.703435 6.48101,9.25859 -16.20253,10.647381 14.35081,7.40687 1.38879,7.40687 -17.59132,13.42495 17.12839,19.90597 0.92586,48.14467 -15.7396,20.36889 7.8698,29.16456"
         id="path14-8" /><ellipse
         style="fill:#4f3422;fill-opacity:1;stroke:#4f3422;stroke-width:5.386;stroke-linejoin:round;stroke-dasharray:none;stroke-opacity:1"
         id="path16"
         cx="124.75928"
         cy="212.63194"
         rx="20.368896"
         ry="17.822784" /><ellipse
         style="fill:#4f3422;fill-opacity:1;stroke:#4f3422;stroke-width:5.386;stroke-linejoin:round;stroke-dasharray:none;stroke-opacity:1"
         id="path16-4"
         cx="47.310444"
         cy="31.764931"
         rx="20.368896"
         ry="17.822784" /><ellipse
         style="fill:#4f3422;fill-opacity:1;stroke:#4f3422;stroke-width:2.16666;stroke-linejoin:round;stroke-dasharray:none;stroke-opacity:1"
         id="path16-4-5"
         cx="128.70293"
         cy="92.934731"
         rx="8.2750931"
         ry="7.0993285" /><ellipse
         style="fill:#4f3422;fill-opacity:1;stroke:#4f3422;stroke-width:2.16666;stroke-linejoin:round;stroke-dasharray:none;stroke-opacity:1"
         id="path16-4-5-5"
         cx="61.273224"
         cy="153.28047"
         rx="8.2750931"
         ry="7.0993285" /><ellipse
         style="fill:#4f3422;fill-opacity:1;stroke:#4f3422;stroke-width:2.16666;stroke-linejoin:round;stroke-dasharray:none;stroke-opacity:1"
         id="path16-4-5-5-1"
         cx="200.49408"
         cy="168.66467"
         rx="8.2750931"
         ry="7.0993285" /><path
         style="fill:#4f3422;fill-opacity:1;stroke:none;stroke-width:5.386;stroke-linejoin:round;stroke-dasharray:none;stroke-opacity:1"
         id="path17"
         d="M 49.789294,84.047989 37.68895,91.302922 25.355822,84.451184 25.123037,70.344513 37.22338,63.089579 49.556509,69.941317 Z"
         transform="matrix(0.98148148,0,0,0.90285819,-0.44832364,31.708458)" /><path
         style="fill:#4f3422;fill-opacity:1;stroke:none;stroke-width:5.386;stroke-linejoin:round;stroke-dasharray:none;stroke-opacity:1"
         id="path18"
         d="m 150.28145,42.023992 -17.12056,2.246723 -10.50599,-13.703475 6.61455,-15.950199 17.12056,-2.246723 10.506,13.703475 z" /><path
         style="fill:#4f3422;fill-opacity:1;stroke:none;stroke-width:5.386;stroke-linejoin:round;stroke-dasharray:none;stroke-opacity:1"
         id="path19-5"
         d="m 140.68902,132.46694 -1.08515,14.66945 -13.24669,6.39495 -12.16154,-8.27449 1.08515,-14.66945 13.24669,-6.39496 z" /></g><rect
       style="fill:#694630;fill-opacity:1;stroke:none;stroke-width:1.22907;stroke-linecap:round;stroke-linejoin:round"
       id="rect1"
       width="216.74007"
       height="12.552506"
       x="259.27371"
       y="-9.102459" /><rect
       style="fill:#694630;fill-opacity:1;stroke:none;stroke-width:0.730456;stroke-linecap:round;stroke-linejoin:round"
       id="rect1-82"
       width="3.6425786"
       height="263.81345"
       x="256.76453"
       y="-5.0490856" /><rect
       style="fill:#694630;fill-opacity:1;stroke:none;stroke-width:1.24518;stroke-linecap:round;stroke-linejoin:round"
       id="rect1-8"
       width="222.13206"
       height="12.396521"
       x="259.81943"
       y="245.76102" /><g
       id="g3"
       transform="matrix(0.98249193,0,0,0.98943469,519.27175,0.34278534)"><g
         id="layer1-5"><rect
           style="fill:#694630;stroke-width:5.31;stroke-linecap:round;stroke-linejoin:round"
           id="rect1-1"
           width="260.45218"
           height="262.23306"
           x="-1.7808696"
           y="-2.6713042" /></g><path
         style="fill:none;fill-opacity:1;stroke:none;stroke-width:2.386;stroke-linejoin:round;stroke-dasharray:none;stroke-opacity:1"
         d="m 211.09584,2.7775769 -9.72152,6.0180831 -5.09222,10.184448 5.09222,8.795661 5.55516,13.887884 1.38878,32.405063 -10.64737,10.184449 17.59132,11.573236 -6.48102,6.943939 -11.1103,6.48102 16.66546,10.18444 5.09222,3.24051 -25.46112,12.4991 20.3689,23.14647 1.38879,23.14647 0.92585,26.84991 -17.12839,13.42496 7.40688,36.57143"
         id="path13-7" /><path
         style="fill:none;fill-opacity:1;stroke:none;stroke-width:2.386;stroke-linejoin:round;stroke-dasharray:none;stroke-opacity:1"
         d="M 206.46655,3.7034358 196.2821,7.4068716 193.04159,15.739602 V 26.84991 l 9.72152,7.869801 0.92586,11.573237 v 18.980108 l -0.92586,14.350814 -11.57324,5.555154 14.35082,3.703435 6.48101,9.25859 -16.20253,10.647381 14.35081,7.40687 1.38879,7.40687 -17.59132,13.42495 17.12839,19.90597 0.92586,48.14467 -15.7396,20.36889 7.8698,29.16456"
         id="path14-1" /><ellipse
         style="fill:#4f3422;fill-opacity:1;stroke:#4f3422;stroke-width:5.386;stroke-linejoin:round;stroke-dasharray:none;stroke-opacity:1"
         id="path16-1"
         cx="136.33493"
         cy="218.86499"
         rx="20.368896"
         ry="17.822784" /><ellipse
         style="fill:#4f3422;fill-opacity:1;stroke:#4f3422;stroke-width:5.386;stroke-linejoin:round;stroke-dasharray:none;stroke-opacity:1"
         id="path16-4-52"
         cx="86.044357"
         cy="68.717972"
         rx="20.368896"
         ry="17.822784" /><ellipse
         style="fill:#4f3422;fill-opacity:1;stroke:#4f3422;stroke-width:2.16666;stroke-linejoin:round;stroke-dasharray:none;stroke-opacity:1"
         id="path16-4-5-7"
         cx="123.80553"
         cy="145.9156"
         rx="8.2750931"
         ry="7.0993285" /><ellipse
         style="fill:#4f3422;fill-opacity:1;stroke:#4f3422;stroke-width:2.16666;stroke-linejoin:round;stroke-dasharray:none;stroke-opacity:1"
         id="path16-4-5-5-6"
         cx="31.888876"
         cy="184.00047"
         rx="8.2750931"
         ry="7.0993285" /><ellipse
         style="fill:#4f3422;fill-opacity:1;stroke:#4f3422;stroke-width:2.16666;stroke-linejoin:round;stroke-dasharray:none;stroke-opacity:1"
         id="path16-4-5-5-1-1"
         cx="229.43321"
         cy="196.26816"
         rx="8.2750931"
         ry="7.0993285" /><path
         style="fill:#4f3422;fill-opacity:1;stroke:none;stroke-width:5.07011;stroke-linejoin:round;stroke-dasharray:none;stroke-opacity:1"
         id="path17-4"
         d="M 35.952859,31.4597 24.076596,38.009876 11.971859,31.823728 11.743385,19.087405 23.619648,12.537228 35.724385,18.723376 Z" /><path
         style="fill:#4f3422;fill-opacity:1;stroke:none;stroke-width:5.386;stroke-linejoin:round;stroke-dasharray:none;stroke-opacity:1"
         id="path18-2"
         d="m 181.44667,37.571818 -17.12056,2.246723 -10.50599,-13.703475 6.61455,-15.950199 17.12056,-2.2467229 10.506,13.7034749 z" /><path
         style="fill:#4f3422;fill-opacity:1;stroke:none;stroke-width:5.386;stroke-linejoin:round;stroke-dasharray:none;stroke-opacity:1"
         id="path19-3"
         d="m 220.82815,93.733027 -1.08515,14.669453 -13.24669,6.39495 -12.16154,-8.27449 1.08515,-14.669453 13.24669,-6.39496 z" /><path
         style="fill:#4f3422;fill-opacity:1;stroke:none;stroke-width:5.386;stroke-linejoin:round;stroke-dasharray:none;stroke-opacity:1"
         id="path19-4"
         d="m 73.35149,130.34411 -12.308852,8.05372 -13.129149,-6.63292 -0.820303,-14.68664 12.308853,-8.05372 13.129156,6.63292 z" /></g></g></svg>
